<svg width="194" height="41" viewBox="0 0 194 41" fill="none" xmlns="http://www.w3.org/2000/svg">
<g clip-path="url(#clip0_99_5082)">
<path d="M60.5243 1.64746V12.8512C54.0915 8.86528 43.453 11.1833 39.9712 19.2623C39.8883 19.0482 39.8181 18.874 39.7544 18.6967C38.8153 16.115 37.1972 14.1133 34.6974 12.9087C32.7157 11.955 30.6113 11.6866 28.4272 11.8975C25.6165 12.1706 23.1582 13.1995 21.1367 15.2028C21.0267 15.3115 20.9087 15.4121 20.7397 15.5655C20.3348 14.6629 19.9473 13.8193 19.5807 12.9646C19.4643 12.693 19.3176 12.586 19.0067 12.5892C17.0378 12.6052 15.0673 12.5972 13.0984 12.5988C12.9597 12.5988 12.821 12.618 12.676 12.6291C12.6648 12.7825 12.6489 12.8943 12.6489 13.0062C12.6489 17.2541 12.652 21.502 12.6409 25.75C12.6393 26.111 12.7796 26.2021 13.1048 26.2644C15.8804 26.8044 18.6098 27.5201 21.2833 28.4483C21.6054 28.5601 21.937 28.6512 22.3132 28.7662C22.3132 28.4403 22.3068 28.199 22.3132 27.9578C22.3451 26.7485 22.2989 25.5311 22.4296 24.3329C22.7102 21.7417 24.4033 20.2064 26.9844 20.0754C28.8257 19.9828 30.1043 20.8646 30.5858 22.6395C30.7612 23.2865 30.8632 23.9719 30.8712 24.6413C30.9047 27.1287 30.8951 29.6161 30.8776 32.1035C30.8744 32.4789 30.9923 32.6722 31.3208 32.8496C34.3977 34.5078 37.3056 36.4233 40.0621 38.5721C40.1944 38.6759 40.3363 38.767 40.5738 38.9347V33.8177C44.6997 41.3934 55.8962 43.2513 62.0659 37.9602C62.329 38.5784 62.5713 39.1887 62.8535 39.783C62.9189 39.9188 63.1118 40.0818 63.2489 40.0834C65.5398 40.1025 67.8308 40.0961 70.16 40.0961V1.64746H60.5275H60.5243ZM54.8456 32.3495C51.2043 32.3575 48.4941 29.6417 48.4861 25.9752C48.4781 22.296 51.1676 19.5562 54.7961 19.5514C58.4358 19.545 61.1524 22.2641 61.1652 25.9257C61.1795 29.5873 58.4693 32.3399 54.8456 32.3495Z" fill="#1977F3"/>
<path d="M122.318 31.5646V40.0685C122.187 40.078 122.061 40.0972 121.937 40.0972C119.725 40.0972 117.511 40.1132 115.301 40.0892C113.637 40.0716 112.023 39.7601 110.528 39.0029C107.668 37.5539 106.217 35.1192 105.763 32.0279C105.646 31.2339 105.618 30.4191 105.613 29.614C105.597 26.4156 105.607 23.2173 105.607 20.0206V19.3544H100.666C100.666 19.5461 100.666 19.749 100.666 19.9503C100.653 22.9377 100.723 25.9284 100.61 28.9126C100.39 34.6926 96.6326 39.1754 90.9937 40.4742C87.2456 41.3385 83.539 41.2043 79.9997 39.5988C75.7191 37.6577 73.4457 34.223 72.9133 29.598C72.8288 28.8631 72.8176 28.1154 72.8176 27.3742C72.8096 22.3993 72.8144 17.4245 72.8144 12.4497V11.8378H82.5505V12.4577C82.5505 17.351 82.5441 22.246 82.5585 27.1393C82.5601 27.7975 82.5999 28.4717 82.7498 29.1075C83.2313 31.1652 84.8351 32.3298 86.9379 32.2228C89.0854 32.1126 90.5218 30.8137 90.8279 28.6826C90.8964 28.2049 90.9251 27.7177 90.9267 27.2352C90.9331 22.3083 90.9299 17.383 90.9299 12.4561V11.8394H100.664V16.6034C100.717 16.6385 100.77 16.6737 100.821 16.7088C100.931 16.5586 101.025 16.3973 101.151 16.2631C105.007 12.1525 108.87 8.04839 112.72 3.93305C112.986 3.64868 113.242 3.50171 113.634 3.52727C114.112 3.55922 114.595 3.53526 115.128 3.53526V11.7883H122.174V19.3033H115.344V19.8225C115.344 22.6006 115.338 25.3788 115.351 28.157C115.352 28.5723 115.389 29.0005 115.493 29.4015C115.842 30.7498 116.916 31.5326 118.459 31.563C119.732 31.587 121.006 31.5678 122.318 31.5678V31.5646Z" fill="#1977F3"/>
<path d="M165.176 11.8152C165.107 11.9958 165.056 12.1427 164.999 12.2865C161.332 21.4118 157.664 30.5356 154.005 39.6657C153.869 40.0043 153.7 40.1114 153.337 40.1082C150.722 40.0906 148.106 40.089 145.49 40.1082C145.107 40.1114 144.935 40.0027 144.789 39.6417C141.152 30.6777 137.5 21.7186 133.85 12.7594C133.793 12.6172 133.724 12.4782 133.584 12.3536V40.065H123.893V11.7993H124.452C130.831 11.7993 137.208 11.8057 143.587 11.7881C144.019 11.7881 144.191 11.9111 144.32 12.3201C145.983 17.5761 147.665 22.8273 149.342 28.0785C149.375 28.1839 149.417 28.2878 149.498 28.5114C151.276 22.88 153.021 17.346 154.767 11.8152H165.176Z" fill="#1977F3"/>
<path d="M193.552 11.715C191.436 11.7134 189.323 11.723 187.207 11.7038C186.856 11.7006 186.694 11.822 186.566 12.1288C186.325 12.7167 186.046 13.2886 185.771 13.8925C185.552 13.7327 185.396 13.6193 185.24 13.5075C185.082 13.3956 184.924 13.2822 184.763 13.1768C181.665 11.1686 178.274 10.5648 174.665 11.1223C170.179 11.8141 166.663 14.0251 164.374 17.9919C162.423 21.3755 161.964 25.0483 162.619 28.8537C164.438 39.4073 174.77 42.7941 182.014 40.0687C183.296 39.5862 184.471 38.8162 185.719 38.1644C185.888 38.5701 186.131 39.0798 186.314 39.6101C186.431 39.9472 186.614 40.0303 186.95 40.0255C188.419 40.0079 189.888 40.0175 191.358 40.0175H194V11.739C193.836 11.731 193.694 11.715 193.554 11.715H193.552ZM178.442 32.33C174.837 32.3188 172.136 29.5487 172.148 25.8711C172.157 22.203 174.869 19.5175 178.539 19.5431C182.12 19.5671 184.776 22.3069 184.75 25.9509C184.725 29.6253 182.038 32.3412 178.443 32.33H178.442Z" fill="#1977F3"/>
<path d="M40.4941 0.910156H12.6998V8.84688H40.4941V0.910156Z" fill="#1977F3"/>
<path d="M9.58792 12.6221V25.5352C6.40579 25.3323 3.23004 25.1294 0.00964355 24.9265V12.6221H9.58792Z" fill="#1977F3"/>
<path d="M9.62299 40.5686C9.62299 40.6469 9.60705 40.7235 9.59429 40.8402H0.0112305V29.1699C0.242397 29.2035 0.476753 29.2178 0.701543 29.2722C3.52497 29.9511 6.3468 30.6365 9.17022 31.3203C9.42849 31.3842 9.63734 31.4305 9.63415 31.8011C9.61821 34.7247 9.62618 37.6482 9.62299 40.5702V40.5686Z" fill="#1977F3"/>
<path d="M133.436 0H123.886V8.22109H133.436V0Z" fill="#1977F3"/>
<path d="M9.49219 0.816406H0V8.95602H9.49219V0.816406Z" fill="#1977F3"/>
<path d="M22.3068 40.6101C22.3068 40.6724 22.2908 40.7331 22.2797 40.8226H12.6791V32.2852C12.8831 32.3283 13.0665 32.3539 13.2418 32.405C16.1243 33.2421 19.0035 34.0808 21.8859 34.9195C22.1266 34.9898 22.3211 35.0426 22.3179 35.3812C22.2988 37.1242 22.31 38.8687 22.3068 40.6117V40.6101Z" fill="#1977F3"/>
<path d="M38.8552 40.7384C38.8472 40.7671 38.8393 40.7959 38.8297 40.8262H30.9078V37.8516C33.6037 38.8309 36.2295 39.7862 38.8536 40.74L38.8552 40.7384Z" fill="#1977F3"/>
</g>
<defs>
<clipPath id="clip0_99_5082">
<rect width="194" height="41" fill="white"/>
</clipPath>
</defs>
</svg>
