<svg width="57" height="57" viewBox="0 0 57 57" fill="none" xmlns="http://www.w3.org/2000/svg">
<g clip-path="url(#clip0_354_391)">
<path d="M12.9266 0.0205078H0.541184C0.265286 0.0205078 0.041626 0.249448 0.041626 0.53186V11.1643C0.041626 11.4467 0.265286 11.6757 0.541184 11.6757H12.9266C13.2025 11.6757 13.4262 11.4467 13.4262 11.1643V0.53186C13.4262 0.249448 13.2025 0.0205078 12.9266 0.0205078Z" fill="#1977F3"/>
<path d="M55.488 0.0205078H17.9762C17.668 0.0205078 17.4181 0.276261 17.4181 0.591748V11.1044C17.4181 11.4199 17.668 11.6757 17.9762 11.6757H55.488C55.7962 11.6757 56.0461 11.4199 56.0461 11.1044V0.591748C56.0461 0.276261 55.7962 0.0205078 55.488 0.0205078Z" fill="#1977F3"/>
<path d="M13.4261 16.863V34.8157C9.08313 34.1753 4.60961 33.8252 0.0415802 33.7976V16.863C0.0415802 16.5912 0.257605 16.3701 0.523136 16.3701H12.9401C13.2056 16.3701 13.4216 16.5912 13.4216 16.863H13.4261Z" fill="#1977F3"/>
<path opacity="0.5" d="M0.0415802 39.7539C4.63211 40.5785 9.10113 41.5045 13.4261 42.5364V55.5275C13.4261 55.7993 13.2101 56.0204 12.9446 56.0204H0.527637C0.262106 56.0204 0.0460807 55.7993 0.0460807 55.5275V39.7539H0.0415802Z" fill="#1977F3"/>
<path opacity="0.5" d="M17.4181 43.5225C22.0626 44.7202 26.5272 46.0285 30.7982 47.452V55.5415C30.7982 55.8041 30.5866 56.0206 30.3301 56.0206H17.8862C17.6296 56.0206 17.4181 55.8041 17.4181 55.5415V43.5225Z" fill="#1977F3"/>
<path opacity="0.5" d="M42.099 51.6577C45.4383 53.0397 48.6202 54.4955 51.6266 56.0203H42.567C42.3105 56.0203 42.099 55.8038 42.099 55.5412V51.6577Z" fill="#1977F3"/>
<path d="M55.9561 30.7524V53.685C51.8471 50.0825 47.1936 46.8716 42.099 44.1397V30.7524H42.072C42.072 30.7524 41.0143 26.8183 37.3734 26.8183C33.7325 26.8183 30.7981 29.5224 30.7981 36.1931V39.1368C26.5317 37.6073 22.0581 36.3773 17.4181 35.4882V16.9367C17.4181 16.6189 17.6701 16.3655 17.9762 16.3655H26.1176C26.3156 16.3655 26.5002 16.4714 26.5992 16.6511L28.8314 20.5715C28.8314 20.5715 29.4435 19.6409 30.7937 18.5721C32.6479 17.0934 35.9017 15.3428 40.8928 15.3428C42.8911 15.3428 44.7723 15.7021 46.4825 16.3655C52.1531 18.5629 55.9516 24.0818 55.9516 30.7524H55.9561Z" fill="#1977F3"/>
<path opacity="0.15" d="M0.0415802 39.7539C4.63211 40.5785 9.10113 41.5045 13.4261 42.5364V55.5275C13.4261 55.7993 13.2101 56.0204 12.9446 56.0204H0.527637C0.262106 56.0204 0.0460807 55.7993 0.0460807 55.5275V39.7539H0.0415802Z" fill="#1977F3"/>
<path opacity="0.15" d="M17.4181 43.5225C22.0626 44.7202 26.5272 46.0285 30.7982 47.452V55.5415C30.7982 55.8041 30.5866 56.0206 30.3301 56.0206H17.8862C17.6296 56.0206 17.4181 55.8041 17.4181 55.5415V43.5225Z" fill="#1977F3"/>
<path opacity="0.15" d="M51.6266 56.0203H42.567C42.3105 56.0203 42.099 55.8038 42.099 55.5412V51.6577C45.4383 53.0397 48.6202 54.4955 51.6266 56.0203Z" fill="#1977F3"/>
<path d="M13.4261 42.5364V55.5275C13.4261 55.7993 13.2101 56.0204 12.9446 56.0204H0.527637C0.262107 56.0204 0.0460815 55.7993 0.0460815 55.5275V39.7539C4.63661 40.5785 9.10563 41.5045 13.4306 42.5364H13.4261Z" fill="#1977F3"/>
<path d="M30.7982 47.452V55.5415C30.7982 55.8041 30.5866 56.0206 30.3301 56.0206H17.8862C17.6296 56.0206 17.4181 55.8041 17.4181 55.5415V43.5225C22.0626 44.7202 26.5272 46.0285 30.7982 47.452Z" fill="#1977F3"/>
<path d="M51.6266 56.0203H42.567C42.3105 56.0203 42.099 55.8038 42.099 55.5412V51.6577C45.4383 53.0397 48.6202 54.4955 51.6266 56.0203Z" fill="#1977F3"/>
</g>
<defs>
<clipPath id="clip0_354_391">
<rect width="56" height="56" fill="white" transform="translate(0.041626 0.0205078)"/>
</clipPath>
</defs>
</svg>
