<svg width="48" height="48" viewBox="0 0 48 48" fill="none" xmlns="http://www.w3.org/2000/svg">
<g clip-path="url(#clip0_99_4763)">
<path d="M11.0443 0H0.428193C0.191708 0 0 0.196235 0 0.438302V9.55183C0 9.79389 0.191708 9.99013 0.428193 9.99013H11.0443C11.2808 9.99013 11.4725 9.79389 11.4725 9.55183V0.438302C11.4725 0.196235 11.2808 0 11.0443 0Z" fill="white"/>
<path d="M47.5255 0H15.3725C15.1083 0 14.8942 0.219217 14.8942 0.489635V9.50049C14.8942 9.77091 15.1083 9.99013 15.3725 9.99013H47.5255C47.7897 9.99013 48.0039 9.77091 48.0039 9.50049V0.489635C48.0039 0.219217 47.7897 0 47.5255 0Z" fill="white"/>
<path d="M11.4725 14.4362V29.8241C7.7499 29.2753 3.91545 28.9752 0 28.9515V14.4362C0 14.2032 0.185164 14.0137 0.412762 14.0137H11.0559C11.2835 14.0137 11.4686 14.2032 11.4686 14.4362H11.4725Z" fill="white"/>
<path opacity="0.5" d="M0 34.0571C3.93474 34.7639 7.76533 35.5576 11.4725 36.4421V47.5774C11.4725 47.8103 11.2873 47.9999 11.0597 47.9999H0.41662C0.189022 47.9999 0.00385759 47.8103 0.00385759 47.5774V34.0571H0Z" fill="white"/>
<path opacity="0.5" d="M14.8942 37.2871C18.8752 38.3138 22.7019 39.4352 26.3628 40.6553V47.5892C26.3628 47.8143 26.1815 47.9998 25.9616 47.9998H15.2954C15.0755 47.9998 14.8942 47.8143 14.8942 47.5892V37.2871Z" fill="white"/>
<path opacity="0.5" d="M36.0492 44.2607C38.9115 45.4453 41.6388 46.6931 44.2157 48.0001H36.4504C36.2305 48.0001 36.0492 47.8145 36.0492 47.5895V44.2607Z" fill="white"/>
<path d="M47.9267 26.3416V45.9981C44.4047 42.9102 40.416 40.158 36.0492 37.8164V26.3416H36.026C36.026 26.3416 35.1195 22.9694 31.9987 22.9694C28.8779 22.9694 26.3628 25.2873 26.3628 31.005V33.5282C22.7058 32.2172 18.8713 31.1629 14.8942 30.4008V14.4995C14.8942 14.2271 15.1102 14.0099 15.3725 14.0099H22.3509C22.5206 14.0099 22.6788 14.1007 22.7636 14.2547L24.677 17.615C24.677 17.615 25.2016 16.8174 26.3589 15.9013C27.9483 14.6338 30.7373 13.1333 35.0154 13.1333C36.7281 13.1333 38.3406 13.4413 39.8065 14.0099C44.667 15.8934 47.9229 20.6239 47.9229 26.3416H47.9267Z" fill="white"/>
<path opacity="0.15" d="M0 34.0571C3.93474 34.7639 7.76533 35.5576 11.4725 36.4421V47.5774C11.4725 47.8103 11.2873 47.9999 11.0597 47.9999H0.41662C0.189022 47.9999 0.00385759 47.8103 0.00385759 47.5774V34.0571H0Z" fill="white"/>
<path opacity="0.15" d="M14.8942 37.2871C18.8752 38.3138 22.7019 39.4352 26.3628 40.6553V47.5892C26.3628 47.8143 26.1815 47.9998 25.9616 47.9998H15.2954C15.0755 47.9998 14.8942 47.8143 14.8942 47.5892V37.2871Z" fill="white"/>
<path opacity="0.15" d="M44.2157 48.0001H36.4504C36.2305 48.0001 36.0492 47.8145 36.0492 47.5895V44.2607C38.9115 45.4453 41.6388 46.6931 44.2157 48.0001Z" fill="white"/>
<path d="M11.4724 36.4421V47.5774C11.4724 47.8103 11.2872 47.9999 11.0596 47.9999H0.416546C0.188949 47.9999 0.00378418 47.8103 0.00378418 47.5774V34.0571C3.93853 34.7639 7.76911 35.5576 11.4763 36.4421H11.4724Z" fill="white"/>
<path d="M26.3628 40.6553V47.5892C26.3628 47.8143 26.1815 47.9998 25.9616 47.9998H15.2954C15.0755 47.9998 14.8942 47.8143 14.8942 47.5892V37.2871C18.8752 38.3138 22.7019 39.4352 26.3628 40.6553Z" fill="white"/>
<path d="M44.2157 48.0001H36.4504C36.2305 48.0001 36.0492 47.8145 36.0492 47.5895V44.2607C38.9115 45.4453 41.6388 46.6931 44.2157 48.0001Z" fill="white"/>
</g>
<defs>
<clipPath id="clip0_99_4763">
<rect width="48" height="48" fill="white"/>
</clipPath>
</defs>
</svg>
