<svg width="72" height="72" viewBox="0 0 72 72" fill="none" xmlns="http://www.w3.org/2000/svg">
<path fill-rule="evenodd" clip-rule="evenodd" d="M0 9C0 7.34315 1.34315 6 3 6H69C70.6569 6 72 7.34315 72 9V24C72 25.6569 70.6569 27 69 27H66V63C66 64.6569 64.6569 66 63 66H9C7.34315 66 6 64.6569 6 63V27H3C1.34315 27 0 25.6569 0 24V9ZM60 60V27H12V60H60ZM66 21H63H9H6V12H66V21ZM30 33C28.3431 33 27 34.3431 27 36C27 37.6569 28.3431 39 30 39H42C43.6569 39 45 37.6569 45 36C45 34.3431 43.6569 33 42 33H30Z" fill="#187CFF"/>
</svg>
