<svg width="85" height="85" viewBox="0 0 85 85" fill="none" xmlns="http://www.w3.org/2000/svg">
<path fill-rule="evenodd" clip-rule="evenodd" d="M42.5 75.9166C60.9555 75.9166 75.9166 60.9555 75.9166 42.5C75.9166 24.0444 60.9555 9.08329 42.5 9.08329C24.0444 9.08329 9.08329 24.0444 9.08329 42.5C9.08329 60.9555 24.0444 75.9166 42.5 75.9166ZM79.9166 42.5C79.9166 63.1646 63.1646 79.9166 42.5 79.9166C21.8353 79.9166 5.08329 63.1646 5.08329 42.5C5.0833 21.8353 21.8353 5.08329 42.5 5.08329C63.1646 5.08329 79.9166 21.8353 79.9166 42.5ZM43.9142 58.0808C43.1332 58.8619 41.8668 58.8619 41.0858 58.0808L26.9275 43.9226C26.8982 43.8936 26.8698 43.8638 26.8424 43.8331C26.7004 43.6746 26.5882 43.499 26.5056 43.3134C26.3949 43.0649 26.3333 42.7896 26.3333 42.5C26.3333 42.2137 26.3934 41.9414 26.5018 41.6952C26.5879 41.4992 26.7069 41.3142 26.8589 41.1486C26.8806 41.1249 26.9029 41.1018 26.9257 41.0792L41.0858 26.9191C41.8668 26.138 43.1332 26.138 43.9142 26.9191C44.6953 27.7001 44.6953 28.9665 43.9142 29.7475L33.1618 40.5L56.6666 40.5C57.7712 40.5 58.6666 41.3954 58.6666 42.5C58.6666 43.6045 57.7712 44.5 56.6666 44.5L33.1618 44.5L43.9142 55.2524C44.6953 56.0335 44.6953 57.2998 43.9142 58.0808Z" fill="#006EFF"/>
</svg>
