<svg width="85" height="85" viewBox="0 0 85 85" fill="none" xmlns="http://www.w3.org/2000/svg">
<path fill-rule="evenodd" clip-rule="evenodd" d="M42.5 9.08337C24.0445 9.08337 9.08337 24.0445 9.08337 42.5C9.08337 60.9556 24.0445 75.9167 42.5 75.9167C60.9556 75.9167 75.9167 60.9556 75.9167 42.5C75.9167 24.0445 60.9556 9.08337 42.5 9.08337ZM5.08337 42.5C5.08337 21.8354 21.8354 5.08337 42.5 5.08337C63.1647 5.08337 79.9167 21.8354 79.9167 42.5C79.9167 63.1647 63.1647 79.9167 42.5 79.9167C21.8354 79.9167 5.08337 63.1647 5.08337 42.5ZM41.0858 26.9192C41.8668 26.1381 43.1332 26.1381 43.9142 26.9192L58.0724 41.0773C58.1025 41.1071 58.1316 41.1377 58.1598 41.1693C58.3015 41.328 58.4134 41.5038 58.4957 41.6897C58.6056 41.9374 58.6667 42.2116 58.6667 42.5C58.6667 42.7856 58.6069 43.0572 58.499 43.3029C58.4131 43.4991 58.2942 43.6844 58.1422 43.8502C58.1201 43.8744 58.0974 43.898 58.0742 43.921L43.9142 58.0809C43.1332 58.862 41.8668 58.862 41.0858 58.0809C40.3047 57.2999 40.3047 56.0335 41.0858 55.2525L51.8382 44.5H28.3334C27.2288 44.5 26.3334 43.6046 26.3334 42.5C26.3334 41.3955 27.2288 40.5 28.3334 40.5H51.8382L41.0858 29.7476C40.3047 28.9665 40.3047 27.7002 41.0858 26.9192Z" fill="#1977F3"/>
</svg>
