<svg width="192" height="192" viewBox="0 0 192 192" fill="none" xmlns="http://www.w3.org/2000/svg">
<g filter="url(#filter0_d_75_549)">
<circle cx="96" cy="96" r="72" fill="url(#paint0_linear_75_549)"/>
<circle cx="96" cy="96" r="70.5" stroke="white" stroke-width="3"/>
</g>
<g clip-path="url(#clip0_75_549)">
<path fill-rule="evenodd" clip-rule="evenodd" d="M121.51 70.4634C114.741 63.7195 105.74 60.004 96.1503 60C76.3904 60 60.3083 76.004 60.3006 95.6753C60.2978 101.963 61.9487 108.101 65.0859 113.512L60 132L79.0044 127.039C84.2407 129.881 90.1359 131.379 96.1361 131.381H96.1508C115.908 131.381 131.992 115.375 132 95.7036C132.004 86.1704 128.278 77.2067 121.51 70.4631V70.4634ZM96.1508 125.356H96.1385C90.792 125.354 85.5478 123.924 80.9729 121.222L79.8849 120.58L68.6074 123.524L71.6175 112.581L70.9091 111.459C67.9264 106.738 66.3511 101.281 66.3534 95.6775C66.3599 79.3275 79.7266 66.0256 96.1625 66.0256C104.121 66.0283 111.602 69.117 117.228 74.7222C122.854 80.3272 125.95 87.7779 125.947 95.7014C125.94 112.052 112.574 125.356 96.1508 125.356V125.356ZM112.495 103.146C111.599 102.7 107.195 100.544 106.374 100.246C105.553 99.9486 104.956 99.8 104.359 100.692C103.762 101.585 102.045 103.593 101.522 104.188C101 104.783 100.477 104.857 99.5819 104.411C98.6861 103.965 95.7998 103.023 92.3785 99.9861C89.7155 97.6221 87.9179 94.7029 87.3954 93.8104C86.8729 92.918 87.3397 92.4355 87.7881 91.9911C88.191 91.5916 88.6838 90.9498 89.1316 90.4293C89.5795 89.9088 89.7288 89.5366 90.0273 88.9421C90.3259 88.3471 90.1766 87.8266 89.9527 87.3804C89.7288 86.9342 87.9373 82.5461 87.1909 80.761C86.4637 79.0229 85.7253 79.2584 85.1756 79.2308C84.6536 79.205 84.0559 79.1995 83.4588 79.1995C82.8616 79.1995 81.8913 79.4226 81.0702 80.315C80.2491 81.2077 77.9352 83.3645 77.9352 87.7521C77.9352 92.1396 81.1449 96.3791 81.5927 96.9739C82.0406 97.5692 87.9091 106.573 96.8947 110.435C99.0319 111.353 100.7 111.902 102.001 112.313C104.147 112.991 106.1 112.895 107.643 112.666C109.364 112.41 112.943 110.51 113.69 108.427C114.436 106.344 114.436 104.56 114.212 104.188C113.988 103.816 113.391 103.593 112.495 103.147L112.495 103.146Z" fill="white"/>
</g>
<defs>
<filter id="filter0_d_75_549" x="0" y="0" width="192" height="192" filterUnits="userSpaceOnUse" color-interpolation-filters="sRGB">
<feFlood flood-opacity="0" result="BackgroundImageFix"/>
<feColorMatrix in="SourceAlpha" type="matrix" values="0 0 0 0 0 0 0 0 0 0 0 0 0 0 0 0 0 0 127 0" result="hardAlpha"/>
<feOffset/>
<feGaussianBlur stdDeviation="12"/>
<feComposite in2="hardAlpha" operator="out"/>
<feColorMatrix type="matrix" values="0 0 0 0 0 0 0 0 0 0 0 0 0 0 0 0 0 0 0.3 0"/>
<feBlend mode="normal" in2="BackgroundImageFix" result="effect1_dropShadow_75_549"/>
<feBlend mode="normal" in="SourceGraphic" in2="effect1_dropShadow_75_549" result="shape"/>
</filter>
<linearGradient id="paint0_linear_75_549" x1="96" y1="24" x2="96" y2="168" gradientUnits="userSpaceOnUse">
<stop stop-color="#57D163"/>
<stop offset="1" stop-color="#23B33A"/>
</linearGradient>
<clipPath id="clip0_75_549">
<rect width="72" height="72" fill="white" transform="translate(60 60)"/>
</clipPath>
</defs>
</svg>
