<svg width="72" height="72" viewBox="0 0 72 72" fill="none" xmlns="http://www.w3.org/2000/svg">
<path fill-rule="evenodd" clip-rule="evenodd" d="M51 6C51 4.34315 49.6569 3 48 3C46.3431 3 45 4.34315 45 6V9H27V6C27 4.34315 25.6569 3 24 3C22.3431 3 21 4.34315 21 6V9H15C10.0294 9 6 13.0294 6 18V30V60C6 64.9706 10.0294 69 15 69H57C61.9706 69 66 64.9706 66 60V30V18C66 13.0294 61.9706 9 57 9H51V6ZM60 27V18C60 16.3431 58.6569 15 57 15H51V18C51 19.6569 49.6569 21 48 21C46.3431 21 45 19.6569 45 18V15H27V18C27 19.6569 25.6569 21 24 21C22.3431 21 21 19.6569 21 18V15H15C13.3431 15 12 16.3431 12 18V27H60ZM12 33H60V60C60 61.6569 58.6569 63 57 63H15C13.3431 63 12 61.6569 12 60V33Z" fill="url(#paint0_linear_91_2858)"/>
<defs>
<linearGradient id="paint0_linear_91_2858" x1="36" y1="21.5625" x2="-1.89618" y2="72.3454" gradientUnits="userSpaceOnUse">
<stop stop-color="#1977F3"/>
<stop offset="1" stop-color="#1257B3"/>
</linearGradient>
</defs>
</svg>
