<svg width="70" height="70" viewBox="0 0 70 70" fill="none" xmlns="http://www.w3.org/2000/svg">
<g clip-path="url(#clip0_91_2827)">
<path fill-rule="evenodd" clip-rule="evenodd" d="M20.5 2.91699C20.5 1.26014 19.1569 -0.0830078 17.5 -0.0830078C15.8431 -0.0830078 14.5 1.26014 14.5 2.91699V11.667C14.5 13.3238 15.8431 14.667 17.5 14.667C19.1569 14.667 20.5 13.3238 20.5 11.667V2.91699ZM2.83333 23.3335C2.83333 21.6766 4.17647 20.3335 5.83333 20.3335H52.5H55.4167C59.3065 20.3335 63.037 21.8787 65.7876 24.6293C68.5381 27.3798 70.0833 31.1103 70.0833 35.0002C70.0833 38.89 68.5381 42.6205 65.7876 45.3711C63.0566 48.102 59.3596 49.6448 55.4998 49.6666C55.4779 53.5264 53.9352 57.2235 51.2042 59.9544C48.4537 62.7049 44.7232 64.2502 40.8333 64.2502H17.5C13.6102 64.2502 9.87963 62.7049 7.1291 59.9544C4.37856 57.2039 2.83333 53.4733 2.83333 49.5835V23.3335ZM55.5 43.6664V26.3339C57.7684 26.3557 59.9393 27.2662 61.5449 28.8719C63.1702 30.4972 64.0833 32.7016 64.0833 35.0002C64.0833 37.2987 63.1702 39.5031 61.5449 41.1284C59.9393 42.7341 57.7684 43.6446 55.5 43.6664ZM49.5 26.3335L49.5 46.6668L49.5 49.5835C49.5 51.882 48.5869 54.0864 46.9616 55.7118C45.3363 57.3371 43.1319 58.2502 40.8333 58.2502H17.5C15.2015 58.2502 12.9971 57.3371 11.3717 55.7118C9.74642 54.0864 8.83333 51.882 8.83333 49.5835V26.3335H49.5ZM29.1667 -0.0830078C30.8235 -0.0830078 32.1667 1.26014 32.1667 2.91699V11.667C32.1667 13.3238 30.8235 14.667 29.1667 14.667C27.5098 14.667 26.1667 13.3238 26.1667 11.667V2.91699C26.1667 1.26014 27.5098 -0.0830078 29.1667 -0.0830078ZM43.8333 2.91699C43.8333 1.26014 42.4902 -0.0830078 40.8333 -0.0830078C39.1765 -0.0830078 37.8333 1.26014 37.8333 2.91699V11.667C37.8333 13.3238 39.1765 14.667 40.8333 14.667C42.4902 14.667 43.8333 13.3238 43.8333 11.667V2.91699Z" fill="url(#paint0_linear_91_2827)"/>
</g>
<defs>
<linearGradient id="paint0_linear_91_2827" x1="36.4583" y1="18.0107" x2="1.26632" y2="72.2377" gradientUnits="userSpaceOnUse">
<stop stop-color="#1977F3"/>
<stop offset="1" stop-color="#1257B3"/>
</linearGradient>
<clipPath id="clip0_91_2827">
<rect width="70" height="70" fill="white"/>
</clipPath>
</defs>
</svg>
