<svg width="72" height="72" viewBox="0 0 72 72" fill="none" xmlns="http://www.w3.org/2000/svg">
<g clip-path="url(#clip0_535_814)">
<path fill-rule="evenodd" clip-rule="evenodd" d="M39 3C39 1.34315 37.6569 0 36 0C34.3431 0 33 1.34315 33 3V12.0002H28.5C24.9196 12.0002 21.4858 13.4225 18.9541 15.9542C16.4223 18.486 15 21.9197 15 25.5002C15 29.0806 16.4223 32.5144 18.9541 35.0461C21.4858 37.5778 24.9196 39.0002 28.5 39.0002H33V54.0002H18C16.3431 54.0002 15 55.3433 15 57.0002C15 58.657 16.3431 60.0002 18 60.0002H33V68.4545C33 70.1114 34.3431 71.4545 36 71.4545C37.6569 71.4545 39 70.1114 39 68.4545V60.0002H43.5C47.0804 60.0002 50.5142 58.5778 53.0459 56.0461C55.5777 53.5144 57 50.0806 57 46.5002C57 42.9197 55.5777 39.486 53.0459 36.9542C50.5142 34.4225 47.0804 33.0002 43.5 33.0002H39V18.0002H51C52.6569 18.0002 54 16.657 54 15.0002C54 13.3433 52.6569 12.0002 51 12.0002H39V3ZM33 18.0002H28.5C26.5109 18.0002 24.6032 18.7903 23.1967 20.1969C21.7902 21.6034 21 23.511 21 25.5002C21 27.4893 21.7902 29.3969 23.1967 30.8035C24.6032 32.21 26.5109 33.0002 28.5 33.0002H33V18.0002ZM39 39.0002V54.0002H43.5C45.4891 54.0002 47.3968 53.21 48.8033 51.8035C50.2098 50.3969 51 48.4893 51 46.5002C51 44.511 50.2098 42.6034 48.8033 41.1969C47.3968 39.7903 45.4891 39.0002 43.5 39.0002H39Z" fill="#006EFF"/>
</g>
<defs>
<clipPath id="clip0_535_814">
<rect width="72" height="72" fill="white"/>
</clipPath>
</defs>
</svg>
