<svg width="72" height="72" viewBox="0 0 72 72" fill="none" xmlns="http://www.w3.org/2000/svg">
<g clip-path="url(#clip0_535_874)">
<path fill-rule="evenodd" clip-rule="evenodd" d="M7.72324 38.1224C7.18477 37.2887 6.7501 36.5666 6.42222 36C6.7501 35.4334 7.18477 34.7113 7.72324 33.8776C9.1063 31.7361 11.1545 28.8882 13.8136 26.0518C19.1866 20.3207 26.6985 15 36 15C45.3015 15 52.8134 20.3207 58.1864 26.0518C60.8455 28.8882 62.8937 31.7361 64.2768 33.8776C64.8152 34.7113 65.2499 35.4334 65.5778 36C65.2499 36.5666 64.8152 37.2887 64.2768 38.1224C62.8937 40.2639 60.8455 43.1118 58.1864 45.9482C52.8134 51.6793 45.3015 57 36 57C26.6985 57 19.1866 51.6793 13.8136 45.9482C11.1545 43.1118 9.1063 40.2639 7.72324 38.1224ZM71.6822 34.6562C71.6828 34.6573 71.6833 34.6584 69 36C71.6833 37.3416 71.6828 37.3427 71.6822 37.3438L71.6809 37.3464L71.6774 37.3534L71.667 37.3739L71.633 37.4405C71.6044 37.4962 71.5639 37.5741 71.5117 37.6727C71.4074 37.8699 71.2559 38.1503 71.0581 38.502C70.6626 39.2051 70.0805 40.1954 69.317 41.3776C67.7938 43.7361 65.5295 46.8882 62.5636 50.0518C56.6866 56.3207 47.6985 63 36 63C24.3015 63 15.3134 56.3207 9.43639 50.0518C6.4705 46.8882 4.2062 43.7361 2.68301 41.3776C1.91955 40.1954 1.33738 39.2051 0.941914 38.502C0.74407 38.1503 0.59262 37.8699 0.48826 37.6727C0.43607 37.5741 0.395625 37.4962 0.367014 37.4405L0.33297 37.3739L0.322617 37.3534L0.31911 37.3464L0.317775 37.3438C0.317224 37.3427 0.316718 37.3416 3 36C0.316718 34.6584 0.317224 34.6573 0.317775 34.6562L0.31911 34.6536L0.322617 34.6466L0.33297 34.6261L0.367014 34.5595C0.395625 34.5038 0.43607 34.4259 0.48826 34.3273C0.59262 34.1301 0.74407 33.8497 0.941914 33.498C1.33738 32.7949 1.91955 31.8046 2.68301 30.6224C4.2062 28.2639 6.4705 25.1118 9.43639 21.9482C15.3134 15.6793 24.3015 9 36 9C47.6985 9 56.6866 15.6793 62.5636 21.9482C65.5295 25.1118 67.7938 28.2639 69.317 30.6224C70.0805 31.8046 70.6626 32.7949 71.0581 33.498C71.2559 33.8497 71.4074 34.1301 71.5117 34.3273C71.5639 34.4259 71.6044 34.5038 71.633 34.5595L71.667 34.6261L71.6774 34.6466L71.6809 34.6536L71.6822 34.6562ZM69 36L71.6833 34.6584C72.1056 35.5029 72.1056 36.4971 71.6833 37.3416L69 36ZM0.316718 34.6584L3 36L0.316718 37.3416C-0.105573 36.4971 -0.105573 35.5029 0.316718 34.6584ZM30 36C30 39.3137 32.6863 42 36 42C39.3137 42 42 39.3137 42 36C42 32.6863 39.3137 30 36 30C32.6863 30 30 32.6863 30 36ZM36 48C29.3726 48 24 42.6274 24 36C24 29.3726 29.3726 24 36 24C42.6274 24 48 29.3726 48 36C48 42.6274 42.6274 48 36 48Z" fill="#187CFF"/>
</g>
<defs>
<clipPath id="clip0_535_874">
<rect width="72" height="72" fill="white"/>
</clipPath>
</defs>
</svg>
