<svg width="40" height="30" viewBox="0 0 40 30" fill="none" xmlns="http://www.w3.org/2000/svg">
<mask id="mask0_91_2706" style="mask-type:luminance" maskUnits="userSpaceOnUse" x="0" y="0" width="40" height="30">
<path d="M0 0H40V30H0V0Z" fill="white"/>
</mask>
<g mask="url(#mask0_91_2706)">
<path fill-rule="evenodd" clip-rule="evenodd" d="M0 0H40V30H0V0Z" fill="#F7FCFF"/>
<path fill-rule="evenodd" clip-rule="evenodd" d="M0 18.3334V20.8334H40V18.3334H0Z" fill="#E31D1C"/>
<path fill-rule="evenodd" clip-rule="evenodd" d="M0 22.9166V25.4166H40V22.9166H0Z" fill="#E31D1C"/>
<path fill-rule="evenodd" clip-rule="evenodd" d="M0 9.16656V11.6666H40V9.16656H0Z" fill="#E31D1C"/>
<path fill-rule="evenodd" clip-rule="evenodd" d="M0 27.5V30H40V27.5H0Z" fill="#E31D1C"/>
<path fill-rule="evenodd" clip-rule="evenodd" d="M0 13.75V16.25H40V13.75H0Z" fill="#E31D1C"/>
<path fill-rule="evenodd" clip-rule="evenodd" d="M0 0V2.5H40V0H0Z" fill="#E31D1C"/>
<path fill-rule="evenodd" clip-rule="evenodd" d="M0 4.58344V7.08344H40V4.58344H0Z" fill="#E31D1C"/>
<path d="M0 0H25V16.25H0V0Z" fill="#2E42A5"/>
<path fill-rule="evenodd" clip-rule="evenodd" d="M2.15252 3.67339L1.24517 4.30949L1.5515 3.17748L0.745605 2.46009H1.79821L2.15125 1.53625L2.56521 2.46009H3.46254L2.75749 3.17748L3.03044 4.30949L2.15252 3.67339ZM7.15252 3.67339L6.24517 4.30949L6.5515 3.17748L5.74561 2.46009H6.79821L7.15125 1.53625L7.56521 2.46009H8.46254L7.75749 3.17748L8.03044 4.30949L7.15252 3.67339ZM11.2452 4.30949L12.1525 3.67339L13.0304 4.30949L12.7574 3.17748L13.4626 2.46009H12.5652L12.1513 1.53625L11.7982 2.46009H10.7456L11.5515 3.17748L11.2452 4.30949ZM17.1526 3.67339L16.2452 4.30949L16.5516 3.17748L15.7456 2.46009H16.7982L17.1513 1.53625L17.5652 2.46009H18.4626L17.7574 3.17748L18.0304 4.30949L17.1526 3.67339ZM1.24517 9.30949L2.15252 8.67339L3.03044 9.30949L2.75749 8.17748L3.46254 7.46009H2.56521L2.15125 6.53625L1.79821 7.46009H0.745605L1.5515 8.17748L1.24517 9.30949ZM7.15252 8.67339L6.24517 9.30949L6.5515 8.17748L5.74561 7.46009H6.79821L7.15125 6.53625L7.56521 7.46009H8.46254L7.75749 8.17748L8.03044 9.30949L7.15252 8.67339ZM11.2452 9.30949L12.1525 8.67339L13.0304 9.30949L12.7574 8.17748L13.4626 7.46009H12.5652L12.1513 6.53625L11.7982 7.46009H10.7456L11.5515 8.17748L11.2452 9.30949ZM17.1526 8.67339L16.2452 9.30949L16.5516 8.17748L15.7456 7.46009H16.7982L17.1513 6.53625L17.5652 7.46009H18.4626L17.7574 8.17748L18.0304 9.30949L17.1526 8.67339ZM1.24517 14.3095L2.15252 13.6734L3.03044 14.3095L2.75749 13.1775L3.46254 12.4601H2.56521L2.15125 11.5363L1.79821 12.4601H0.745605L1.5515 13.1775L1.24517 14.3095ZM7.15252 13.6734L6.24517 14.3095L6.5515 13.1775L5.74561 12.4601H6.79821L7.15125 11.5363L7.56521 12.4601H8.46254L7.75749 13.1775L8.03044 14.3095L7.15252 13.6734ZM11.2452 14.3095L12.1525 13.6734L13.0304 14.3095L12.7574 13.1775L13.4626 12.4601H12.5652L12.1513 11.5363L11.7982 12.4601H10.7456L11.5515 13.1775L11.2452 14.3095ZM17.1526 13.6734L16.2452 14.3095L16.5516 13.1775L15.7456 12.4601H16.7982L17.1513 11.5363L17.5652 12.4601H18.4626L17.7574 13.1775L18.0304 14.3095L17.1526 13.6734ZM21.2452 4.30949L22.1526 3.67339L23.0304 4.30949L22.7574 3.17748L23.4626 2.46009H22.5652L22.1513 1.53625L21.7982 2.46009H20.7456L21.5516 3.17748L21.2452 4.30949ZM22.1526 8.67339L21.2452 9.30949L21.5516 8.17748L20.7456 7.46009H21.7982L22.1513 6.53625L22.5652 7.46009H23.4626L22.7574 8.17748L23.0304 9.30949L22.1526 8.67339ZM21.2452 14.3095L22.1526 13.6734L23.0304 14.3095L22.7574 13.1775L23.4626 12.4601H22.5652L22.1513 11.5363L21.7982 12.4601H20.7456L21.5516 13.1775L21.2452 14.3095ZM4.65252 6.17339L3.74517 6.80949L4.0515 5.67748L3.24561 4.96009H4.29821L4.65125 4.03625L5.06521 4.96009H5.96254L5.25749 5.67748L5.53044 6.80949L4.65252 6.17339ZM8.74518 6.80949L9.65253 6.17339L10.5304 6.80949L10.2575 5.67748L10.9625 4.96009H10.0652L9.65125 4.03625L9.29821 4.96009H8.24561L9.0515 5.67748L8.74518 6.80949ZM14.6526 6.17339L13.7452 6.80949L14.0516 5.67748L13.2456 4.96009H14.2982L14.6513 4.03625L15.0652 4.96009H15.9626L15.2574 5.67748L15.5304 6.80949L14.6526 6.17339ZM3.74517 11.8095L4.65252 11.1734L5.53044 11.8095L5.25749 10.6775L5.96254 9.96009H5.06521L4.65125 9.03625L4.29821 9.96009H3.24561L4.0515 10.6775L3.74517 11.8095ZM9.65253 11.1734L8.74518 11.8095L9.0515 10.6775L8.24561 9.96009H9.29821L9.65125 9.03625L10.0652 9.96009H10.9625L10.2575 10.6775L10.5304 11.8095L9.65253 11.1734ZM13.7452 11.8095L14.6526 11.1734L15.5304 11.8095L15.2574 10.6775L15.9626 9.96009H15.0652L14.6513 9.03625L14.2982 9.96009H13.2456L14.0516 10.6775L13.7452 11.8095ZM19.6526 6.17339L18.7452 6.80949L19.0516 5.67748L18.2456 4.96009H19.2982L19.6513 4.03625L20.0652 4.96009H20.9626L20.2574 5.67748L20.5304 6.80949L19.6526 6.17339ZM18.7452 11.8095L19.6526 11.1734L20.5304 11.8095L20.2574 10.6775L20.9626 9.96009H20.0652L19.6513 9.03625L19.2982 9.96009H18.2456L19.0516 10.6775L18.7452 11.8095Z" fill="#F7FCFF"/>
</g>
</svg>
