<svg width="56" height="56" viewBox="0 0 56 56" fill="none" xmlns="http://www.w3.org/2000/svg">
<g clip-path="url(#clip0_75_316)">
<path d="M12.885 0H0.499558C0.22366 0 0 0.22894 0 0.511352V11.1438C0 11.4262 0.22366 11.6551 0.499558 11.6551H12.885C13.1609 11.6551 13.3846 11.4262 13.3846 11.1438V0.511352C13.3846 0.22894 13.1609 0 12.885 0Z" fill="#1A7CFF"/>
<path d="M55.4464 0H17.9345C17.6263 0 17.3765 0.255753 17.3765 0.571241V11.0839C17.3765 11.3994 17.6263 11.6551 17.9345 11.6551H55.4464C55.7546 11.6551 56.0044 11.3994 56.0044 11.0839V0.571241C56.0044 0.255753 55.7546 0 55.4464 0Z" fill="#1A7CFF"/>
<path d="M13.3845 16.8425V34.7952C9.04149 34.1548 4.56797 33.8047 -6.10352e-05 33.7771V16.8425C-6.10352e-05 16.5707 0.215964 16.3496 0.481495 16.3496H12.8984C13.164 16.3496 13.38 16.5707 13.38 16.8425H13.3845Z" fill="#1A7CFF"/>
<path opacity="0.5" d="M-6.10352e-05 39.7334C4.59047 40.558 9.05949 41.484 13.3845 42.5159V55.507C13.3845 55.7788 13.1685 55.9999 12.9029 55.9999H0.485995C0.220465 55.9999 0.00443949 55.7788 0.00443949 55.507V39.7334H-6.10352e-05Z" fill="#1A7CFF"/>
<path opacity="0.5" d="M17.3765 43.502C22.021 44.6997 26.4855 46.008 30.7565 47.4315V55.521C30.7565 55.7836 30.545 56.0001 30.2885 56.0001H17.8445C17.588 56.0001 17.3765 55.7836 17.3765 55.521V43.502Z" fill="#1A7CFF"/>
<path opacity="0.5" d="M42.0574 51.6377C45.3968 53.0197 48.5786 54.4755 51.585 56.0003H42.5254C42.2689 56.0003 42.0574 55.7838 42.0574 55.5212V51.6377Z" fill="#1A7CFF"/>
<path d="M55.9144 30.7319V53.6645C51.8055 50.062 47.1519 46.8511 42.0573 44.1192V30.7319H42.0303C42.0303 30.7319 40.9727 26.7978 37.3318 26.7978C33.6909 26.7978 30.7565 29.5019 30.7565 36.1725V39.1163C26.49 37.5868 22.0165 36.3568 17.3765 35.4677V16.9162C17.3765 16.5983 17.6285 16.345 17.9345 16.345H26.076C26.274 16.345 26.4585 16.4509 26.5575 16.6306L28.7898 20.551C28.7898 20.551 29.4019 19.6204 30.752 18.5516C32.6062 17.0728 35.8601 15.3223 40.8512 15.3223C42.8494 15.3223 44.7306 15.6816 46.4408 16.345C52.1115 18.5424 55.9099 24.0613 55.9099 30.7319H55.9144Z" fill="#1A7CFF"/>
<path opacity="0.15" d="M-6.10352e-05 39.7334C4.59047 40.558 9.05949 41.484 13.3845 42.5159V55.507C13.3845 55.7788 13.1685 55.9999 12.9029 55.9999H0.485995C0.220465 55.9999 0.00443949 55.7788 0.00443949 55.507V39.7334H-6.10352e-05Z" fill="#1A7CFF"/>
<path opacity="0.15" d="M17.3765 43.502C22.021 44.6997 26.4855 46.008 30.7565 47.4315V55.521C30.7565 55.7836 30.545 56.0001 30.2885 56.0001H17.8445C17.588 56.0001 17.3765 55.7836 17.3765 55.521V43.502Z" fill="#1A7CFF"/>
<path opacity="0.15" d="M51.585 56.0003H42.5254C42.2689 56.0003 42.0574 55.7838 42.0574 55.5212V51.6377C45.3968 53.0197 48.5786 54.4755 51.585 56.0003Z" fill="#1A7CFF"/>
<path d="M13.3845 42.5159V55.507C13.3845 55.7788 13.1685 55.9999 12.903 55.9999H0.486011C0.220481 55.9999 0.00445557 55.7788 0.00445557 55.507V39.7334C4.59499 40.558 9.06401 41.484 13.389 42.5159H13.3845Z" fill="#1A7CFF"/>
<path d="M30.7565 47.4315V55.521C30.7565 55.7836 30.545 56.0001 30.2885 56.0001H17.8445C17.588 56.0001 17.3765 55.7836 17.3765 55.521V43.502C22.021 44.6997 26.4855 46.008 30.7565 47.4315Z" fill="#1A7CFF"/>
<path d="M51.585 56.0003H42.5254C42.2689 56.0003 42.0574 55.7838 42.0574 55.5212V51.6377C45.3968 53.0197 48.5786 54.4755 51.585 56.0003Z" fill="#1A7CFF"/>
</g>
<defs>
<clipPath id="clip0_75_316">
<rect width="56" height="56" fill="white"/>
</clipPath>
</defs>
</svg>
