<svg width="24" height="24" viewBox="0 0 24 24" fill="none" xmlns="http://www.w3.org/2000/svg">
<path d="M12 2.1622C15.2046 2.1622 15.5833 2.17441 16.8497 2.23142C18.0183 2.28436 18.6535 2.47981 19.077 2.64269C19.639 2.8585 20.038 3.1191 20.4574 3.53851C20.8768 3.95792 21.1374 4.35697 21.3532 4.9189C21.5161 5.34238 21.7116 5.9776 21.7645 7.14625C21.8215 8.41262 21.8337 8.79131 21.8337 11.9959C21.8337 15.2005 21.8215 15.5792 21.7645 16.8456C21.7116 18.0143 21.5161 18.6495 21.3532 19.073C21.1374 19.6349 20.8768 20.0339 20.4574 20.4533C20.038 20.8728 19.639 21.1334 19.077 21.3492C18.6535 21.512 18.0183 21.7075 16.8497 21.7604C15.5833 21.8174 15.2046 21.8297 12 21.8297C8.79539 21.8297 8.4167 21.8174 7.15032 21.7604C5.98168 21.7075 5.34645 21.512 4.92297 21.3492C4.36105 21.1334 3.962 20.8728 3.54259 20.4533C3.12318 20.0339 2.86257 19.6349 2.64676 19.073C2.48388 18.6495 2.28843 18.0143 2.23549 16.8456C2.17849 15.5792 2.16627 15.2005 2.16627 11.9959C2.16627 8.79131 2.17849 8.41262 2.23549 7.14625C2.28843 5.9776 2.48388 5.34238 2.64676 4.9189C2.86257 4.35697 3.12318 3.95792 3.54259 3.53851C3.962 3.1191 4.36105 2.8585 4.92297 2.64269C5.34645 2.47981 5.98168 2.28436 7.15032 2.23142C8.4167 2.17441 8.79539 2.1622 12 2.1622ZM12 0C8.74245 0 8.33118 0.0122158 7.0526 0.0732949C5.77401 0.130302 4.90261 0.333899 4.14116 0.63115C3.3512 0.936546 2.68341 1.34781 2.01561 2.01561C1.34781 2.68341 0.936546 3.3512 0.63115 4.14116C0.333899 4.90261 0.130302 5.77808 0.0732949 7.0526C0.0162878 8.33118 0 8.74245 0 12C0 15.2576 0.0122158 15.6688 0.0732949 16.9474C0.130302 18.226 0.333899 19.0974 0.63115 19.8588C0.936546 20.6488 1.34781 21.3166 2.01561 21.9844C2.68341 22.6522 3.3512 23.0635 4.14116 23.3689C4.90261 23.6661 5.77808 23.8697 7.0526 23.9267C8.33118 23.9837 8.74245 24 12 24C15.2576 24 15.6688 23.9878 16.9474 23.9267C18.226 23.8697 19.0974 23.6661 19.8588 23.3689C20.6488 23.0635 21.3166 22.6522 21.9844 21.9844C22.6522 21.3166 23.0635 20.6488 23.3689 19.8588C23.6661 19.0974 23.8697 18.2219 23.9267 16.9474C23.9837 15.6688 24 15.2576 24 12C24 8.74245 23.9878 8.33118 23.9267 7.0526C23.8697 5.77401 23.6661 4.90261 23.3689 4.14116C23.0635 3.3512 22.6522 2.68341 21.9844 2.01561C21.3166 1.34781 20.6488 0.936546 19.8588 0.63115C19.0974 0.333899 18.2219 0.130302 16.9474 0.0732949C15.6688 0.0162878 15.2576 0 12 0V0Z" fill="url(#paint0_linear_75_348)"/>
<path d="M12 5.83911C8.59587 5.83911 5.83917 8.59581 5.83917 12C5.83917 15.4041 8.59587 18.1608 12 18.1608C15.4042 18.1608 18.1609 15.4041 18.1609 12C18.1609 8.59581 15.4042 5.83911 12 5.83911ZM12 15.9986C9.79302 15.9986 8.00137 14.2069 8.00137 12C8.00137 9.79296 9.79302 8.00131 12 8.00131C14.207 8.00131 15.9987 9.79296 15.9987 12C15.9987 14.2069 14.207 15.9986 12 15.9986Z" fill="url(#paint1_linear_75_348)"/>
<path d="M18.4052 7.0365C19.2012 7.0365 19.8466 6.39113 19.8466 5.59503C19.8466 4.79893 19.2012 4.15356 18.4052 4.15356C17.6091 4.15356 16.9637 4.79893 16.9637 5.59503C16.9637 6.39113 17.6091 7.0365 18.4052 7.0365Z" fill="url(#paint2_linear_75_348)"/>
<defs>
<linearGradient id="paint0_linear_75_348" x1="12" y1="6.75" x2="-1.35683" y2="26.4387" gradientUnits="userSpaceOnUse">
<stop stop-color="#1977F3"/>
<stop offset="1" stop-color="#1257B3"/>
</linearGradient>
<linearGradient id="paint1_linear_75_348" x1="12" y1="9.30458" x2="5.14257" y2="19.4128" gradientUnits="userSpaceOnUse">
<stop stop-color="#1977F3"/>
<stop offset="1" stop-color="#1257B3"/>
</linearGradient>
<linearGradient id="paint2_linear_75_348" x1="18.4052" y1="4.96439" x2="16.8007" y2="7.32944" gradientUnits="userSpaceOnUse">
<stop stop-color="#1977F3"/>
<stop offset="1" stop-color="#1257B3"/>
</linearGradient>
</defs>
</svg>
