<svg width="22" height="22" viewBox="0 0 22 22" fill="none" xmlns="http://www.w3.org/2000/svg">
<path d="M19.25 11.7242C19.1058 13.2845 18.5202 14.7715 17.5617 16.0112C16.6032 17.2509 15.3115 18.192 13.8377 18.7243C12.3639 19.2567 10.769 19.3583 9.23954 19.0173C7.7101 18.6762 6.30941 17.9067 5.20137 16.7986C4.09334 15.6906 3.32378 14.2899 2.98275 12.7605C2.64172 11.231 2.74332 9.63608 3.27567 8.16227C3.80802 6.68847 4.7491 5.39675 5.98878 4.43827C7.22846 3.47979 8.71548 2.8942 10.2758 2.75C9.3623 3.98591 8.9227 5.50866 9.03699 7.0413C9.15128 8.57393 9.81187 10.0146 10.8986 11.1014C11.9854 12.1881 13.4261 12.8487 14.9587 12.963C16.4913 13.0773 18.0141 12.6377 19.25 11.7242Z" stroke="#1977F3" stroke-width="2" stroke-linecap="round" stroke-linejoin="round"/>
</svg>
