<svg width="36" height="33" viewBox="0 0 36 33" fill="none" xmlns="http://www.w3.org/2000/svg">
<path d="M17.0554 0.71739C17.3667 -0.17817 18.6333 -0.178173 18.9446 0.717387L22.4738 10.8706C22.6111 11.2656 22.9798 11.5335 23.398 11.542L34.1449 11.761C35.0928 11.7804 35.4842 12.9849 34.7286 13.5577L26.163 20.0517C25.8297 20.3044 25.6888 20.7378 25.81 21.1382L28.9226 31.4267C29.1972 32.3342 28.1725 33.0787 27.3943 32.5371L18.5712 26.3975C18.2279 26.1586 17.7721 26.1586 17.4288 26.3975L8.60571 32.5371C7.82746 33.0787 6.80281 32.3342 7.07737 31.4267L10.19 21.1382C10.3112 20.7378 10.1703 20.3044 9.83704 20.0517L1.27138 13.5577C0.515843 12.9849 0.907221 11.7804 1.85515 11.761L12.602 11.542C13.0202 11.5335 13.3889 11.2656 13.5262 10.8706L17.0554 0.71739Z" fill="#F7B704"/>
</svg>
