<svg width="440.000000pt" height="143.000000pt" viewBox="0 0 440.000000 143.000000" xmlns="http://www.w3.org/2000/svg">
  <g transform="translate(0.000000,143.000000) scale(0.100000,-0.100000)" fill="#fefefe" stroke="none">
    <path d="M0 715 l0 -715 80 0 80 0 0 10 c0 6 -8 10 -17 10 -29 0 -82 37 -103
72 l-20 33 0 595 0 595 20 33 c11 18 34 41 50 50 16 9 30 20 30 25 0 4 -27 7
-60 7 l-60 0 0 -715z" />
    <path d="M1890 1423 c1 -5 15 -17 32 -28 17 -11 41 -33 52 -48 l21 -28 0 -597
0 -597 -20 -33 -20 -33 -47 -22 c-26 -12 -47 -25 -48 -29 0 -5 572 -8 1270 -8
l1270 0 0 715 0 715 -1255 0 c-690 0 -1255 -3 -1255 -7z m859 -247 c59 -16
124 -55 159 -95 13 -14 35 -51 50 -81 l26 -55 0 -65 c0 -111 -41 -196 -121
-254 -26 -19 -70 -42 -98 -52 l-50 -17 -137 -5 -136 -4 -4 -120 -3 -120 -28
-24 -28 -24 -33 0 -33 0 -27 25 -26 24 0 411 0 412 29 29 29 29 189 0 188 0
54 -14z m1413 -30 c26 -19 48 -79 48 -131 l0 -45 53 0 c61 0 93 -15 115 -52
l16 -27 -12 -26 -12 -26 -35 -15 c-19 -7 -55 -14 -80 -14 l-45 0 0 -178 0
-178 16 -22 15 -22 34 0 c51 0 82 -16 100 -50 l15 -30 -15 -24 c-9 -13 -34
-31 -56 -40 l-39 -16 -59 0 -58 0 -44 23 -44 23 -22 44 -23 44 0 218 0 218
-25 0 -26 0 -24 25 c-14 13 -25 33 -25 43 0 29 37 70 70 77 l30 7 0 59 c0 88
27 128 85 128 17 0 38 -6 47 -13z m-550 -205 l67 -32 30 -35 c17 -19 43 -58
57 -87 l27 -52 5 -61 5 -62 -26 -26 -26 -26 -232 0 -232 0 6 -37 c8 -45 32
-80 77 -110 l33 -23 77 0 77 0 56 30 c31 17 65 30 75 30 10 0 28 -9 40 -20
l22 -21 0 -29 0 -28 -37 -30 c-21 -16 -47 -32 -58 -35 -11 -3 -38 -13 -60 -21
l-40 -15 -77 -1 -77 0 -57 21 c-31 12 -79 40 -107 63 l-52 42 -35 68 -35 69
-3 81 -4 81 21 56 c27 72 75 143 117 175 18 15 60 37 91 50 l58 25 75 -4 75
-5 67 -31z" />
    <path d="M2440 871 l0 -161 106 0 c59 0 124 5 145 11 21 7 52 27 70 45 l32 33
5 54 4 54 -20 40 -21 40 -38 18 -38 18 -122 5 -123 5 0 -162z" />
    <path d="M3390 829 c-13 -5 -33 -18 -43 -27 -27 -24 -57 -86 -57 -117 l0 -25
165 0 165 0 0 23 c0 34 -41 108 -72 131 l-27 19 -53 4 c-29 1 -64 -2 -78 -8z" />
    <path d="M409 1181 l-29 -29 0 -430 0 -430 26 -31 26 -31 53 0 54 0 28 24 28
24 3 423 3 423 -12 29 c-15 35 -56 57 -109 57 l-42 0 -29 -29z" />
    <path d="M874 1196 l-31 -14 -12 -32 -11 -33 1 -391 c1 -215 4 -402 8 -415 3
-13 19 -34 34 -45 l28 -21 177 -3 177 -3 74 15 c86 18 167 54 223 98 23 18 61
59 84 91 l44 59 21 66 21 67 0 95 0 95 -21 59 c-12 33 -32 78 -46 102 -58 99
-172 179 -296 209 l-64 15 -190 -1 -190 0 -31 -13z m448 -213 c53 -24 99 -69
130 -128 l21 -40 5 -66 4 -66 -16 -50 c-20 -60 -75 -127 -125 -152 -48 -25
-137 -41 -228 -41 l-73 0 0 286 0 286 118 -4 117 -4 47 -21z" />
  </g>
  <g transform="translate(0.000000,143.000000) scale(0.100000,-0.100000)" fill="#323232" stroke="none">
    <path d="M92 1412 c-10 -10 -26 -21 -36 -25 -9 -4 -23 -22 -31 -41 l-14 -34
-1 -596 0 -596 14 -28 c22 -42 86 -89 106 -77 5 3 11 1 15 -5 l6 -10 856 0
856 0 51 25 52 25 17 29 c22 37 21 48 0 54 l-18 5 23 1 23 1 -3 594 -3 595
-21 27 c-11 15 -33 37 -48 48 l-27 21 -900 3 -899 2 -18 -18z m1273 -232 c73
-22 157 -74 217 -132 32 -32 58 -63 58 -68 0 -6 6 -10 13 -10 l12 0 2 -35 c1
-19 9 -50 18 -68 l16 -32 1 -101 0 -101 -23 -64 c-32 -90 -110 -189 -189 -240
-14 -9 -59 -29 -100 -44 l-75 -28 -188 -5 -188 -4 -44 17 -44 16 -11 37 -10
37 0 378 0 378 14 34 15 34 44 13 44 13 189 -6 189 -6 40 -13z m-832 9 c12 -7
30 -20 39 -29 l17 -18 1 -404 c0 -222 -2 -417 -6 -434 l-6 -31 -28 -16 c-15
-10 -45 -17 -66 -17 l-38 0 -28 27 -28 27 0 422 0 422 26 31 26 31 35 0 c19 0
44 -5 56 -11z" />
    <path d="M1036 1005 c-3 -9 -6 -143 -6 -297 l0 -281 118 5 117 6 55 21 c56 23
120 75 120 98 0 7 5 13 10 13 6 0 10 6 10 13 0 8 7 29 16 46 l16 33 -5 81 -4
82 -19 35 c-26 50 -93 120 -123 127 -14 3 -32 11 -40 17 l-14 11 -122 3 -122
4 -7 -17z" />
    <path d="M2279 1169 l-29 -31 0 -413 c0 -227 3 -420 6 -429 3 -9 11 -16 16
-16 6 0 16 -7 22 -16 l12 -16 36 -1 36 -1 26 18 c15 9 31 28 36 42 6 14 10 72
10 130 l0 104 118 0 c133 0 173 8 267 51 41 19 107 86 128 131 10 20 22 63 28
94 l11 58 -7 45 c-8 53 -45 136 -77 172 -33 38 -105 80 -163 95 l-50 14 -198
0 -199 0 -29 -31z m438 -176 l38 -20 18 -34 17 -34 -3 -46 -4 -46 -19 -26
c-10 -15 -35 -34 -54 -44 l-35 -18 -112 -3 -113 -4 0 153 0 152 114 -5 115 -5
38 -20z" />
    <path d="M4047 1139 l-27 -31 0 -63 0 -63 -29 -7 c-38 -8 -63 -37 -67 -78 l-4
-34 26 -27 27 -26 23 0 24 0 0 -208 0 -208 16 -48 16 -47 41 -27 40 -27 74 -4
74 -3 44 16 c24 10 51 28 60 42 l16 25 -8 12 c-4 6 -8 20 -8 30 -3 31 -30 48
-89 56 -31 4 -59 11 -63 15 -5 4 -9 88 -11 187 l-3 179 45 0 c24 0 56 4 69 9
36 14 67 51 67 80 0 14 -11 39 -24 55 l-23 30 -67 4 -66 4 0 44 c0 51 -14 91
-42 122 l-21 22 -42 0 -41 0 -27 -31z" />
    <path d="M3346 975 c-55 -21 -137 -78 -162 -112 -28 -37 -66 -113 -58 -113 4
0 0 -7 -7 -17 l-14 -16 0 -106 0 -106 36 -70 35 -70 51 -41 c28 -23 77 -52
110 -64 l58 -22 100 4 100 4 64 32 c35 18 73 39 83 48 l18 17 0 33 0 34 -22
25 -22 25 -33 0 c-18 0 -33 -4 -33 -10 0 -5 -6 -10 -13 -10 -7 0 -30 -9 -52
-20 l-39 -20 -67 0 -66 0 -33 23 c-40 27 -67 62 -76 100 l-6 27 231 0 232 0
26 28 25 27 -4 70 -5 70 -26 52 c-15 29 -41 68 -58 87 l-30 35 -67 32 -67 32
-85 3 -85 4 -39 -15z m193 -172 c30 -23 56 -65 66 -105 l7 -28 -156 0 -156 0
0 15 c0 9 9 32 19 53 34 68 80 94 150 88 l43 -4 27 -19z" />
  </g>
  <g transform="translate(0.000000,143.000000) scale(0.100000,-0.100000)" fill="#373737" stroke="none">
    <path d="M139 1416 c8 -9 10 -16 5 -15 -18 3 -34 -1 -34 -9 0 -4 11 -8 25 -8
l26 0 -3 20 c-2 11 -10 22 -18 24 l-15 5 14 -17z" />
    <path d="M1861 1421 l-15 -9 12 -15 c7 -7 9 -17 5 -20 -3 -4 -1 -7 5 -7 15 0
15 13 0 28 l-12 12 12 0 c6 0 16 -15 22 -32 l10 -33 -3 32 c-2 18 0 30 5 27 4
-3 8 -17 9 -32 0 -15 3 -21 6 -14 2 6 10 9 16 6 l12 -7 -12 14 c-20 20 -15 31
6 17 11 -7 17 -16 15 -20 -3 -4 3 -8 13 -8 l18 1 -28 24 c-16 14 -32 23 -37
20 -4 -3 -10 2 -14 10 -6 17 -24 19 -45 6z" />
    <path d="M69 1403 c0 -5 -2 -18 -3 -30 -4 -33 10 -28 23 7 l10 30 -15 0 c-7 0
-14 -3 -15 -7z" />
    <path d="M30 1351 c0 -5 5 -13 10 -16 6 -3 10 -2 10 4 0 5 -4 13 -10 16 -5 3
-10 2 -10 -4z" />
    <path d="M1970 1340 c0 -5 5 -10 10 -10 6 0 10 5 10 10 0 6 -4 10 -10 10 -5 0
-10 -4 -10 -10z" />
    <path d="M1933 1333 c4 -3 10 -3 14 0 3 4 0 7 -7 7 -7 0 -10 -3 -7 -7z" />
    <path d="M10 1300 c0 -31 14 -41 23 -16 3 8 1 17 -6 20 -7 2 -3 5 8 5 l20 1
-15 10 c-24 16 -30 12 -30 -20z" />
    <path d="M60 1315 c0 -8 4 -15 8 -15 5 0 9 7 9 15 0 8 -4 15 -9 15 -4 0 -8 -7
-8 -15z" />
    <path d="M1933 1313 c4 -3 10 -3 14 0 3 4 0 7 -7 7 -7 0 -10 -3 -7 -7z" />
    <path d="M1973 1303 c4 -3 10 -3 14 0 3 4 0 7 -7 7 -7 0 -10 -3 -7 -7z" />
    <path d="M63 1283 c4 -3 10 -3 14 0 3 4 0 7 -7 7 -7 0 -10 -3 -7 -7z" />
    <path d="M1965 1281 l-5 -10 19 2 c11 0 17 5 15 9 -7 11 -22 10 -29 -1z" />
    <path d="M477 1254 c3 -8 13 -13 21 -12 9 2 17 -3 17 -9 0 -7 3 -13 8 -13 4 0
13 0 20 0 l12 0 -14 9 -15 9 14 19 14 18 -13 -12 -13 -11 -28 8 -29 8 6 -14z" />
    <path d="M1334 1258 l-7 -11 11 7 c12 7 16 16 8 16 -3 0 -8 -5 -12 -12z" />
    <path d="M840 1250 c0 -7 3 -10 7 -7 3 4 3 10 0 14 -4 3 -7 0 -7 -7z" />
    <path d="M874 1241 l17 -19 -9 -6 c-6 -3 -13 0 -15 6 -3 7 -6 3 -6 -9 -1 -12
2 -24 7 -26 12 -7 52 11 52 24 l0 11 -15 -12 -15 -13 6 17 c7 17 -11 46 -29
46 -5 0 -2 -9 7 -19z" />
    <path d="M916 1251 c-4 -7 -5 -15 -2 -18 9 -9 19 4 14 18 l-4 13 -8 -13z" />
    <path d="M1290 1250 c0 -7 3 -10 7 -7 3 4 3 10 0 14 -4 3 -7 0 -7 -7z" />
    <path d="M816 1228 l-6 -23 23 -17 c12 -9 24 -14 27 -11 3 3 -1 8 -8 10 -6 3
-9 10 -5 16 l6 10 -15 -5 -15 -6 5 24 c6 30 -4 32 -12 2z" />
    <path d="M1233 1243 c4 -3 10 -3 14 0 3 4 0 7 -7 7 -7 0 -10 -3 -7 -7z" />
    <path d="M1210 1226 c0 -9 5 -16 10 -16 6 0 10 4 10 9 0 6 -4 13 -10 16 l-10
6 0 -15z" />
    <path d="M436 1214 c-4 -9 -5 -18 -4 -19 2 -2 18 0 36 2 17 3 32 10 32 15 l0
9 -20 -6 -20 -6 0 10 c0 17 -17 13 -24 -5z" />
    <path d="M943 1216 c2 -6 11 -12 20 -14 l17 -3 -5 14 c-7 16 -37 19 -32 3z" />
    <path d="M1245 1210 l-6 -10 21 0 21 0 -6 10 c-3 6 -10 10 -15 10 -5 0 -12 -4
-15 -10z" />
    <path d="M1333 1213 c4 -3 10 -3 14 0 3 4 0 7 -7 7 -7 0 -10 -3 -7 -7z" />
    <path d="M400 1199 c0 -5 5 -7 10 -4 6 3 10 8 10 11 0 2 -4 4 -10 4 -5 0 -10
-5 -10 -11z" />
    <path d="M1355 1190 l-6 -10 16 0 16 0 -6 10 c-3 6 -8 10 -10 10 -2 0 -7 -4
-10 -10z" />
    <path d="M2333 1193 c4 -3 10 -3 14 0 3 4 0 7 -7 7 -7 0 -10 -3 -7 -7z" />
    <path d="M325 1180 c3 -5 8 -10 11 -10 2 0 4 5 4 10 0 6 -5 10 -11 10 -5 0 -7
-4 -4 -10z" />
    <path d="M353 1183 c4 -3 10 -3 14 0 3 4 0 7 -7 7 -7 0 -10 -3 -7 -7z" />
    <path d="M590 1180 c0 -5 5 -10 11 -10 5 0 7 5 4 10 -3 6 -8 10 -11 10 -2 0
-4 -4 -4 -10z" />
    <path d="M1404 1178 l-7 -11 11 7 c7 4 12 3 12 -2 0 -14 72 -49 91 -45 l17 4
0 25 c0 14 -3 22 -6 20 -3 -3 -11 -1 -19 5 l-13 11 0 -16 0 -17 10 6 c6 3 10
2 10 -4 0 -15 -16 -22 -35 -15 l-17 7 14 9 13 9 -23 -6 -22 -6 -6 15 c-7 19
-20 21 -30 4z" />
    <path d="M2750 1180 c0 -5 5 -10 11 -10 5 0 7 5 4 10 -3 6 -8 10 -11 10 -2 0
-4 -4 -4 -10z" />
    <path d="M603 1166 c-23 -11 -32 -36 -12 -36 5 0 7 -4 4 -10 -8 -13 1 -13 26
1 l20 10 -12 15 -11 14 11 0 c6 0 11 5 11 10 0 12 -8 11 -37 -4z m22 -26 l6
-10 -15 0 c-9 0 -16 5 -16 10 0 6 4 10 9 10 6 0 13 -4 16 -10z" />
    <path d="M2776 1164 l-6 -17 13 12 14 11 17 -18 c9 -10 13 -22 9 -26 -4 -4 0
-4 10 0 9 3 17 10 17 15 0 7 -51 39 -63 39 -3 0 -8 -7 -11 -16z" />
    <path d="M810 1166 c0 -2 7 -7 16 -10 l15 -6 -6 10 c-6 10 -25 14 -25 6z" />
    <path d="M2298 1164 c-10 -9 10 -44 25 -44 l12 0 -14 9 -13 9 18 12 19 12 -17
-6 c-9 -3 -18 0 -20 5 -2 6 -7 7 -10 3z" />
    <path d="M4052 1145 l-21 -24 9 -6 c6 -4 10 -1 10 4 0 6 7 11 16 11 l16 0 -5
14 -6 15 16 -6 16 -6 -7 11 c-11 18 -20 15 -44 -13z" />
    <path d="M4132 1161 l-14 -8 17 -7 c9 -3 21 -4 26 -1 l9 6 -6 -14 c-3 -8 -1
-18 5 -22 l11 -6 0 12 0 13 16 -20 c8 -10 12 -12 8 -4 -9 19 -46 60 -53 60 -3
0 -12 -4 -19 -9z" />
    <path d="M371 1149 l-23 -9 12 -15 c7 -8 16 -15 20 -15 7 0 22 42 17 46 -1 1
-13 -2 -26 -7z m6 -16 c-4 -3 -10 -3 -14 0 -3 4 0 7 7 7 7 0 10 -3 7 -7z" />
    <path d="M2260 1150 c0 -5 4 -10 10 -10 5 0 7 -8 4 -17 l-6 -18 10 14 c11 15
5 41 -9 41 -5 0 -9 -4 -9 -10z" />
    <path d="M2743 1153 c4 -3 10 -3 14 0 3 4 0 7 -7 7 -7 0 -10 -3 -7 -7z" />
    <path d="M2743 1133 c4 -3 10 -3 14 0 3 4 0 7 -7 7 -7 0 -10 -3 -7 -7z" />
    <path d="M1538 1104 c-4 -4 -5 -11 -2 -15 9 -15 31 -10 38 7 l6 17 -14 -12
-14 -12 -4 11 c-2 6 -7 8 -10 4z" />
    <path d="M1584 1065 c-1 -14 2 -25 7 -25 5 0 9 4 9 9 0 5 3 16 6 25 l6 16 -13
0 -14 0 -1 -25z" />
    <path d="M2909 1062 c-6 -30 -5 -51 2 -46 5 3 9 12 9 21 l0 15 16 -6 16 -6 -4
12 c-4 12 -37 21 -39 10z" />
    <path d="M1632 1014 l-14 -15 15 -17 c8 -9 27 -53 43 -96 l28 -79 7 19 7 19
-14 15 c-11 13 -25 57 -26 85 0 6 3 18 7 29 l8 18 -19 -6 -20 -6 0 19 0 20 16
-12 15 -12 -14 18 c-7 9 -16 17 -20 17 -3 -1 -12 -8 -19 -16z" />
    <path d="M2430 1020 c0 -7 3 -10 7 -7 3 4 3 10 0 14 -4 3 -7 0 -7 -7z" />
    <path d="M2660 1020 c0 -5 5 -10 10 -10 6 0 10 5 10 10 0 6 -4 10 -10 10 -5 0
-10 -4 -10 -10z" />
    <path d="M2690 1015 c0 -8 7 -15 16 -15 8 0 13 4 9 9 -3 5 3 12 12 14 l18 5
-27 1 -28 1 0 -15z" />
    <path d="M2775 998 l7 -31 -15 6 -16 6 11 -24 10 -23 17 6 16 6 -12 -15 -13
-16 15 -19 14 -19 1 18 c0 9 -5 17 -11 17 -5 0 -7 5 -4 10 4 6 11 8 16 5 5 -4
9 -1 9 5 0 7 -9 14 -20 17 -21 5 -22 30 -2 26 5 -1 13 4 16 12 l5 14 -13 -5
c-8 -3 -17 -1 -21 5 l-6 11 16 0 16 0 -6 10 c-3 6 -13 10 -21 10 l-16 0 7 -32z" />
    <path d="M1030 1005 c0 -8 4 -15 9 -15 5 0 11 7 15 15 l5 15 -14 0 c-8 0 -15
-7 -15 -15z" />
    <path d="M2932 993 c2 -33 11 -42 23 -23 3 6 1 10 -5 10 -6 0 -9 4 -6 8 2 4 0
14 -5 22 l-9 15 2 -32z" />
    <path d="M2956 1012 c-2 -4 -1 -14 4 -22 4 -7 6 -19 3 -27 l-5 -13 15 6 15 6
-10 29 c-11 31 -14 34 -22 21z" />
    <path d="M4191 1000 c0 -14 4 -32 9 -40 l10 -15 9 14 9 14 16 -6 c9 -4 16 -2
16 3 0 6 -9 10 -20 10 l-20 0 0 16 c0 8 -4 13 -9 10 -5 -4 -12 0 -14 6 -3 7
-6 2 -6 -12z m16 -27 c-4 -3 -7 0 -7 7 0 7 3 10 7 7 3 -4 3 -10 0 -14z" />
    <path d="M1294 985 l-6 -15 -24 2 c-13 1 -24 6 -24 11 0 4 -4 5 -10 2 -5 -3
-10 -10 -10 -16 0 -13 57 -11 80 3 l20 13 20 -12 c10 -7 21 -9 24 -4 5 8 -35
31 -55 31 -5 0 -12 -7 -15 -15z" />
    <path d="M2423 993 c4 -3 10 -3 14 0 3 4 0 7 -7 7 -7 0 -10 -3 -7 -7z" />
    <path d="M3372 981 l-14 -8 14 -6 15 -5 0 14 c0 8 -1 14 -1 14 -1 0 -7 -4 -14
-9z" />
    <path d="M3477 973 c7 -17 20 -17 26 1 l6 15 -18 -2 -19 -1 5 -13z" />
    <path d="M4011 981 l-13 -8 12 -8 c13 -8 24 -1 19 14 l-4 10 -14 -8z" />
    <path d="M2421 963 l1 -18 5 13 c2 6 10 9 15 6 l11 -7 -7 11 c-11 18 -26 14
-25 -5z" />
    <path d="M3553 965 c0 -9 4 -14 9 -13 5 2 10 8 10 13 0 5 -5 11 -10 13 -5 1
-9 -4 -9 -13z" />
    <path d="M4293 973 c4 -3 10 -3 14 0 3 4 0 7 -7 7 -7 0 -10 -3 -7 -7z" />
    <path d="M2910 960 c0 -7 3 -10 7 -7 3 4 3 10 0 14 -4 3 -7 0 -7 -7z" />
    <path d="M3403 963 c4 -3 10 -3 14 0 3 4 0 7 -7 7 -7 0 -10 -3 -7 -7z" />
    <path d="M3965 960 c3 -5 8 -10 11 -10 2 0 4 5 4 10 0 6 -5 10 -11 10 -5 0 -7
-4 -4 -10z" />
    <path d="M1313 953 c4 -3 10 -3 14 0 3 4 0 7 -7 7 -7 0 -10 -3 -7 -7z" />
    <path d="M1390 943 c0 -6 6 -14 13 -16 l12 -5 -17 -1 c-9 -1 -19 5 -22 12 -2
6 -3 1 -1 -13 2 -14 4 -31 4 -37 1 -7 5 -13 10 -13 5 0 8 7 7 16 0 9 5 19 13
22 l13 4 -7 -23 -8 -23 17 17 17 17 -25 27 c-15 15 -26 23 -26 16z" />
    <path d="M3935 940 c-3 -5 -1 -10 4 -10 6 0 11 5 11 10 0 6 -2 10 -4 10 -3 0
-8 -4 -11 -10z" />
    <path d="M3233 912 c-18 -15 -33 -32 -33 -36 0 -5 9 -1 21 10 l20 18 11 -14
10 -15 -6 18 c-6 19 4 22 22 7 l12 -10 -9 11 c-5 6 -7 18 -4 25 8 22 -9 16
-44 -14z" />
    <path d="M3634 912 c-4 -15 -13 -33 -22 -39 -9 -7 -12 -16 -9 -20 4 -3 13 2
21 12 l13 18 14 -8 14 -9 -13 17 -14 16 32 -4 31 -4 -4 12 c-2 7 -12 11 -22 9
l-17 -3 6 9 c3 6 -1 12 -9 16 l-15 5 -6 -27z" />
    <path d="M4365 932 c-5 -4 -12 -16 -14 -27 l-3 -20 21 19 c11 10 18 23 15 27
-6 11 -6 11 -19 1z" />
    <path d="M3920 895 c0 -8 5 -15 10 -15 6 0 10 7 10 15 0 8 -4 15 -10 15 -5 0
-10 -7 -10 -15z" />
    <path d="M4381 896 l-12 -14 16 -6 15 -5 0 19 c0 24 -4 25 -19 6z" />
    <path d="M1450 856 c0 -9 5 -16 10 -16 6 0 10 4 10 9 0 6 -4 13 -10 16 l-10 6
0 -15z" />
    <path d="M2797 857 l-5 -14 13 0 13 0 -5 14 c-3 7 -6 13 -8 13 -2 0 -5 -6 -8
-13z" />
    <path d="M3363 850 c-1 -11 2 -20 8 -20 5 0 9 9 9 20 0 11 -4 20 -8 20 -4 0
-8 -9 -9 -20z" />
    <path d="M3570 855 c-6 -8 -9 -19 -5 -25 3 -5 2 -10 -4 -10 -5 0 -12 10 -14
23 l-4 22 -2 -27 c0 -16 2 -28 7 -29 4 0 17 -2 30 -3 l23 -3 -5 14 c-3 7 0 13
7 13 l12 1 -18 10 c-9 6 -15 14 -12 20 9 14 -1 11 -15 -6z" />
    <path d="M3945 861 c-3 -5 -2 -17 1 -26 l7 -16 14 5 14 6 -6 -10 c-3 -6 1 -10
10 -10 17 0 36 39 27 55 l-6 9 -3 -11 -4 -12 -24 9 -24 9 -6 -8z m22 -18 c-4
-3 -10 -3 -14 0 -3 4 0 7 7 7 7 0 10 -3 7 -7z" />
    <path d="M4190 861 c0 -19 20 -61 28 -61 5 0 14 11 20 25 l12 25 -10 0 c-6 0
-10 -7 -10 -15 0 -22 -17 -18 -23 5 l-5 19 12 5 c6 2 3 5 -6 5 -10 1 -18 -3
-18 -8z" />
    <path d="M4370 856 c0 -9 -4 -15 -8 -12 -4 2 -13 -4 -20 -15 -16 -24 -4 -24
27 2 l24 20 -11 11 -12 12 0 -18z" />
    <path d="M3197 853 c-4 -3 -7 -15 -7 -26 l0 -19 -20 5 c-11 3 -20 1 -20 -4 0
-5 6 -9 13 -9 6 0 23 -3 36 -7 l24 -6 -9 14 c-13 22 -14 43 -1 51 l12 8 -11 0
c-6 0 -14 -3 -17 -7z" />
    <path d="M3303 829 c-1 -16 1 -29 5 -29 9 0 10 45 2 53 -3 3 -6 -8 -7 -24z" />
    <path d="M3336 851 c-4 -7 -5 -15 -2 -18 9 -9 19 4 14 18 l-4 13 -8 -13z" />
    <path d="M3484 849 c-9 -15 10 -31 29 -23 18 7 24 34 7 34 -5 0 -10 -7 -10
-16 l0 -15 -10 6 c-6 4 -8 11 -5 16 4 5 4 9 1 9 -3 0 -8 -5 -12 -11z" />
    <path d="M3395 828 l-20 -21 23 12 c12 6 22 16 22 21 0 13 -2 12 -25 -12z" />
    <path d="M1724 828 l-7 -11 11 7 c12 7 16 16 8 16 -3 0 -8 -5 -12 -12z" />
    <path d="M3720 825 c-7 -8 -9 -19 -5 -25 l7 -11 16 13 17 13 -20 -23 -19 -23
14 -9 14 -9 -16 -6 -17 -7 6 -14 c3 -8 9 -11 14 -8 5 3 7 9 4 14 -5 9 35 36
45 31 2 -1 6 2 8 7 1 4 -11 22 -27 40 l-30 31 -11 -14z m17 -12 c-4 -3 -10 -3
-14 0 -3 4 0 7 7 7 7 0 10 -3 7 -7z m32 -31 l9 -18 -19 -1 c-10 -1 -21 3 -25
8 -3 5 0 8 8 7 7 -2 12 3 11 10 -4 18 5 15 16 -6z" />
    <path d="M1450 821 c0 -4 9 -16 20 -26 11 -10 20 -14 20 -9 0 5 -9 17 -20 27
-11 9 -20 13 -20 8z" />
    <path d="M2781 818 c-1 -22 18 -33 32 -19 l12 12 -17 -6 -16 -6 -5 18 -5 18
-1 -17z" />
    <path d="M4020 820 c0 -7 3 -10 7 -7 3 4 3 10 0 14 -4 3 -7 0 -7 -7z" />
    <path d="M3342 811 c4 -13 18 -16 19 -4 0 4 -5 9 -11 12 -7 2 -11 -2 -8 -8z" />
    <path d="M1700 778 l0 -20 15 12 c8 7 15 14 15 15 0 2 -7 5 -15 9 l-15 5 0
-21z" />
    <path d="M2743 767 c-11 -12 -23 -30 -26 -39 l-6 -18 9 0 c6 0 10 10 10 21 l0
21 15 -12 15 -12 15 12 15 12 0 -21 0 -21 18 0 17 0 -11 8 c-13 8 -14 42 -2
42 5 0 6 5 2 11 l-6 11 -7 -9 c-3 -6 -16 -16 -29 -22 l-24 -13 12 22 c16 30 7
34 -17 7z" />
    <path d="M2926 781 c-4 -5 0 -12 6 -14 l13 -5 -15 -12 -15 -11 20 3 20 3 -3
-17 c-4 -27 7 -22 18 8 l10 26 -11 16 -10 17 4 -22 c3 -13 1 -23 -4 -23 -5 0
-9 9 -9 20 0 21 -14 27 -24 11z" />
    <path d="M2420 764 c0 -7 4 -15 10 -19 5 -3 6 -13 3 -23 l-6 -17 9 8 c5 5 9
21 10 36 l0 28 -13 0 c-7 0 -13 -6 -13 -13z" />
    <path d="M3593 773 c-7 -2 -13 -10 -13 -15 0 -6 3 -8 7 -5 3 4 12 2 20 -4 l13
-11 0 21 c0 21 -5 24 -27 14z" />
    <path d="M3113 725 l-11 -34 15 -12 14 -12 -5 26 c-2 15 0 29 5 32 11 8 12 35
1 35 -5 0 -13 -16 -19 -35z" />
    <path d="M3315 752 c-5 -4 -12 -16 -13 -27 -4 -23 0 -20 17 13 12 24 12 26 -4
14z" />
    <path d="M1477 730 c-3 -11 -1 -23 4 -26 5 -3 9 6 9 20 0 31 -6 34 -13 6z" />
    <path d="M3750 729 c0 -5 5 -7 10 -4 6 3 10 8 10 11 0 2 -4 4 -10 4 -5 0 -10
-5 -10 -11z" />
    <path d="M2670 720 c0 -5 5 -10 10 -10 6 0 10 5 10 10 0 6 -4 10 -10 10 -5 0
-10 -4 -10 -10z" />
    <path d="M2923 700 c-1 -17 2 -30 7 -30 11 0 18 21 12 43 -7 27 -17 20 -19
-13z" />
    <path d="M3235 690 c-11 -5 -15 -9 -8 -9 7 -1 20 -13 28 -28 9 -16 14 -20 11
-10 l-5 17 15 0 c8 0 13 -4 10 -9 -3 -5 1 -12 10 -15 24 -9 36 -7 29 4 -4 6
-11 8 -16 5 -9 -6 -13 8 -10 33 2 15 -11 16 -26 1 l-11 -11 -7 13 -8 12 13 -8
13 -8 -7 11 c-4 7 -8 12 -9 11 -1 0 -11 -4 -22 -9z" />
    <path d="M3556 655 l-20 -15 17 0 c9 0 17 5 17 10 0 6 7 10 15 10 8 0 15 -4
15 -10 0 -5 5 -10 11 -10 l11 0 -12 15 c-15 19 -29 19 -54 0z" />
    <path d="M1465 650 c3 -5 8 -10 11 -10 2 0 4 5 4 10 0 6 -5 10 -11 10 -5 0 -7
-4 -4 -10z" />
    <path d="M3220 646 c0 -2 7 -7 16 -10 l15 -6 -6 10 c-6 10 -25 14 -25 6z" />
    <path d="M1697 633 c-8 -14 -2 -63 8 -66 5 -1 10 15 10 36 1 34 -7 48 -18 30z" />
    <path d="M1740 629 c0 -5 5 -7 10 -4 6 3 10 8 10 11 0 2 -4 4 -10 4 -5 0 -10
-5 -10 -11z" />
    <path d="M1435 612 l-5 -13 10 6 10 6 0 -16 0 -16 -20 6 -20 6 0 -11 c0 -6 5
-8 11 -5 l10 7 -3 -18 c-2 -11 -7 -22 -13 -26 -5 -4 -7 -10 -3 -13 6 -7 48 54
60 85 l6 16 -19 0 c-10 0 -21 -6 -24 -14z" />
    <path d="M2810 619 l-15 -11 17 6 17 5 -6 -15 c-3 -8 -11 -13 -19 -10 -7 3
-18 -2 -25 -10 l-12 -14 -16 12 c-9 7 -13 8 -9 4 4 -5 0 -15 -10 -23 l-17 -14
25 6 c14 3 41 13 62 22 l36 15 5 19 5 19 -11 0 c-7 0 -19 -5 -27 -11z" />
    <path d="M2860 619 c0 -5 5 -7 10 -4 6 3 10 8 10 11 0 2 -4 4 -10 4 -5 0 -10
-5 -10 -11z" />
    <path d="M3110 619 c0 -5 5 -7 10 -4 6 3 10 8 10 11 0 2 -4 4 -10 4 -5 0 -10
-5 -10 -11z" />
    <path d="M3726 614 c-9 -8 -16 -20 -16 -26 l0 -10 15 12 c8 6 19 9 24 5 l11
-6 -6 16 -6 15 18 -6 19 -6 -15 11 c-20 14 -26 14 -44 -5z" />
    <path d="M1380 600 c0 -7 3 -10 7 -7 3 4 3 10 0 14 -4 3 -7 0 -7 -7z" />
    <path d="M3105 590 c3 -5 8 -10 11 -10 3 0 2 5 -1 10 -3 6 -8 10 -11 10 -3 0
-2 -4 1 -10z" />
    <path d="M3770 585 c-7 -9 -10 -18 -7 -22 8 -7 37 15 37 28 0 14 -16 11 -30
-6z" />
    <path d="M3725 560 c3 -5 10 -10 16 -10 5 0 9 5 9 10 0 6 -7 10 -16 10 l-15 0
6 -10z" />
    <path d="M1301 541 l-13 -9 7 -41 c4 -22 11 -41 15 -41 14 0 60 54 60 70 0 5
7 10 16 10 8 0 13 4 9 10 -9 15 -29 2 -43 -29 -7 -16 -20 -32 -28 -35 l-15 -6
6 10 c3 6 2 10 -4 10 -10 0 -7 31 4 50 8 12 4 12 -14 1z" />
    <path d="M2430 540 c0 -7 3 -10 7 -7 3 4 3 10 0 14 -4 3 -7 0 -7 -7z" />
    <path d="M3100 535 c0 -8 7 -15 15 -15 8 0 15 4 15 9 0 5 -7 11 -15 15 l-15 5
0 -14z" />
    <path d="M3274 538 l-7 -11 11 7 c7 4 12 3 12 -3 0 -5 -5 -12 -10 -14 -6 -3
-5 -4 2 -3 16 3 24 36 9 36 -5 0 -13 -5 -17 -12z" />
    <path d="M1640 486 c-14 -22 -26 -43 -28 -46 -1 -3 7 -6 19 -7 l21 -2 -5 19
c-5 19 14 44 26 35 4 -3 5 -2 2 2 -3 3 0 12 5 18 l11 13 -14 5 -13 5 -24 -42z
m-3 -43 c-4 -3 -7 0 -7 7 0 7 3 10 7 7 3 -4 3 -10 0 -14z" />
    <path d="M1315 510 c4 -6 11 -8 16 -5 14 9 11 15 -7 15 l-15 0 6 -10z" />
    <path d="M2423 513 c4 -3 10 -3 14 0 3 4 0 7 -7 7 -7 0 -10 -3 -7 -7z" />
    <path d="M2421 483 l1 -18 5 13 c2 6 10 9 15 6 l11 -7 -7 11 c-11 18 -26 14
-25 -5z" />
    <path d="M3120 472 c1 -16 36 -67 48 -70 l13 -2 -16 24 -16 24 10 4 c6 1 -1 8
-14 15 -14 6 -25 8 -25 5z" />
    <path d="M1229 449 l-14 -9 34 0 c19 0 31 3 27 7 -10 11 -32 12 -47 2z" />
    <path d="M1663 440 c3 -11 1 -20 -5 -20 -5 0 -16 -7 -24 -15 l-15 -15 14 0 c8
0 20 7 27 15 7 8 15 13 19 11 4 -3 7 4 8 14 1 10 -5 21 -14 24 l-15 6 5 -20z" />
    <path d="M3643 453 c-7 -2 -13 -12 -13 -22 0 -9 -5 -22 -12 -29 l-11 -11 50 1
51 2 -5 14 -6 14 -6 -11 -7 -10 -14 9 -14 9 -13 -11 -13 -11 6 17 c3 9 14 16
23 17 9 0 28 2 44 3 l27 2 -4 -13 c-7 -16 6 -24 23 -14 l13 8 -23 22 c-25 23
-44 27 -54 11 -3 -5 -11 -10 -16 -10 -6 0 -7 5 -4 10 7 11 -2 12 -22 3z" />
    <path d="M3331 432 l-10 -18 10 -15 9 -14 11 18 11 18 19 -17 c11 -9 22 -14
26 -11 3 4 4 8 2 10 -2 1 -18 12 -36 25 l-32 22 -10 -18z" />
    <path d="M4214 434 c9 -8 16 -17 16 -19 0 -1 -7 -6 -16 -9 l-15 -6 6 9 c3 5 0
13 -6 16 l-11 7 4 -17 c4 -25 20 -28 43 -10 l20 15 -19 15 c-26 20 -42 19 -22
-1z" />
    <path d="M3565 400 c4 -6 11 -8 16 -5 14 9 11 15 -7 15 l-15 0 6 -10z" />
    <path d="M4255 400 c-3 -5 -2 -10 4 -10 5 0 13 5 16 10 3 6 2 10 -4 10 -5 0
-13 -4 -16 -10z" />
    <path d="M1565 390 c-3 -5 -1 -10 4 -10 6 0 11 5 11 10 0 6 -2 10 -4 10 -3 0
-8 -4 -11 -10z" />
    <path d="M1673 393 c4 -3 10 -3 14 0 3 4 0 7 -7 7 -7 0 -10 -3 -7 -7z" />
    <path d="M3423 393 c4 -3 10 -3 14 0 3 4 0 7 -7 7 -7 0 -10 -3 -7 -7z" />
    <path d="M3513 393 c4 -3 10 -3 14 0 3 4 0 7 -7 7 -7 0 -10 -3 -7 -7z" />
    <path d="M3735 392 c-16 -12 -16 -39 0 -52 l15 -12 0 10 c0 6 -5 12 -11 14
l-12 4 17 16 c16 17 9 33 -9 20z" />
    <path d="M4020 391 c0 -18 23 -72 28 -66 10 10 11 35 1 35 -4 0 -6 6 -3 14 l5
13 -15 6 c-9 4 -16 3 -16 -2z" />
    <path d="M3207 383 c-3 -5 -2 -15 2 -22 l9 -13 5 9 c3 5 2 15 -2 22 l-8 13 -6
-9z" />
    <path d="M3235 372 c3 -7 1 -21 -4 -31 l-10 -17 20 -12 19 -12 0 9 c0 5 9 12
19 16 l20 6 -2 19 c-1 10 -5 16 -9 14 -5 -3 -6 -9 -3 -14 3 -5 -4 -14 -15 -20
l-20 -11 0 16 c0 8 5 15 10 15 6 0 10 8 10 18 l0 18 -20 0 -20 0 5 -14z" />
    <path d="M4060 380 c0 -6 7 -10 15 -10 8 0 15 2 15 4 0 2 -7 6 -15 10 -8 3
-15 1 -15 -4z" />
    <path d="M2425 370 c3 -5 11 -10 16 -10 6 0 7 5 4 10 -3 6 -11 10 -16 10 -6 0
-7 -4 -4 -10z" />
    <path d="M355 360 c3 -5 8 -10 11 -10 2 0 4 5 4 10 0 6 -5 10 -11 10 -5 0 -7
-4 -4 -10z" />
    <path d="M620 360 c0 -7 3 -10 7 -7 3 4 3 10 0 14 -4 3 -7 0 -7 -7z" />
    <path d="M1566 354 c-3 -8 -10 -12 -16 -9 -5 3 -10 0 -10 -8 0 -14 20 -27 40
-27 5 0 14 9 20 20 l10 19 -19 10 -19 11 -6 -16z m24 -20 l0 -15 -10 6 c-6 4
-8 11 -5 16 9 14 15 11 15 -7z" />
    <path d="M4357 364 c-3 -3 -3 -12 0 -20 6 -16 43 -19 43 -4 0 12 -35 31 -43
24z" />
    <path d="M4075 350 c3 -5 8 -10 11 -10 2 0 4 5 4 10 0 6 -5 10 -11 10 -5 0 -7
-4 -4 -10z" />
    <path d="M824 335 l7 -18 -13 -9 -13 -8 18 0 c9 0 17 -5 17 -11 0 -5 -4 -7
-10 -4 -5 3 -10 2 -10 -2 0 -11 41 -36 48 -29 3 3 0 6 -6 6 -6 0 -9 6 -6 14 3
8 1 17 -5 21 -6 3 -11 15 -11 25 0 10 -5 22 -12 26 l-11 7 7 -18z" />
    <path d="M1509 348 c-4 -15 -3 -61 2 -69 l7 -11 6 11 c4 6 3 11 -3 11 l-11 0
10 26 c6 14 10 27 10 30 0 4 -19 6 -21 2z" />
    <path d="M2440 340 c0 -7 3 -10 7 -7 3 4 3 10 0 14 -4 3 -7 0 -7 -7z" />
    <path d="M350 330 c0 -7 3 -10 7 -7 3 4 3 10 0 14 -4 3 -7 0 -7 -7z" />
    <path d="M4078 308 c-3 -16 -1 -28 3 -28 5 0 12 0 16 0 4 0 8 6 9 15 1 8 -2
13 -6 10 -5 -3 -10 3 -12 12 l-4 18 -6 -27z" />
    <path d="M613 313 c4 -3 10 -3 14 0 3 4 0 7 -7 7 -7 0 -10 -3 -7 -7z" />
    <path d="M1451 311 l-13 -8 11 -7 c13 -8 31 1 31 15 0 11 -11 11 -29 0z" />
    <path d="M4353 300 l-13 -19 11 -7 c15 -9 28 8 20 28 l-6 18 -12 -20z" />
    <path d="M369 297 l13 -16 -8 -12 -7 -12 11 7 c7 4 12 3 12 -3 0 -5 -6 -11
-12 -14 l-13 -4 8 -9 9 -9 14 19 c12 17 18 15 16 -5 -1 -4 11 -6 25 -6 l26 0
-34 21 c-19 11 -34 28 -34 36 0 8 -9 16 -20 19 l-19 3 13 -15z" />
    <path d="M2283 303 c4 -3 10 -3 14 0 3 4 0 7 -7 7 -7 0 -10 -3 -7 -7z" />
    <path d="M2356 299 c2 -4 0 -10 -5 -14 -12 -7 -10 -45 2 -45 5 0 7 8 4 19 l-4
18 15 -1 c9 0 18 7 20 16 l3 17 -20 -2 c-11 0 -18 -4 -15 -8z" />
    <path d="M3540 293 c0 -13 5 -23 10 -23 13 0 13 11 0 30 l-10 15 0 -22z" />
    <path d="M3617 280 l-18 -30 16 6 c8 3 15 13 15 21 0 8 4 12 8 9 5 -3 9 1 9 9
0 23 -11 18 -30 -15z" />
    <path d="M3660 296 c0 -9 7 -16 16 -16 17 0 14 22 -4 28 -7 2 -12 -3 -12 -12z" />
    <path d="M4120 289 c0 -10 -1 -22 -2 -25 -2 -4 7 -10 18 -15 l22 -8 -6 21 -5
20 -9 -14 -10 -13 5 15 c2 8 10 14 16 13 20 -5 12 15 -9 20 l-20 5 0 -19z" />
    <path d="M4167 290 c-3 -11 -1 -20 4 -20 5 0 9 9 9 20 0 11 -2 20 -4 20 -2 0
-6 -9 -9 -20z" />
    <path d="M574 283 c-6 -10 -9 -24 -7 -30 8 -23 19 -14 21 17 1 17 1 30 0 30
-2 0 -8 -8 -14 -17z" />
    <path d="M610 276 c0 -14 4 -27 8 -30 5 -3 6 8 4 25 -5 35 -12 38 -12 5z" />
    <path d="M2320 285 c0 -8 2 -15 4 -15 2 0 6 7 10 15 3 8 1 15 -4 15 -6 0 -10
-7 -10 -15z" />
    <path d="M3300 290 c0 -7 3 -10 7 -7 3 4 3 10 0 14 -4 3 -7 0 -7 -7z" />
    <path d="M3371 288 c-2 -25 -17 -30 -35 -12 -9 8 -16 11 -16 5 0 -6 9 -15 21
-22 l21 -11 10 10 c5 5 8 18 5 28 l-5 19 -1 -17z" />
    <path d="M3567 284 c6 -15 23 -19 23 -5 0 5 -7 11 -14 14 l-15 6 6 -15z" />
    <path d="M4260 290 c0 -7 3 -10 7 -7 3 4 3 10 0 14 -4 3 -7 0 -7 -7z" />
    <path d="M1407 273 l6 -16 -13 8 -13 8 7 -12 c4 -6 12 -9 17 -6 12 8 12 35 -1
35 l-9 0 6 -17z" />
    <path d="M2280 282 c0 -10 22 -32 32 -32 5 0 3 9 -4 20 -13 20 -28 27 -28 12z" />
    <path d="M2405 280 c3 -5 8 -10 11 -10 2 0 4 5 4 10 0 6 -5 10 -11 10 -5 0 -7
-4 -4 -10z" />
    <path d="M1440 272 c0 -5 9 -17 20 -27 22 -20 26 -9 6 18 -14 18 -26 22 -26 9z" />
    <path d="M3436 271 c-3 -5 1 -14 9 -21 l15 -12 0 21 c0 21 -14 28 -24 12z" />
    <path d="M4292 268 c3 -7 13 -15 24 -17 l18 -3 -13 16 c-16 19 -34 21 -29 4z" />
    <path d="M1281 259 c-24 -5 -46 -10 -48 -12 -2 -3 5 -7 17 -10 11 -3 20 -2 20
2 0 4 16 7 35 6 19 0 35 3 35 8 0 5 6 4 13 -2 l14 -11 0 15 0 15 -21 -1 c-12
-1 -41 -5 -65 -10z" />
    <path d="M3404 258 l-7 -11 11 7 c12 7 16 16 8 16 -3 0 -8 -5 -12 -12z" />
    <path d="M905 250 c3 -5 11 -10 16 -10 6 0 7 5 4 10 -3 6 -11 10 -16 10 -6 0
-7 -4 -4 -10z" />
    <path d="M3525 250 c3 -5 8 -10 11 -10 2 0 4 5 4 10 0 6 -5 10 -11 10 -5 0 -7
-4 -4 -10z" />
    <path d="M810 240 c0 -5 5 -10 10 -10 6 0 10 5 10 10 0 6 -4 10 -10 10 -5 0
-10 -4 -10 -10z" />
    <path d="M858 233 c7 -3 16 -2 19 1 4 3 -2 6 -13 5 l-19 -1 13 -5z" />
    <path d="M1513 233 c4 -3 10 -3 14 0 3 4 0 7 -7 7 -7 0 -10 -3 -7 -7z" />
    <path d="M40 139 l15 -9 -17 -11 c-21 -12 -24 -30 -5 -26 6 1 11 -4 9 -12 -1
-7 2 -19 9 -27 l11 -14 24 4 23 4 -6 -16 -7 -17 19 15 19 15 -8 -12 -7 -13 15
0 c8 0 18 5 21 10 3 6 1 10 -5 10 l-11 0 7 12 7 11 -11 -7 c-7 -4 -12 -3 -12
2 0 5 -11 7 -25 4 l-25 -4 0 16 c0 9 -5 16 -11 16 -5 0 -7 4 -4 10 l6 10 -17
-7 -16 -6 16 24 16 25 -23 1 -22 2 15 -10z m27 -76 c-4 -3 -10 -3 -14 0 -3 4
0 7 7 7 7 0 10 -3 7 -7z" />
    <path d="M1935 123 c0 -13 3 -23 8 -23 4 0 7 -5 7 -11 0 -5 -5 -7 -10 -4 l-11
7 5 -26 c5 -28 -8 -36 -18 -11 -3 8 -15 15 -27 15 l-21 0 11 -13 c6 -8 10 -16
8 -18 -1 -2 4 3 12 11 l13 15 -7 -22 c-7 -27 2 -29 31 -8 l21 14 -2 40 -2 39
22 -8 23 -9 5 20 5 19 -36 -2 -37 -3 0 -22z" />
    <path d="M1852 45 l0 -30 5 18 c2 9 2 23 0 30 -3 6 -5 -1 -5 -18z" />
  </g>
  <g transform="translate(0.000000,143.000000) scale(0.100000,-0.100000)" fill="#2e2e2e" stroke="none">
    <path d="M138 1418 l13 -16 -13 -4 -12 -4 16 -6 16 -7 -2 15 c-1 8 -8 20 -16
27 l-14 12 12 -17z" />
    <path d="M1870 1419 l0 -11 16 6 16 6 -6 -17 -7 -18 12 12 13 13 13 -12 c7 -6
16 -8 19 -5 6 6 -48 37 -66 37 -5 0 -10 -5 -10 -11z" />
    <path d="M60 1390 c0 -5 7 -10 16 -10 l15 0 -6 10 c-3 6 -10 10 -16 10 -5 0
-9 -4 -9 -10z" />
    <path d="M1865 1390 c3 -5 8 -10 11 -10 3 0 2 5 -1 10 -3 6 -8 10 -11 10 -3 0
-2 -4 1 -10z" />
    <path d="M1954 1368 l-7 -11 11 7 c12 7 16 16 8 16 -3 0 -8 -5 -12 -12z" />
    <path d="M64 1358 l-7 -11 11 7 c12 7 16 16 8 16 -3 0 -8 -5 -12 -12z" />
    <path d="M23 1344 c-3 -8 0 -21 6 -27 l12 -12 -7 19 -7 19 11 -7 12 -7 -6 15
c-8 20 -13 20 -21 0z" />
    <path d="M1976 1352 c-3 -5 1 -15 9 -22 16 -14 20 -3 6 19 l-8 13 -7 -10z" />
    <path d="M10 1286 l0 -27 9 5 c10 7 9 31 -2 42 -4 4 -7 -5 -7 -20z" />
    <path d="M1964 1278 l-7 -11 11 7 c7 4 12 9 12 12 0 8 -9 4 -16 -8z" />
    <path d="M1995 1281 c-3 -5 -1 -12 5 -16 l10 -6 0 15 c0 18 -6 21 -15 7z" />
    <path d="M485 1250 c3 -5 8 -10 11 -10 3 0 2 5 -1 10 -3 6 -8 10 -11 10 -3 0
-2 -4 1 -10z" />
    <path d="M863 1253 c4 -3 10 -3 14 0 3 4 0 7 -7 7 -7 0 -10 -3 -7 -7z" />
    <path d="M515 1231 c-3 -5 -2 -12 3 -15 5 -3 9 1 9 9 0 17 -3 19 -12 6z" />
    <path d="M883 1235 c4 -5 -3 -19 -15 -32 -12 -12 -18 -26 -15 -30 4 -3 7 -1 7
6 l0 12 13 -7 12 -7 -8 8 c-4 5 0 16 9 26 l15 17 -13 8 -13 7 8 -8z" />
    <path d="M913 1233 c4 -3 10 -3 14 0 3 4 0 7 -7 7 -7 0 -10 -3 -7 -7z" />
    <path d="M443 1223 c4 -3 10 -3 14 0 3 4 0 7 -7 7 -7 0 -10 -3 -7 -7z" />
    <path d="M817 1215 c-4 -8 -3 -16 1 -19 4 -3 9 4 9 15 2 23 -3 25 -10 4z" />
    <path d="M947 1219 c-9 -5 -22 -7 -27 -4 -6 3 -10 1 -10 -4 0 -6 13 -11 28
-11 l29 0 0 15 c0 8 -1 15 -1 15 -1 0 -9 -5 -19 -11z" />
    <path d="M485 1210 l-6 -10 16 0 16 0 -6 10 c-3 6 -8 10 -10 10 -2 0 -7 -4
-10 -10z" />
    <path d="M1205 1210 l-6 -10 21 0 21 0 -6 10 c-3 6 -10 10 -15 10 -5 0 -12 -4
-15 -10z" />
    <path d="M430 1200 c0 -5 5 -10 11 -10 5 0 7 5 4 10 -3 6 -8 10 -11 10 -2 0
-4 -4 -4 -10z" />
    <path d="M2673 1193 c4 -3 10 -3 14 0 3 4 0 7 -7 7 -7 0 -10 -3 -7 -7z" />
    <path d="M1375 1180 c3 -5 11 -10 16 -10 6 0 7 5 4 10 -3 6 -11 10 -16 10 -6
0 -7 -4 -4 -10z" />
    <path d="M1416 1175 c-3 -8 -1 -15 4 -15 6 0 10 7 10 15 0 8 -2 15 -4 15 -2 0
-6 -7 -10 -15z" />
    <path d="M2278 1173 c-8 -10 -18 -25 -22 -33 -4 -8 1 -5 12 8 22 24 38 30 26
10 l-7 -13 8 8 c12 10 15 37 6 37 -4 0 -15 -8 -23 -17z" />
    <path d="M2745 1180 c3 -5 8 -10 11 -10 2 0 4 5 4 10 0 6 -5 10 -11 10 -5 0
-7 -4 -4 -10z" />
    <path d="M609 1163 l-14 -18 16 12 c9 7 20 9 24 5 l8 -7 -7 13 c-4 6 -9 12
-10 12 -2 0 -10 -8 -17 -17z" />
    <path d="M1493 1173 c4 -3 10 -3 14 0 3 4 0 7 -7 7 -7 0 -10 -3 -7 -7z" />
    <path d="M570 1165 c0 -15 18 -40 24 -34 3 3 -1 14 -9 25 -8 10 -14 15 -15 9z" />
    <path d="M826 1144 c-8 -21 -8 -24 3 -24 5 0 11 9 14 20 6 24 -8 27 -17 4z" />
    <path d="M1445 1150 c3 -5 11 -10 16 -10 6 0 7 5 4 10 -3 6 -11 10 -16 10 -6
0 -7 -4 -4 -10z" />
    <path d="M2309 1143 l-14 -18 18 14 c9 7 17 15 17 17 0 8 -8 3 -21 -13z" />
    <path d="M2822 1149 c2 -7 10 -15 17 -17 l14 -4 -5 13 c-2 7 -10 15 -17 17
l-13 5 4 -14z" />
    <path d="M4045 1144 c-19 -19 -12 -32 8 -16 8 7 17 9 21 5 4 -4 4 0 0 10 -3 9
-8 17 -9 17 -2 0 -11 -7 -20 -16z" />
    <path d="M4149 1148 l-14 -10 19 6 18 6 -5 -15 c-4 -8 -1 -17 5 -21 l11 -7 -7
11 -7 12 10 0 c6 0 11 4 11 9 0 14 -26 20 -41 9z" />
    <path d="M376 1135 l8 -20 -20 15 -19 15 20 -24 20 -23 3 17 c2 9 -1 22 -8 29
l-11 11 7 -20z" />
    <path d="M1499 1133 l-14 -18 20 15 c11 8 22 16 24 17 2 2 0 3 -6 3 -6 0 -17
-8 -24 -17z" />
    <path d="M2753 1133 c4 -3 10 -3 14 0 3 4 0 7 -7 7 -7 0 -10 -3 -7 -7z" />
    <path d="M590 1109 c0 -5 5 -7 10 -4 6 3 10 8 10 11 0 2 -4 4 -10 4 -5 0 -10
-5 -10 -11z" />
    <path d="M815 1100 c3 -5 8 -10 11 -10 2 0 4 5 4 10 0 6 -5 10 -11 10 -5 0 -7
-4 -4 -10z" />
    <path d="M2900 1090 c0 -5 4 -10 9 -10 11 0 9 -19 -4 -40 l-8 -15 21 19 22 19
-16 19 c-19 21 -24 22 -24 8z" />
    <path d="M1555 1080 c3 -5 8 -10 11 -10 2 0 4 5 4 10 0 6 -5 10 -11 10 -5 0
-7 -4 -4 -10z" />
    <path d="M1595 1080 c3 -5 8 -10 11 -10 3 0 2 5 -1 10 -3 6 -8 10 -11 10 -3 0
-2 -4 1 -10z" />
    <path d="M2934 1038 c-4 -7 -4 -10 1 -6 4 4 14 0 22 -10 l14 -17 -11 23 c-6
12 -13 22 -15 22 -2 0 -7 -6 -11 -12z" />
    <path d="M2655 1020 l-6 -10 16 0 16 0 -6 10 c-3 6 -8 10 -10 10 -2 0 -7 -4
-10 -10z" />
    <path d="M2693 1013 c0 -7 3 -11 5 -8 3 3 14 -2 24 -12 10 -9 18 -11 18 -6 0
6 -7 14 -16 17 -8 3 -13 10 -10 14 3 5 -1 9 -8 9 -7 0 -13 -6 -13 -14z" />
    <path d="M2775 1021 l-5 -10 19 2 c11 0 17 5 15 9 -7 11 -22 10 -29 -1z" />
    <path d="M1649 1003 l-14 -18 18 14 c16 13 21 21 13 21 -2 0 -10 -8 -17 -17z" />
    <path d="M1030 994 l0 -15 10 6 c6 4 8 11 5 16 -9 14 -15 11 -15 -7z" />
    <path d="M1260 999 c0 -5 5 -7 10 -4 6 3 10 8 10 11 0 2 -4 4 -10 4 -5 0 -10
-5 -10 -11z" />
    <path d="M1296 991 c-4 -5 1 -8 9 -7 21 3 31 16 12 16 -9 0 -18 -4 -21 -9z" />
    <path d="M2780 996 c0 -2 8 -10 18 -17 l17 -14 -14 18 c-13 16 -21 21 -21 13z" />
    <path d="M2934 988 l-7 -11 11 7 c12 7 16 16 8 16 -3 0 -8 -5 -12 -12z" />
    <path d="M2965 990 c-3 -5 -1 -10 4 -10 6 0 11 5 11 10 0 6 -2 10 -4 10 -3 0
-8 -4 -11 -10z" />
    <path d="M1675 980 c-3 -5 -12 -7 -20 -3 -18 6 -18 -4 -1 -36 l13 -24 7 12 7
11 -12 0 -11 0 16 25 c9 14 14 25 12 25 -3 0 -7 -4 -11 -10z" />
    <path d="M4207 975 c-4 -8 -3 -16 1 -19 4 -3 9 4 9 15 2 23 -3 25 -10 4z" />
    <path d="M1230 970 c8 -5 20 -10 25 -10 6 0 3 5 -5 10 -8 5 -19 10 -25 10 -5
0 -3 -5 5 -10z" />
    <path d="M3567 969 c7 -7 15 -10 18 -7 3 3 -2 9 -12 12 l-18 7 12 -12z" />
    <path d="M4006 968 c3 -5 10 -6 15 -3 13 9 11 12 -6 12 -8 0 -12 -4 -9 -9z" />
    <path d="M1030 954 l0 -15 10 6 c6 4 8 11 5 16 -9 14 -15 11 -15 -7z" />
    <path d="M1370 960 c0 -5 5 -10 10 -10 6 0 10 5 10 10 0 6 -4 10 -10 10 -5 0
-10 -4 -10 -10z" />
    <path d="M2764 958 l-7 -11 11 7 c7 4 12 9 12 12 0 8 -9 4 -16 -8z" />
    <path d="M2975 960 c3 -5 8 -10 11 -10 2 0 4 5 4 10 0 6 -5 10 -11 10 -5 0 -7
-4 -4 -10z" />
    <path d="M3483 963 c4 -3 10 -3 14 0 3 4 0 7 -7 7 -7 0 -10 -3 -7 -7z" />
    <path d="M4355 950 c10 -11 20 -18 23 -15 7 6 -18 35 -31 35 -5 0 -2 -9 8 -20z" />
    <path d="M2776 942 c-2 -4 -1 -14 3 -21 l9 -13 6 11 7 11 -11 0 c-6 0 -8 5 -5
10 3 6 4 10 1 10 -3 0 -7 -4 -10 -8z" />
    <path d="M2805 940 c3 -5 8 -10 11 -10 3 0 2 5 -1 10 -3 6 -8 10 -11 10 -3 0
-2 -4 1 -10z" />
    <path d="M3263 925 c0 -8 4 -12 9 -9 4 3 8 9 8 15 0 5 -4 9 -8 9 -5 0 -9 -7
-9 -15z" />
    <path d="M1410 922 c0 -5 7 -15 15 -22 l15 -12 0 10 c0 5 -7 15 -15 22 l-15
12 0 -10z" />
    <path d="M4354 910 l0 -20 10 10 10 10 -10 10 -10 10 0 -20z" />
    <path d="M1384 908 l-7 -11 11 7 c12 7 16 16 8 16 -3 0 -8 -5 -12 -12z" />
    <path d="M3670 908 l-15 -10 17 5 17 6 4 -12 c2 -7 7 -9 11 -6 4 3 1 11 -7 17
l-13 11 -14 -11z" />
    <path d="M3920 896 l0 -27 9 5 c10 7 9 31 -2 42 -4 4 -7 -5 -7 -20z" />
    <path d="M2795 901 c-3 -5 -2 -12 3 -15 5 -3 9 1 9 9 0 17 -3 19 -12 6z" />
    <path d="M3633 903 c4 -3 10 -3 14 0 3 4 0 7 -7 7 -7 0 -10 -3 -7 -7z" />
    <path d="M4381 897 l-11 -14 13 0 c8 0 14 6 14 14 0 7 -1 13 -2 13 -2 0 -8 -6
-14 -13z" />
    <path d="M3225 890 c3 -5 8 -10 11 -10 3 0 2 5 -1 10 -3 6 -8 10 -11 10 -3 0
-2 -4 1 -10z" />
    <path d="M1385 880 c3 -5 8 -10 11 -10 3 0 2 5 -1 10 -3 6 -8 10 -11 10 -3 0
-2 -4 1 -10z" />
    <path d="M3184 863 c-12 -16 -26 -39 -33 -53 l-12 -25 20 25 c11 14 21 28 21
33 0 4 5 6 11 5 6 -2 13 7 15 20 2 12 2 22 1 22 -2 0 -12 -12 -23 -27z" />
    <path d="M3605 860 c3 -5 8 -10 11 -10 3 0 2 5 -1 10 -3 6 -8 10 -11 10 -3 0
-2 -4 1 -10z" />
    <path d="M3939 860 l-13 -9 8 -8 9 -8 4 12 c2 7 11 9 19 6 8 -3 14 -3 14 0 0
10 -27 15 -41 7z" />
    <path d="M4375 860 c3 -5 8 -10 11 -10 3 0 2 5 -1 10 -3 6 -8 10 -11 10 -3 0
-2 -4 1 -10z" />
    <path d="M1460 860 c-1 -3 -3 -13 -5 -24 l-4 -19 11 11 c6 6 8 16 5 24 -3 7
-6 11 -7 8z" />
    <path d="M1690 846 c0 -9 5 -16 10 -16 6 0 10 4 10 9 0 6 -4 13 -10 16 l-10 6
0 -15z" />
    <path d="M3335 851 c-3 -5 -2 -12 3 -15 5 -3 9 1 9 9 0 17 -3 19 -12 6z" />
    <path d="M3516 844 l-6 -16 -18 7 -17 6 13 -12 12 -13 17 17 c9 9 14 19 11 22
-3 3 -8 -2 -12 -11z" />
    <path d="M3980 839 l-25 -20 21 10 c12 6 23 8 26 6 3 -3 5 2 5 10 0 8 -1 15
-1 15 -1 0 -12 -10 -26 -21z" />
    <path d="M3364 838 l-7 -11 11 7 c12 7 16 16 8 16 -3 0 -8 -5 -12 -12z" />
    <path d="M3577 826 c20 -26 27 -28 17 -3 -3 8 -12 18 -20 21 l-15 6 18 -24z" />
    <path d="M3730 835 c0 -8 2 -15 4 -15 2 0 6 7 10 15 3 8 1 15 -4 15 -6 0 -10
-7 -10 -15z" />
    <path d="M4193 843 c4 -3 10 -3 14 0 3 4 0 7 -7 7 -7 0 -10 -3 -7 -7z" />
    <path d="M4230 840 c0 -7 3 -10 7 -7 3 4 3 10 0 14 -4 3 -7 0 -7 -7z" />
    <path d="M4263 843 c4 -3 10 -3 14 0 3 4 0 7 -7 7 -7 0 -10 -3 -7 -7z" />
    <path d="M3203 828 c-13 -21 -12 -35 3 -35 l14 0 -10 12 -10 11 12 12 c7 7 9
12 6 12 -4 0 -10 -6 -15 -12z" />
    <path d="M3304 828 l-7 -11 11 7 c12 7 16 16 8 16 -3 0 -8 -5 -12 -12z" />
    <path d="M3405 830 c-3 -5 -1 -10 4 -10 6 0 11 5 11 10 0 6 -2 10 -4 10 -3 0
-8 -4 -11 -10z" />
    <path d="M4350 830 c0 -5 5 -10 10 -10 6 0 10 5 10 10 0 6 -4 10 -10 10 -5 0
-10 -4 -10 -10z" />
    <path d="M4204 818 c1 -7 11 -15 21 -16 l17 -4 -7 11 c-3 6 -10 9 -15 6 -4 -3
-11 0 -13 5 -3 6 -4 5 -3 -2z" />
    <path d="M1465 810 c-3 -5 -1 -10 4 -10 6 0 11 5 11 10 0 6 -2 10 -4 10 -3 0
-8 -4 -11 -10z" />
    <path d="M3343 803 l1 -22 13 11 c15 12 18 22 4 14 -5 -4 -11 0 -14 6 -3 7 -4
3 -4 -9z" />
    <path d="M3715 810 c3 -5 8 -10 11 -10 3 0 2 5 -1 10 -3 6 -8 10 -11 10 -3 0
-2 -4 1 -10z" />
    <path d="M3750 805 c-6 -8 -10 -19 -8 -24 1 -6 8 1 15 14 13 28 11 31 -7 10z" />
    <path d="M3983 813 c4 -3 10 -3 14 0 3 4 0 7 -7 7 -7 0 -10 -3 -7 -7z" />
    <path d="M4315 810 l-6 -10 15 6 c18 7 21 14 7 14 -6 0 -13 -4 -16 -10z" />
    <path d="M2924 779 l-7 -12 11 7 c5 3 13 0 15 -6 l5 -13 1 12 c1 17 -16 25
-25 12z" />
    <path d="M3570 787 c0 -10 29 -67 35 -67 2 0 1 7 -2 17 l-6 16 10 -6 11 -7 -2
15 c-1 8 -6 18 -10 22 -4 4 -7 4 -6 -2 5 -25 -2 -28 -15 -5 -8 14 -14 21 -15
17z" />
    <path d="M2747 773 c-4 -3 -7 -11 -7 -17 l0 -10 12 12 c6 6 9 14 7 17 -3 3 -9
2 -12 -2z" />
    <path d="M2805 770 c3 -5 8 -10 11 -10 3 0 2 5 -1 10 -3 6 -8 10 -11 10 -3 0
-2 -4 1 -10z" />
    <path d="M3720 770 c0 -7 3 -10 7 -7 3 4 3 10 0 14 -4 3 -7 0 -7 -7z" />
    <path d="M3770 776 c0 -2 7 -9 15 -16 l15 -13 -6 17 c-3 9 -10 16 -15 16 -5 0
-9 -2 -9 -4z" />
    <path d="M2965 760 c3 -5 8 -10 11 -10 2 0 4 5 4 10 0 6 -5 10 -11 10 -5 0 -7
-4 -4 -10z" />
    <path d="M2795 750 c3 -5 8 -10 11 -10 3 0 2 5 -1 10 -3 6 -8 10 -11 10 -3 0
-2 -4 1 -10z" />
    <path d="M3120 750 c0 -5 5 -10 11 -10 5 0 7 5 4 10 -3 6 -8 10 -11 10 -2 0
-4 -4 -4 -10z" />
    <path d="M2755 740 l-6 -10 15 6 c18 7 21 14 7 14 -6 0 -13 -4 -16 -10z" />
    <path d="M2955 740 c3 -5 8 -10 11 -10 3 0 2 5 -1 10 -3 6 -8 10 -11 10 -3 0
-2 -4 1 -10z" />
    <path d="M3305 740 c3 -5 8 -10 11 -10 3 0 2 5 -1 10 -3 6 -8 10 -11 10 -3 0
-2 -4 1 -10z" />
    <path d="M2434 728 l-7 -11 11 7 c12 7 16 16 8 16 -3 0 -8 -5 -12 -12z" />
    <path d="M2676 731 l-20 -8 11 -6 c6 -4 16 0 23 8 14 17 13 17 -14 6z" />
    <path d="M2714 718 l-7 -11 11 7 c7 4 12 9 12 12 0 8 -9 4 -16 -8z" />
    <path d="M2795 720 c3 -5 8 -10 11 -10 3 0 2 5 -1 10 -3 6 -8 10 -11 10 -3 0
-2 -4 1 -10z" />
    <path d="M3114 715 c3 -8 1 -15 -4 -15 -6 0 -10 -12 -9 -27 l0 -28 10 25 c16
39 19 60 7 60 -5 0 -8 -7 -4 -15z" />
    <path d="M2923 678 l-2 -21 12 12 11 11 -10 10 -10 10 -1 -22z" />
    <path d="M3240 690 l-15 -10 12 0 c6 0 15 5 18 10 8 12 4 12 -15 0z" />
    <path d="M3275 681 c-6 -11 9 -23 19 -14 9 9 7 23 -3 23 -6 0 -12 -4 -16 -9z" />
    <path d="M3250 660 c0 -7 3 -10 7 -7 3 4 3 10 0 14 -4 3 -7 0 -7 -7z" />
    <path d="M3559 653 l-14 -18 18 14 c9 7 17 15 17 17 0 8 -8 3 -21 -13z" />
    <path d="M1465 641 c-3 -5 -1 -12 5 -16 l10 -6 0 15 c0 18 -6 21 -15 7z" />
    <path d="M1691 613 c-12 -43 -14 -59 -5 -50 3 3 6 9 6 14 -1 4 7 16 15 26 l16
17 -14 0 -14 0 14 9 13 9 -10 6 -11 7 -10 -38z" />
    <path d="M3280 646 c0 -2 7 -7 16 -10 l15 -6 -6 10 c-6 10 -25 14 -25 6z" />
    <path d="M1740 630 c0 -7 3 -10 7 -7 3 4 3 10 0 14 -4 3 -7 0 -7 -7z" />
    <path d="M2865 620 l-6 -10 15 6 c18 7 21 14 7 14 -6 0 -13 -4 -16 -10z" />
    <path d="M3110 610 c-6 -11 -8 -20 -6 -20 3 0 10 9 16 20 6 11 8 20 6 20 -3 0
-10 -9 -16 -20z" />
    <path d="M1455 600 c3 -5 8 -10 11 -10 2 0 4 5 4 10 0 6 -5 10 -11 10 -5 0 -7
-4 -4 -10z" />
    <path d="M2820 595 l-12 -15 10 0 c12 0 26 19 19 26 -2 2 -10 -2 -17 -11z" />
    <path d="M2786 585 c-3 -8 -1 -15 4 -15 6 0 10 7 10 15 0 8 -2 15 -4 15 -2 0
-6 -7 -10 -15z" />
    <path d="M3775 591 c-6 -11 9 -23 19 -14 9 9 7 23 -3 23 -6 0 -12 -4 -16 -9z" />
    <path d="M1410 580 c0 -7 3 -10 7 -7 3 4 3 10 0 14 -4 3 -7 0 -7 -7z" />
    <path d="M2739 563 l-14 -18 16 12 c9 7 20 9 24 5 l8 -7 -7 13 c-4 6 -9 12
-10 12 -2 0 -10 -8 -17 -17z" />
    <path d="M3104 558 l-7 -11 11 7 c7 4 12 9 12 12 0 8 -9 4 -16 -8z" />
    <path d="M3726 558 c3 -4 9 -8 15 -8 5 0 9 4 9 8 0 5 -7 9 -15 9 -8 0 -12 -4
-9 -9z" />
    <path d="M1369 533 l-14 -18 16 12 c9 7 20 9 24 5 l8 -7 -7 13 c-4 6 -9 12
-10 12 -2 0 -10 -8 -17 -17z" />
    <path d="M1294 515 c0 -13 3 -22 7 -19 8 4 6 30 -2 38 -3 3 -5 -5 -5 -19z" />
    <path d="M3120 530 c0 -7 3 -10 7 -7 3 4 3 10 0 14 -4 3 -7 0 -7 -7z" />
    <path d="M3295 520 c3 -5 8 -10 11 -10 3 0 2 5 -1 10 -3 6 -8 10 -11 10 -3 0
-2 -4 1 -10z" />
    <path d="M1323 513 c4 -3 10 -3 14 0 3 4 0 7 -7 7 -7 0 -10 -3 -7 -7z" />
    <path d="M1385 510 c3 -5 8 -10 11 -10 3 0 2 5 -1 10 -3 6 -8 10 -11 10 -3 0
-2 -4 1 -10z" />
    <path d="M1650 501 l-11 -21 10 0 c10 0 24 30 17 37 -2 3 -9 -5 -16 -16z" />
    <path d="M1350 506 c0 -2 7 -7 16 -10 l15 -6 -6 10 c-6 10 -25 14 -25 6z" />
    <path d="M1300 470 l-11 -20 10 0 c21 0 60 23 55 32 l-6 9 -21 -18 -20 -18 6
18 c9 23 0 22 -13 -3z" />
    <path d="M1240 450 c0 -5 5 -10 11 -10 5 0 7 5 4 10 -3 6 -8 10 -11 10 -2 0
-4 -4 -4 -10z" />
    <path d="M1664 438 c0 -13 -4 -22 -10 -21 -6 1 -11 -5 -11 -13 l0 -14 24 21
23 22 -11 14 c-6 7 -13 13 -14 13 -1 0 -2 -10 -1 -22z" />
    <path d="M3628 444 c-16 -8 -28 -20 -28 -26 l0 -10 13 11 c8 6 17 8 20 4 4 -3
7 -1 7 6 0 7 4 10 8 7 5 -3 9 1 9 9 0 8 -1 15 -1 15 -1 -1 -13 -8 -28 -16z" />
    <path d="M3670 455 c0 -2 6 -8 13 -14 l14 -11 0 13 c0 8 -6 14 -14 14 -7 0
-13 -1 -13 -2z" />
    <path d="M4215 451 c-3 -5 -1 -12 5 -16 l10 -6 0 15 c0 18 -6 21 -15 7z" />
    <path d="M1214 438 l-7 -11 11 7 c7 4 12 9 12 12 0 8 -9 4 -16 -8z" />
    <path d="M1634 438 l-7 -11 11 7 c12 7 16 16 8 16 -3 0 -8 -5 -12 -12z" />
    <path d="M3137 435 c3 -8 9 -12 14 -9 12 7 11 11 -5 17 l-15 6 6 -14z" />
    <path d="M3714 438 l-7 -11 11 7 c12 7 16 16 8 16 -3 0 -8 -5 -12 -12z" />
    <path d="M1595 420 c-3 -5 -1 -10 4 -10 6 0 11 5 11 10 0 6 -2 10 -4 10 -3 0
-8 -4 -11 -10z" />
    <path d="M3324 418 l-7 -11 11 7 c7 4 12 9 12 12 0 8 -9 4 -16 -8z" />
    <path d="M3344 408 l-19 -23 23 19 c12 11 22 21 22 23 0 8 -8 2 -26 -19z" />
    <path d="M3730 420 l-15 -10 12 0 c6 0 15 5 18 10 8 12 4 12 -15 0z" />
    <path d="M3568 413 c-10 -2 -18 -8 -18 -13 0 -4 9 -6 20 -3 11 3 20 9 20 14 0
5 -1 8 -2 8 -2 -1 -11 -3 -20 -6z" />
    <path d="M3645 411 c-3 -6 -10 -9 -15 -6 -5 3 -11 2 -13 -2 -3 -5 10 -8 29 -9
19 0 31 2 27 5 -4 4 -11 10 -14 14 -4 5 -10 3 -14 -2z" />
    <path d="M4256 405 l-6 -15 20 10 c23 13 26 20 6 20 -8 0 -16 -7 -20 -15z" />
    <path d="M3164 398 l-7 -11 11 7 c7 4 12 9 12 12 0 8 -9 4 -16 -8z" />
    <path d="M3395 400 c3 -5 8 -10 11 -10 2 0 4 5 4 10 0 6 -5 10 -11 10 -5 0 -7
-4 -4 -10z" />
    <path d="M3740 391 l0 -12 -12 7 -11 7 8 -12 7 -13 11 11 c6 6 8 14 4 18 -4 3
-7 1 -7 -6z" />
    <path d="M4020 378 c0 -4 4 -8 9 -8 6 0 12 4 15 8 3 5 -1 9 -9 9 -8 0 -15 -4
-15 -9z" />
    <path d="M1526 355 l-28 -22 11 -7 11 -7 6 15 c3 9 10 13 15 10 5 -3 6 -11 3
-17 -4 -7 -4 -9 1 -5 4 4 13 4 19 -1 l11 -9 2 25 1 26 -8 -13 -8 -13 -12 8
-12 8 13 8 c7 4 11 10 9 13 -3 2 -18 -6 -34 -19z" />
    <path d="M3213 373 c4 -3 1 -13 -6 -22 l-12 -16 17 14 c16 12 16 31 1 31 -4 0
-3 -3 0 -7z" />
    <path d="M3245 370 l-6 -10 15 6 c18 7 21 14 7 14 -6 0 -13 -4 -16 -10z" />
    <path d="M4369 378 c-5 -25 -4 -34 4 -45 12 -17 27 -17 27 0 0 15 -29 56 -31
45z m18 -35 c-4 -3 -10 -3 -14 0 -3 4 0 7 7 7 7 0 10 -3 7 -7z" />
    <path d="M3746 354 c-4 -9 -4 -19 -1 -22 2 -3 7 3 11 12 4 9 4 19 1 22 -2 3
-7 -3 -11 -12z" />
    <path d="M4030 350 c0 -5 7 -7 15 -4 8 4 15 8 15 10 0 2 -7 4 -15 4 -8 0 -15
-4 -15 -10z" />
    <path d="M4075 350 c3 -5 8 -10 11 -10 3 0 2 5 -1 10 -3 6 -8 10 -11 10 -3 0
-2 -4 1 -10z" />
    <path d="M3233 343 c4 -3 10 -3 14 0 3 4 0 7 -7 7 -7 0 -10 -3 -7 -7z" />
    <path d="M3284 338 l-7 -11 11 7 c7 4 12 9 12 12 0 8 -9 4 -16 -8z" />
    <path d="M590 320 c0 -6 7 -10 15 -10 8 0 15 2 15 4 0 2 -7 6 -15 10 -8 3 -15
1 -15 -4z" />
    <path d="M375 310 c-3 -5 -1 -10 4 -10 6 0 11 5 11 10 0 6 -2 10 -4 10 -3 0
-8 -4 -11 -10z" />
    <path d="M1463 305 c0 -8 4 -12 9 -9 4 3 8 9 8 15 0 5 -4 9 -8 9 -5 0 -9 -7
-9 -15z" />
    <path d="M4080 310 c0 -7 3 -10 7 -7 3 4 3 10 0 14 -4 3 -7 0 -7 -7z" />
    <path d="M2366 295 c-11 -8 -14 -15 -8 -15 20 0 26 4 28 18 3 15 3 15 -20 -3z" />
    <path d="M3668 303 c6 -2 10 -9 6 -14 -3 -5 -1 -9 5 -9 17 0 21 18 5 24 -9 3
-19 6 -22 5 -4 0 -1 -3 6 -6z" />
    <path d="M4123 303 c3 -5 1 -15 -4 -23 l-9 -15 -9 15 c-6 8 -13 12 -16 8 -4
-4 5 -14 20 -24 l26 -17 12 12 12 12 -18 -7 -17 -6 6 16 c7 19 16 20 31 5 l11
-11 7 11 c3 6 3 10 -2 9 -4 -1 -19 4 -32 11 -13 7 -21 9 -18 4z" />
    <path d="M2324 288 l-7 -11 11 7 c12 7 16 16 8 16 -3 0 -8 -5 -12 -12z" />
    <path d="M3260 296 c0 -2 7 -7 16 -10 l15 -6 -6 10 c-6 10 -25 14 -25 6z" />
    <path d="M3550 290 l-15 -10 12 0 c6 0 15 5 18 10 8 12 4 12 -15 0z" />
    <path d="M4363 293 c4 -3 -1 -12 -11 -20 l-17 -14 23 11 c12 6 20 15 17 21 -4
5 -9 9 -12 9 -4 0 -3 -3 0 -7z" />
    <path d="M828 278 l13 -17 16 6 16 6 -8 -13 -8 -13 13 8 13 8 -7 -18 -6 -18
15 13 15 12 -23 18 -22 18 -3 -9 -4 -10 -16 13 -17 13 13 -17z" />
    <path d="M1510 280 c0 -7 3 -10 7 -7 3 4 3 10 0 14 -4 3 -7 0 -7 -7z" />
    <path d="M2270 280 c0 -5 4 -10 9 -10 6 0 13 5 16 10 l6 10 -15 0 c-9 0 -16
-4 -16 -10z" />
    <path d="M2395 268 l-20 -21 22 12 c23 12 40 31 26 30 -4 0 -17 -10 -28 -21z" />
    <path d="M3300 280 c0 -7 3 -10 7 -7 3 4 3 10 0 14 -4 3 -7 0 -7 -7z" />
    <path d="M3615 281 c-3 -5 -2 -12 3 -15 5 -3 9 1 9 9 0 17 -3 19 -12 6z" />
    <path d="M3640 280 c0 -7 3 -10 7 -7 3 4 3 10 0 14 -4 3 -7 0 -7 -7z" />
    <path d="M565 270 c-3 -5 -2 -10 4 -10 5 0 13 5 16 10 3 6 2 10 -4 10 -5 0
-13 -4 -16 -10z" />
    <path d="M610 270 c0 -7 3 -10 7 -7 3 4 3 10 0 14 -4 3 -7 0 -7 -7z" />
    <path d="M1342 273 c-12 -2 -20 -8 -17 -13 l6 -9 25 9 c14 6 30 7 36 4 l11 -7
-7 11 c-7 12 -13 13 -54 5z" />
    <path d="M1445 270 c3 -5 8 -10 11 -10 3 0 2 5 -1 10 -3 6 -8 10 -11 10 -3 0
-2 -4 1 -10z" />
    <path d="M3320 270 c0 -5 5 -10 11 -10 5 0 7 5 4 10 -3 6 -8 10 -11 10 -2 0
-4 -4 -4 -10z" />
    <path d="M3573 273 c4 -3 10 -3 14 0 3 4 0 7 -7 7 -7 0 -10 -3 -7 -7z" />
    <path d="M4293 273 c4 -3 10 -3 14 0 3 4 0 7 -7 7 -7 0 -10 -3 -7 -7z" />
    <path d="M2343 263 c4 -3 10 -3 14 0 3 4 0 7 -7 7 -7 0 -10 -3 -7 -7z" />
    <path d="M3355 260 c-3 -5 -1 -10 4 -10 6 0 11 5 11 10 0 6 -2 10 -4 10 -3 0
-8 -4 -11 -10z" />
    <path d="M330 250 c0 -7 3 -10 7 -7 3 4 3 10 0 14 -4 3 -7 0 -7 -7z" />
    <path d="M1275 250 c4 -6 11 -8 16 -5 14 9 11 15 -7 15 l-15 0 6 -10z" />
    <path d="M3385 250 l-6 -10 15 0 c9 0 16 5 16 10 0 6 -4 10 -9 10 -6 0 -13 -4
-16 -10z" />
    <path d="M3523 253 c4 -3 10 -3 14 0 3 4 0 7 -7 7 -7 0 -10 -3 -7 -7z" />
    <path d="M3583 253 c4 -3 10 -3 14 0 3 4 0 7 -7 7 -7 0 -10 -3 -7 -7z" />
    <path d="M4165 250 l-6 -10 16 0 16 0 -6 10 c-3 6 -8 10 -10 10 -2 0 -7 -4
-10 -10z" />
    <path d="M4295 250 l-6 -10 15 6 c18 7 21 14 7 14 -6 0 -13 -4 -16 -10z" />
    <path d="M376 238 c3 -5 10 -6 15 -3 13 9 11 12 -6 12 -8 0 -12 -4 -9 -9z" />
    <path d="M424 238 l-7 -11 11 7 c12 7 16 16 8 16 -3 0 -8 -5 -12 -12z" />
    <path d="M525 240 c-3 -5 -2 -10 4 -10 5 0 13 5 16 10 3 6 2 10 -4 10 -5 0
-13 -4 -16 -10z" />
    <path d="M814 238 l-7 -11 11 7 c7 4 12 9 12 12 0 8 -9 4 -16 -8z" />
    <path d="M1463 243 c4 -3 10 -3 14 0 3 4 0 7 -7 7 -7 0 -10 -3 -7 -7z" />
    <path d="M3473 243 c4 -3 10 -3 14 0 3 4 0 7 -7 7 -7 0 -10 -3 -7 -7z" />
    <path d="M1996 153 c-4 -5 -12 -9 -17 -9 -5 -1 -13 -2 -19 -3 -5 0 -14 -11
-20 -23 l-11 -23 14 18 c15 18 36 19 50 2 l9 -10 -5 17 -6 17 12 4 c7 2 9 7 6
11 -3 3 -9 3 -13 -1z" />
    <path d="M45 140 c3 -5 8 -10 11 -10 3 0 2 5 -1 10 -3 6 -8 10 -11 10 -3 0 -2
-4 1 -10z" />
    <path d="M24 108 l-7 -11 11 7 c12 7 16 16 8 16 -3 0 -8 -5 -12 -12z" />
    <path d="M36 91 c-4 -5 -2 -12 4 -16 5 -3 10 -3 10 1 0 3 7 1 15 -6 8 -7 13
-16 10 -20 -7 -11 35 -40 57 -40 22 0 23 13 3 30 -8 7 -12 17 -9 22 l6 10 -20
-11 -20 -11 -11 14 c-6 7 -7 17 -3 22 l7 9 -9 -7 c-5 -4 -15 -3 -22 3 l-12 10
-6 -10z m91 -55 c2 -2 0 -7 -6 -11 -6 -3 -11 -1 -11 5 0 6 -4 9 -9 5 -5 -3
-12 -1 -16 4 l-6 10 22 -4 c12 -2 24 -6 26 -9z" />
    <path d="M1935 68 c1 -13 6 -21 11 -19 10 3 7 21 -5 34 -4 4 -7 -3 -6 -15z" />
    <path d="M1880 56 l10 -10 10 10 10 10 -20 0 -20 0 10 -10z" />
    <path d="M1903 30 l-13 -19 15 5 c8 4 15 12 15 20 0 19 -3 18 -17 -6z" />
  </g>
  <g transform="translate(0.000000,143.000000) scale(0.100000,-0.100000)" fill="#cbcbcb" stroke="none">
    <path d="M1890 1427 c3 -3 23 -18 45 -33 l39 -26 -14 16 c-7 10 -27 24 -44 33
-17 9 -29 13 -26 10z" />
    <path d="M2300 1190 c-18 -12 -2 -12 25 0 l20 9 -15 0 c-8 0 -22 -4 -30 -9z" />
    <path d="M2683 1193 c4 -3 10 -3 14 0 3 4 0 7 -7 7 -7 0 -10 -3 -7 -7z" />
    <path d="M2743 1183 c4 -3 10 -3 14 0 3 4 0 7 -7 7 -7 0 -10 -3 -7 -7z" />
    <path d="M2790 1176 c0 -3 14 -12 30 -21 17 -9 30 -13 30 -11 0 3 -13 12 -30
21 -16 9 -30 13 -30 11z" />
    <path d="M570 1161 c0 -6 4 -13 10 -16 l10 -6 -6 15 c-7 18 -14 21 -14 7z" />
    <path d="M4056 1155 c-11 -8 -17 -17 -14 -20 2 -3 13 4 23 15 21 23 18 25 -9
5z" />
    <path d="M4150 1166 c0 -2 8 -10 18 -17 l17 -14 -14 18 c-13 16 -21 21 -21 13z" />
    <path d="M2250 1130 c0 -7 3 -10 7 -7 3 4 3 10 0 14 -4 3 -7 0 -7 -7z" />
    <path d="M1497 1119 c7 -7 15 -10 18 -7 3 3 -2 9 -12 12 l-18 7 12 -12z" />
    <path d="M2905 1091 c21 -22 41 -41 43 -41 8 0 -51 65 -67 74 -9 5 2 -10 24
-33z" />
    <path d="M4212 1020 c0 -19 2 -27 5 -17 2 9 2 25 0 35 -3 9 -5 1 -5 -18z" />
    <path d="M1032 723 l-2 -293 88 2 87 2 -82 3 -83 4 -3 287 -2 287 -3 -292z" />
    <path d="M2970 990 c0 -7 3 -10 7 -7 3 4 3 10 0 14 -4 3 -7 0 -7 -7z" />
    <path d="M3413 983 c4 -3 10 -3 14 0 3 4 0 7 -7 7 -7 0 -10 -3 -7 -7z" />
    <path d="M3498 983 c7 -3 16 -2 19 1 4 3 -2 6 -13 5 l-19 -1 13 -5z" />
    <path d="M3993 973 c4 -3 10 -3 14 0 3 4 0 7 -7 7 -7 0 -10 -3 -7 -7z" />
    <path d="M4308 973 c7 -3 16 -2 19 1 4 3 -2 6 -13 5 l-19 -1 13 -5z" />
    <path d="M2980 960 c0 -7 3 -10 7 -7 3 4 3 10 0 14 -4 3 -7 0 -7 -7z" />
    <path d="M3944 948 l-19 -23 23 19 c21 18 27 26 19 26 -2 0 -12 -10 -23 -22z" />
    <path d="M3600 956 c0 -2 7 -7 16 -10 l15 -6 -6 10 c-6 10 -25 14 -25 6z" />
    <path d="M4370 941 c5 -11 15 -23 21 -27 6 -3 3 5 -6 20 -20 30 -30 35 -15 7z" />
    <path d="M3244 921 c-22 -15 -48 -41 -59 -57 l-18 -29 42 42 43 43 12 -7 c6
-3 8 -3 4 2 -4 4 0 14 10 21 34 26 4 13 -34 -15z" />
    <path d="M3647 929 c7 -7 15 -10 18 -7 3 3 -2 9 -12 12 l-18 7 12 -12z" />
    <path d="M3920 910 c0 -7 3 -10 7 -7 3 4 3 10 0 14 -4 3 -7 0 -7 -7z" />
    <path d="M3705 890 c10 -11 20 -20 23 -20 3 0 -3 9 -13 20 -10 11 -20 20 -23
20 -3 0 3 -9 13 -20z" />
    <path d="M2992 870 c0 -19 2 -27 5 -17 2 9 2 25 0 35 -3 9 -5 1 -5 -18z" />
    <path d="M3920 880 c0 -17 17 -47 23 -40 2 3 -2 16 -10 30 l-13 25 0 -15z" />
    <path d="M3493 823 c4 -3 10 -3 14 0 3 4 0 7 -7 7 -7 0 -10 -3 -7 -7z" />
    <path d="M3973 813 c4 -3 10 -3 14 0 3 4 0 7 -7 7 -7 0 -10 -3 -7 -7z" />
    <path d="M1476 797 c3 -10 9 -15 12 -12 3 3 0 11 -7 18 l-12 12 7 -18z" />
    <path d="M2980 790 c0 -7 3 -10 7 -7 3 4 3 10 0 14 -4 3 -7 0 -7 -7z" />
    <path d="M1701 774 l1 -19 5 13 c3 7 2 16 -1 19 -3 4 -6 -2 -5 -13z" />
    <path d="M2970 760 c0 -7 3 -10 7 -7 3 4 3 10 0 14 -4 3 -7 0 -7 -7z" />
    <path d="M3791 744 l1 -19 5 13 c3 7 2 16 -1 19 -3 4 -6 -2 -5 -13z" />
    <path d="M2954 718 l-7 -11 11 7 c12 7 16 16 8 16 -3 0 -8 -5 -12 -12z" />
    <path d="M2911 657 l-35 -42 28 25 c24 22 52 60 44 60 -2 0 -18 -19 -37 -43z" />
    <path d="M3102 680 c0 -14 2 -19 5 -12 2 6 2 18 0 25 -3 6 -5 1 -5 -13z" />
    <path d="M1477 663 c-4 -3 -7 -11 -7 -17 l0 -10 12 12 c6 6 9 14 7 17 -3 3 -9
2 -12 -2z" />
    <path d="M2813 583 c4 -3 10 -3 14 0 3 4 0 7 -7 7 -7 0 -10 -3 -7 -7z" />
    <path d="M2775 570 l-6 -10 15 6 c18 7 21 14 7 14 -6 0 -13 -4 -16 -10z" />
    <path d="M3740 558 c0 -11 12 -10 30 2 l15 9 -23 -2 c-12 0 -22 -5 -22 -9z" />
    <path d="M3101 544 l1 -19 5 13 c3 7 2 16 -1 19 -3 4 -6 -2 -5 -13z" />
    <path d="M2678 543 c7 -3 16 -2 19 1 4 3 -2 6 -13 5 l-19 -1 13 -5z" />
    <path d="M3110 500 c0 -7 3 -10 7 -7 3 4 3 10 0 14 -4 3 -7 0 -7 -7z" />
    <path d="M3310 483 c0 -6 8 -17 18 -24 l17 -14 -15 20 c-8 11 -16 22 -17 24
-2 2 -3 0 -3 -6z" />
    <path d="M3658 453 c7 -3 16 -2 19 1 4 3 -2 6 -13 5 l-19 -1 13 -5z" />
    <path d="M3700 453 c8 -3 23 -12 33 -21 9 -8 17 -12 17 -7 0 12 -33 34 -50 34
l-15 -1 15 -5z" />
    <path d="M3355 430 c3 -5 8 -10 11 -10 3 0 2 5 -1 10 -3 6 -8 10 -11 10 -3 0
-2 -4 1 -10z" />
    <path d="M3604 428 l-7 -11 11 7 c7 4 12 9 12 12 0 8 -9 4 -16 -8z" />
    <path d="M3150 411 c0 -6 4 -13 10 -16 l10 -6 -6 15 c-7 18 -14 21 -14 7z" />
    <path d="M1569 393 l-14 -18 18 14 c16 13 21 21 13 21 -2 0 -10 -8 -17 -17z" />
    <path d="M3438 393 c7 -3 16 -2 19 1 4 3 -2 6 -13 5 l-19 -1 13 -5z" />
    <path d="M3498 393 c7 -3 16 -2 19 1 4 3 -2 6 -13 5 l-19 -1 13 -5z" />
    <path d="M4021 384 l1 -19 5 13 c3 7 2 16 -1 19 -3 4 -6 -2 -5 -13z" />
    <path d="M382 370 c0 -14 2 -19 5 -12 2 6 2 18 0 25 -3 6 -5 1 -5 -13z" />
    <path d="M3179 367 c16 -20 91 -81 91 -74 0 2 -24 24 -52 48 -29 24 -47 36
-39 26z" />
    <path d="M1510 345 l-13 -15 17 6 c9 3 16 10 16 15 0 13 -6 11 -20 -6z" />
    <path d="M4030 350 c0 -7 3 -10 7 -7 3 4 3 10 0 14 -4 3 -7 0 -7 -7z" />
    <path d="M3715 314 l-30 -26 33 22 c17 12 32 23 32 26 0 7 -4 5 -35 -22z" />
    <path d="M4049 313 c11 -22 30 -38 35 -32 2 2 -8 15 -21 29 l-25 25 11 -22z" />
    <path d="M2250 316 c0 -16 20 -44 37 -50 l18 -7 -25 28 c-14 15 -26 30 -27 32
-2 2 -3 1 -3 -3z" />
    <path d="M4384 308 l-7 -11 11 7 c7 4 12 9 12 12 0 8 -9 4 -16 -8z" />
    <path d="M2416 282 l-19 -27 24 22 c12 12 21 24 18 27 -2 2 -13 -8 -23 -22z" />
    <path d="M850 286 c0 -2 8 -10 18 -17 l17 -14 -14 18 c-13 16 -21 21 -21 13z" />
    <path d="M4364 278 l-7 -11 11 7 c7 4 12 9 12 12 0 8 -9 4 -16 -8z" />
    <path d="M410 261 c0 -5 7 -12 16 -15 l17 -6 -13 15 c-14 17 -20 19 -20 6z" />
    <path d="M3593 253 c4 -3 10 -3 14 0 3 4 0 7 -7 7 -7 0 -10 -3 -7 -7z" />
    <path d="M4123 253 c4 -3 10 -3 14 0 3 4 0 7 -7 7 -7 0 -10 -3 -7 -7z" />
    <path d="M525 240 l-6 -10 15 6 c18 7 21 14 7 14 -6 0 -13 -4 -16 -10z" />
    <path d="M3553 243 c4 -3 10 -3 14 0 3 4 0 7 -7 7 -7 0 -10 -3 -7 -7z" />
    <path d="M4168 243 c7 -3 16 -2 19 1 4 3 -2 6 -13 5 l-19 -1 13 -5z" />
    <path d="M4268 243 c7 -3 16 -2 19 1 4 3 -2 6 -13 5 l-19 -1 13 -5z" />
    <path d="M1990 110 c0 -7 3 -10 7 -7 3 4 3 10 0 14 -4 3 -7 0 -7 -7z" />
    <path d="M1949 54 l-24 -27 22 14 c13 7 25 19 27 26 8 19 2 16 -25 -13z" />
    <path d="M87 29 c7 -7 15 -10 18 -7 3 3 -2 9 -12 12 l-18 7 12 -12z" />
  </g>
  <g transform="translate(0.000000,143.000000) scale(0.100000,-0.100000)" fill="#ebebeb" stroke="none">
    <path d="M105 1420 c-3 -5 -2 -10 4 -10 5 0 13 5 16 10 3 6 2 10 -4 10 -5 0
-13 -4 -16 -10z" />
    <path d="M1981 1350 c14 -31 19 -36 19 -24 0 6 -7 19 -16 30 l-15 19 12 -25z" />
    <path d="M17 1333 c-4 -3 -7 -11 -7 -17 l0 -10 12 12 c6 6 9 14 7 17 -3 3 -9
2 -12 -2z" />
    <path d="M2005 720 c0 -322 1 -453 2 -292 2 160 2 424 0 585 -1 160 -2 29 -2
-293z" />
    <path d="M517 1199 c7 -7 15 -10 18 -7 3 3 -2 9 -12 12 l-18 7 12 -12z" />
    <path d="M900 1200 l-15 -10 12 0 c6 0 15 5 18 10 8 12 4 12 -15 0z" />
    <path d="M1293 1193 c4 -3 10 -3 14 0 3 4 0 7 -7 7 -7 0 -10 -3 -7 -7z" />
    <path d="M2313 1193 c4 -3 10 -3 14 0 3 4 0 7 -7 7 -7 0 -10 -3 -7 -7z" />
    <path d="M2783 1173 c4 -3 10 -3 14 0 3 4 0 7 -7 7 -7 0 -10 -3 -7 -7z" />
    <path d="M4073 1163 c4 -3 10 -3 14 0 3 4 0 7 -7 7 -7 0 -10 -3 -7 -7z" />
    <path d="M4143 1163 c4 -3 10 -3 14 0 3 4 0 7 -7 7 -7 0 -10 -3 -7 -7z" />
    <path d="M2895 1110 c3 -5 8 -10 11 -10 3 0 2 5 -1 10 -3 6 -8 10 -11 10 -3 0
-2 -4 1 -10z" />
    <path d="M1537 1089 c7 -7 15 -10 18 -7 3 3 -2 9 -12 12 l-18 7 12 -12z" />
    <path d="M1580 1051 c0 -5 5 -13 10 -16 6 -3 10 -2 10 4 0 5 -4 13 -10 16 -5
3 -10 2 -10 -4z" />
    <path d="M1240 1016 c0 -2 7 -7 16 -10 l15 -6 -6 10 c-6 10 -25 14 -25 6z" />
    <path d="M2633 1013 c4 -3 10 -3 14 0 3 4 0 7 -7 7 -7 0 -10 -3 -7 -7z" />
    <path d="M2725 990 c3 -5 8 -10 11 -10 3 0 2 5 -1 10 -3 6 -8 10 -11 10 -3 0
-2 -4 1 -10z" />
    <path d="M3383 983 c4 -3 10 -3 14 0 3 4 0 7 -7 7 -7 0 -10 -3 -7 -7z" />
    <path d="M3553 973 c4 -3 10 -3 14 0 3 4 0 7 -7 7 -7 0 -10 -3 -7 -7z" />
    <path d="M1375 960 c3 -5 8 -10 11 -10 2 0 4 5 4 10 0 6 -5 10 -11 10 -5 0 -7
-4 -4 -10z" />
    <path d="M4340 966 c0 -2 7 -7 16 -10 l15 -6 -6 10 c-6 10 -25 14 -25 6z" />
    <path d="M3660 926 c0 -2 7 -7 16 -10 l15 -6 -6 10 c-6 10 -25 14 -25 6z" />
    <path d="M2990 910 c0 -7 3 -10 7 -7 3 4 3 10 0 14 -4 3 -7 0 -7 -7z" />
    <path d="M3220 905 c-7 -8 -9 -15 -6 -15 4 0 14 7 22 15 9 8 11 15 6 15 -5 0
-15 -7 -22 -15z" />
    <path d="M1675 888 c4 -13 11 -27 16 -33 5 -5 4 5 -2 23 -12 36 -24 44 -14 10z" />
    <path d="M4365 840 c-10 -11 -13 -20 -8 -20 13 0 38 29 31 35 -3 3 -13 -4 -23
-15z" />
    <path d="M1460 841 c0 -5 5 -13 10 -16 6 -3 10 -2 10 4 0 5 -4 13 -10 16 -5 3
-10 2 -10 -4z" />
    <path d="M3165 839 c-4 -6 -5 -12 -2 -15 2 -3 7 2 10 11 7 17 1 20 -8 4z" />
    <path d="M3940 835 c7 -8 17 -15 22 -15 l10 0 -12 15 c-7 8 -17 15 -22 15
l-10 0 12 -15z" />
    <path d="M4303 803 c4 -3 10 -3 14 0 3 4 0 7 -7 7 -7 0 -10 -3 -7 -7z" />
    <path d="M2745 770 c-10 -11 -14 -20 -9 -20 5 0 15 9 22 20 7 11 11 20 9 20
-2 0 -12 -9 -22 -20z" />
    <path d="M1700 750 c0 -7 3 -10 7 -7 3 4 3 10 0 14 -4 3 -7 0 -7 -7z" />
    <path d="M2693 733 c4 -3 10 -3 14 0 3 4 0 7 -7 7 -7 0 -10 -3 -7 -7z" />
    <path d="M2960 730 c0 -7 3 -10 7 -7 3 4 3 10 0 14 -4 3 -7 0 -7 -7z" />
    <path d="M3800 710 c0 -7 3 -10 7 -7 3 4 3 10 0 14 -4 3 -7 0 -7 -7z" />
    <path d="M2824 588 l-7 -11 11 7 c7 4 12 9 12 12 0 8 -9 4 -16 -8z" />
    <path d="M2763 563 c4 -3 10 -3 14 0 3 4 0 7 -7 7 -7 0 -10 -3 -7 -7z" />
    <path d="M3100 530 c0 -7 3 -10 7 -7 3 4 3 10 0 14 -4 3 -7 0 -7 -7z" />
    <path d="M3300 510 c0 -7 3 -10 7 -7 3 4 3 10 0 14 -4 3 -7 0 -7 -7z" />
    <path d="M1365 490 c-3 -5 -2 -10 4 -10 5 0 13 5 16 10 3 6 2 10 -4 10 -5 0
-13 -4 -16 -10z" />
    <path d="M4216 457 c3 -10 9 -15 12 -12 3 3 0 11 -7 18 l-12 12 7 -18z" />
    <path d="M3336 445 c4 -8 11 -15 16 -15 l10 0 -12 15 c-7 8 -14 15 -16 15 -2
0 -1 -7 2 -15z" />
    <path d="M1607 443 c-4 -3 -7 -11 -7 -17 l0 -10 12 12 c6 6 9 14 7 17 -3 3 -9
2 -12 -2z" />
    <path d="M3740 430 c0 -7 3 -10 7 -7 3 4 3 10 0 14 -4 3 -7 0 -7 -7z" />
    <path d="M4313 413 c4 -3 10 -3 14 0 3 4 0 7 -7 7 -7 0 -10 -3 -7 -7z" />
    <path d="M4345 400 c3 -5 11 -10 16 -10 6 0 7 5 4 10 -3 6 -11 10 -16 10 -6 0
-7 -4 -4 -10z" />
    <path d="M3463 393 c9 -2 23 -2 30 0 6 3 -1 5 -18 5 l-30 0 18 -5z" />
    <path d="M3170 380 c0 -7 3 -10 7 -7 3 4 3 10 0 14 -4 3 -7 0 -7 -7z" />
    <path d="M1520 349 c0 -5 5 -7 10 -4 6 3 10 8 10 11 0 2 -4 4 -10 4 -5 0 -10
-5 -10 -11z" />
    <path d="M3746 343 l-7 -18 12 12 c7 7 10 15 7 18 -3 3 -9 -2 -12 -12z" />
    <path d="M383 299 c0 -8 9 -23 19 -33 23 -25 23 -8 -1 23 l-18 23 0 -13z" />
    <path d="M2424 288 l-7 -11 11 7 c7 4 12 9 12 12 0 8 -9 4 -16 -8z" />
    <path d="M3680 290 l-15 -10 12 0 c6 0 15 5 18 10 8 12 4 12 -15 0z" />
    <path d="M2265 280 c3 -5 8 -10 11 -10 3 0 2 5 -1 10 -3 6 -8 10 -11 10 -3 0
-2 -4 1 -10z" />
    <path d="M874 262 c3 -5 17 -12 32 -15 30 -5 20 8 -15 18 l-24 7 7 -10z" />
    <path d="M2343 243 c4 -3 10 -3 14 0 3 4 0 7 -7 7 -7 0 -10 -3 -7 -7z" />
    <path d="M3383 243 c4 -3 10 -3 14 0 3 4 0 7 -7 7 -7 0 -10 -3 -7 -7z" />
    <path d="M4153 243 c4 -3 10 -3 14 0 3 4 0 7 -7 7 -7 0 -10 -3 -7 -7z" />
    <path d="M4283 243 c4 -3 10 -3 14 0 3 4 0 7 -7 7 -7 0 -10 -3 -7 -7z" />
    <path d="M10 121 c0 -6 4 -13 10 -16 l10 -6 -6 15 c-7 18 -14 21 -14 7z" />
    <path d="M1953 53 c4 -3 10 -3 14 0 3 4 0 7 -7 7 -7 0 -10 -3 -7 -7z" />
    <path d="M107 19 c7 -7 15 -10 18 -7 3 3 -2 9 -12 12 l-18 7 12 -12z" />
    <path d="M1883 13 c4 -3 10 -3 14 0 3 4 0 7 -7 7 -7 0 -10 -3 -7 -7z" />
  </g>
  <g transform="translate(0.000000,143.000000) scale(0.100000,-0.100000)" fill="#bdbdbd" stroke="none">
    <path d="M50 1385 c-13 -14 -19 -25 -13 -25 12 0 48 38 41 45 -2 3 -15 -6 -28
-20z" />
    <path d="M15 1319 c-4 -6 -5 -12 -2 -15 2 -3 7 2 10 11 7 17 1 20 -8 4z" />
    <path d="M409 1173 l-14 -18 18 14 c16 13 21 21 13 21 -2 0 -10 -8 -17 -17z" />
    <path d="M1377 1179 c7 -7 15 -10 18 -7 3 3 -2 9 -12 12 l-18 7 12 -12z" />
    <path d="M1427 1159 c7 -7 15 -10 18 -7 3 3 -2 9 -12 12 l-18 7 12 -12z" />
    <path d="M580 1140 c0 -7 3 -10 7 -7 3 4 3 10 0 14 -4 3 -7 0 -7 -7z" />
    <path d="M381 1114 l1 -19 5 13 c3 7 2 16 -1 19 -3 4 -6 -2 -5 -13z" />
    <path d="M1590 1036 c0 -2 7 -9 15 -16 l15 -13 -6 17 c-3 9 -10 16 -15 16 -5
0 -9 -2 -9 -4z" />
    <path d="M1360 976 c0 -2 8 -10 18 -17 l17 -14 -14 18 c-13 16 -21 21 -21 13z" />
    <path d="M1670 910 c0 -7 3 -10 7 -7 3 4 3 10 0 14 -4 3 -7 0 -7 -7z" />
    <path d="M3685 910 c3 -5 8 -10 11 -10 3 0 2 5 -1 10 -3 6 -8 10 -11 10 -3 0
-2 -4 1 -10z" />
    <path d="M1680 880 c0 -7 3 -10 7 -7 3 4 3 10 0 14 -4 3 -7 0 -7 -7z" />
    <path d="M3403 823 c4 -3 10 -3 14 0 3 4 0 7 -7 7 -7 0 -10 -3 -7 -7z" />
    <path d="M1700 790 c0 -7 3 -10 7 -7 3 4 3 10 0 14 -4 3 -7 0 -7 -7z" />
    <path d="M2725 750 l-6 -10 15 6 c18 7 21 14 7 14 -6 0 -13 -4 -16 -10z" />
    <path d="M1660 519 c-7 -11 -10 -23 -7 -25 2 -2 9 7 15 21 14 30 7 33 -8 4z" />
    <path d="M1584 408 l-7 -11 11 7 c12 7 16 16 8 16 -3 0 -8 -5 -12 -12z" />
    <path d="M381 324 l1 -19 5 13 c3 7 2 16 -1 19 -3 4 -6 -2 -5 -13z" />
    <path d="M831 324 l1 -19 5 13 c3 7 2 16 -1 19 -3 4 -6 -2 -5 -13z" />
    <path d="M2440 330 c0 -7 3 -10 7 -7 3 4 3 10 0 14 -4 3 -7 0 -7 -7z" />
    <path d="M3235 320 c3 -5 8 -10 11 -10 3 0 2 5 -1 10 -3 6 -8 10 -11 10 -3 0
-2 -4 1 -10z" />
    <path d="M1415 290 l-6 -10 15 6 c18 7 21 14 7 14 -6 0 -13 -4 -16 -10z" />
    <path d="M4313 253 c4 -3 10 -3 14 0 3 4 0 7 -7 7 -7 0 -10 -3 -7 -7z" />
    <path d="M149 7 c4 -4 394 -6 867 -5 l859 3 -867 5 c-477 3 -864 2 -859 -3z" />
  </g>
  <g transform="translate(0.000000,143.000000) scale(0.100000,-0.100000)" fill="#d1d1d1" stroke="none">
    <path d="M85 1410 c-3 -5 -2 -10 4 -10 5 0 13 5 16 10 3 6 2 10 -4 10 -5 0
-13 -4 -16 -10z" />
    <path d="M883 1193 c4 -3 10 -3 14 0 3 4 0 7 -7 7 -7 0 -10 -3 -7 -7z" />
    <path d="M1303 1193 c4 -3 10 -3 14 0 3 4 0 7 -7 7 -7 0 -10 -3 -7 -7z" />
    <path d="M2698 1193 c7 -3 16 -2 19 1 4 3 -2 6 -13 5 l-19 -1 13 -5z" />
    <path d="M2274 1168 l-19 -23 23 19 c21 18 27 26 19 26 -2 0 -12 -10 -23 -22z" />
    <path d="M1447 1149 c7 -7 15 -10 18 -7 3 3 -2 9 -12 12 l-18 7 12 -12z" />
    <path d="M4039 1133 l-14 -18 18 14 c9 7 17 15 17 17 0 8 -8 3 -21 -13z" />
    <path d="M4175 1140 c3 -5 8 -10 11 -10 2 0 4 5 4 10 0 6 -5 10 -11 10 -5 0
-7 -4 -4 -10z" />
    <path d="M830 1130 c0 -7 3 -10 7 -7 3 4 3 10 0 14 -4 3 -7 0 -7 -7z" />
    <path d="M2865 1130 c3 -5 8 -10 11 -10 3 0 2 5 -1 10 -3 6 -8 10 -11 10 -3 0
-2 -4 1 -10z" />
    <path d="M385 745 c0 -203 1 -285 2 -182 2 104 2 270 0 370 -1 100 -2 16 -2
-188z" />
    <path d="M2900 1100 c0 -7 3 -10 7 -7 3 4 3 10 0 14 -4 3 -7 0 -7 -7z" />
    <path d="M4212 1060 c0 -14 2 -19 5 -12 2 6 2 18 0 25 -3 6 -5 1 -5 -13z" />
    <path d="M2940 1051 c0 -6 4 -13 10 -16 l10 -6 -6 15 c-7 18 -14 21 -14 7z" />
    <path d="M1030 1009 c0 -5 5 -7 10 -4 6 3 10 8 10 11 0 2 -4 4 -10 4 -5 0 -10
-5 -10 -11z" />
    <path d="M1228 1013 c7 -3 16 -2 19 1 4 3 -2 6 -13 5 l-19 -1 13 -5z" />
    <path d="M2648 1013 c7 -3 16 -2 19 1 4 3 -2 6 -13 5 l-19 -1 13 -5z" />
    <path d="M1330 985 c14 -8 30 -14 35 -14 6 0 -1 6 -15 14 -14 8 -29 14 -35 14
-5 0 1 -6 15 -14z" />
    <path d="M4210 990 c0 -7 3 -10 7 -7 3 4 3 10 0 14 -4 3 -7 0 -7 -7z" />
    <path d="M3398 983 c7 -3 16 -2 19 1 4 3 -2 6 -13 5 l-19 -1 13 -5z" />
    <path d="M2990 900 c0 -7 3 -10 7 -7 3 4 3 10 0 14 -4 3 -7 0 -7 -7z" />
    <path d="M1456 857 c3 -10 9 -15 12 -12 3 3 0 11 -7 18 l-12 12 7 -18z" />
    <path d="M3745 840 c3 -5 8 -10 11 -10 3 0 2 5 -1 10 -3 6 -8 10 -11 10 -3 0
-2 -4 1 -10z" />
    <path d="M3940 842 c0 -4 10 -13 23 -21 l22 -14 -19 22 c-20 22 -26 25 -26 13z" />
    <path d="M3154 818 l-7 -11 11 7 c7 4 12 9 12 12 0 8 -9 4 -16 -8z" />
    <path d="M2663 723 c4 -3 10 -3 14 0 3 4 0 7 -7 7 -7 0 -10 -3 -7 -7z" />
    <path d="M3110 720 c0 -7 3 -10 7 -7 3 4 3 10 0 14 -4 3 -7 0 -7 -7z" />
    <path d="M3800 700 c0 -7 3 -10 7 -7 3 4 3 10 0 14 -4 3 -7 0 -7 -7z" />
    <path d="M1679 574 c-5 -15 -8 -29 -5 -31 2 -2 8 10 14 26 13 38 5 41 -9 5z" />
    <path d="M3774 568 l-7 -11 11 7 c7 4 12 9 12 12 0 8 -9 4 -16 -8z" />
    <path d="M3740 560 c0 -7 3 -10 7 -7 3 4 3 10 0 14 -4 3 -7 0 -7 -7z" />
    <path d="M2723 553 c4 -3 10 -3 14 0 3 4 0 7 -7 7 -7 0 -10 -3 -7 -7z" />
    <path d="M2663 543 c4 -3 10 -3 14 0 3 4 0 7 -7 7 -7 0 -10 -3 -7 -7z" />
    <path d="M1350 480 l-15 -10 12 0 c6 0 15 5 18 10 8 12 4 12 -15 0z" />
    <path d="M3120 470 c0 -7 3 -10 7 -7 3 4 3 10 0 14 -4 3 -7 0 -7 -7z" />
    <path d="M1030 450 c0 -7 3 -10 7 -7 3 4 3 10 0 14 -4 3 -7 0 -7 -7z" />
    <path d="M3620 440 l-15 -10 12 0 c6 0 15 5 18 10 8 12 4 12 -15 0z" />
    <path d="M1198 433 c7 -3 16 -2 19 1 4 3 -2 6 -13 5 l-19 -1 13 -5z" />
    <path d="M3145 420 c3 -5 8 -10 11 -10 3 0 2 5 -1 10 -3 6 -8 10 -11 10 -3 0
-2 -4 1 -10z" />
    <path d="M3393 403 c4 -3 10 -3 14 0 3 4 0 7 -7 7 -7 0 -10 -3 -7 -7z" />
    <path d="M381 344 l1 -19 5 13 c3 7 2 16 -1 19 -3 4 -6 -2 -5 -13z" />
    <path d="M4040 330 c0 -7 3 -10 7 -7 3 4 3 10 0 14 -4 3 -7 0 -7 -7z" />
    <path d="M1444 304 l-19 -15 25 12 c31 14 36 19 24 19 -6 0 -19 -7 -30 -16z" />
    <path d="M393 275 c0 -8 4 -15 9 -15 4 0 8 4 8 9 0 6 -4 12 -8 15 -5 3 -9 -1
-9 -9z" />
    <path d="M2295 260 c3 -5 8 -10 11 -10 2 0 4 5 4 10 0 6 -5 10 -11 10 -5 0 -7
-4 -4 -10z" />
    <path d="M468 233 c7 -3 16 -2 19 1 4 3 -2 6 -13 5 l-19 -1 13 -5z" />
    <path d="M10 130 c0 -7 3 -10 7 -7 3 4 3 10 0 14 -4 3 -7 0 -7 -7z" />
    <path d="M20 101 c0 -6 4 -13 10 -16 l10 -6 -6 15 c-7 18 -14 21 -14 7z" />
    <path d="M1980 90 c-6 -11 -8 -20 -6 -20 3 0 10 9 16 20 6 11 8 20 6 20 -3 0
-10 -9 -16 -20z" />
  </g>
  <g transform="translate(0.000000,143.000000) scale(0.100000,-0.100000)" fill="#a5a5a5" stroke="none">
    <path d="M15 720 c0 -322 1 -453 2 -292 2 160 2 424 0 585 -1 160 -2 29 -2
-293z" />
    <path d="M424 1188 l-7 -11 11 7 c12 7 16 16 8 16 -3 0 -8 -5 -12 -12z" />
    <path d="M1620 995 c0 -2 6 -8 13 -14 l14 -11 0 13 c0 8 -6 14 -14 14 -7 0
-13 -1 -13 -2z" />
    <path d="M1691 844 l1 -19 5 13 c3 7 2 16 -1 19 -3 4 -6 -2 -5 -13z" />
    <path d="M4370 845 l-12 -15 10 0 c5 0 12 7 16 15 3 8 4 15 2 15 -2 0 -9 -7
-16 -15z" />
    <path d="M4210 799 c0 -5 5 -7 10 -4 6 3 10 8 10 11 0 2 -4 4 -10 4 -5 0 -10
-5 -10 -11z" />
    <path d="M1701 664 l1 -19 5 13 c3 7 2 16 -1 19 -3 4 -6 -2 -5 -13z" />
    <path d="M4213 500 c0 -25 2 -35 4 -22 2 12 2 32 0 45 -2 12 -4 2 -4 -23z" />
    <path d="M1619 453 l-14 -18 18 14 c16 13 21 21 13 21 -2 0 -10 -8 -17 -17z" />
    <path d="M4230 425 c7 -9 15 -13 17 -11 7 7 -7 26 -19 26 l-10 0 12 -15z" />
    <path d="M1594 418 l-7 -11 11 7 c12 7 16 16 8 16 -3 0 -8 -5 -12 -12z" />
    <path d="M4288 413 c7 -3 16 -2 19 1 4 3 -2 6 -13 5 l-19 -1 13 -5z" />
    <path d="M4372 370 c12 -16 23 -30 25 -30 2 0 -3 14 -12 30 -9 17 -20 30 -26
30 -5 0 0 -13 13 -30z" />
    <path d="M830 310 c0 -7 3 -10 7 -7 3 4 3 10 0 14 -4 3 -7 0 -7 -7z" />
    <path d="M1398 283 c7 -3 16 -2 19 1 4 3 -2 6 -13 5 l-19 -1 13 -5z" />
    <path d="M888 253 c7 -3 16 -2 19 1 4 3 -2 6 -13 5 l-19 -1 13 -5z" />
    <path d="M30 81 c0 -5 5 -13 10 -16 6 -3 10 -2 10 4 0 5 -4 13 -10 16 -5 3
-10 2 -10 -4z" />
    <path d="M70 40 c0 -5 5 -10 11 -10 5 0 7 5 4 10 -3 6 -8 10 -11 10 -2 0 -4
-4 -4 -10z" />
  </g>
  <g transform="translate(0.000000,143.000000) scale(0.100000,-0.100000)" fill="#656565" stroke="none">
    <path d="M1878 1423 c7 -3 16 -2 19 1 4 3 -2 6 -13 5 l-19 -1 13 -5z" />
    <path d="M510 1210 l-15 -10 12 0 c6 0 15 5 18 10 8 12 4 12 -15 0z" />
    <path d="M1248 1203 c7 -3 16 -2 19 1 4 3 -2 6 -13 5 l-19 -1 13 -5z" />
    <path d="M433 1193 c4 -3 10 -3 14 0 3 4 0 7 -7 7 -7 0 -10 -3 -7 -7z" />
    <path d="M385 1139 c-4 -6 -5 -12 -2 -15 2 -3 7 2 10 11 7 17 1 20 -8 4z" />
    <path d="M1515 1110 c3 -5 8 -10 11 -10 3 0 2 5 -1 10 -3 6 -8 10 -11 10 -3 0
-2 -4 1 -10z" />
    <path d="M825 730 c0 -212 1 -298 2 -193 2 106 2 280 0 385 -1 106 -2 20 -2
-192z" />
    <path d="M1616 1007 c3 -10 9 -15 12 -12 3 3 0 11 -7 18 l-12 12 7 -18z" />
    <path d="M4390 910 c0 -7 3 -10 7 -7 3 4 3 10 0 14 -4 3 -7 0 -7 -7z" />
    <path d="M1481 754 l1 -19 5 13 c3 7 2 16 -1 19 -3 4 -6 -2 -5 -13z" />
    <path d="M1701 644 l1 -19 5 13 c3 7 2 16 -1 19 -3 4 -6 -2 -5 -13z" />
    <path d="M1680 570 c0 -7 3 -10 7 -7 3 4 3 10 0 14 -4 3 -7 0 -7 -7z" />
    <path d="M1435 559 c-4 -6 -5 -12 -2 -15 2 -3 7 2 10 11 7 17 1 20 -8 4z" />
    <path d="M4386 335 c-3 -8 -1 -15 4 -15 6 0 10 7 10 15 0 8 -2 15 -4 15 -2 0
-6 -7 -10 -15z" />
    <path d="M591 324 l1 -19 5 13 c3 7 2 16 -1 19 -3 4 -6 -2 -5 -13z" />
    <path d="M1380 280 l-15 -10 12 0 c6 0 15 5 18 10 8 12 4 12 -15 0z" />
    <path d="M544 248 l-7 -11 11 7 c12 7 16 16 8 16 -3 0 -8 -5 -12 -12z" />
    <path d="M1003 243 c43 -2 110 -2 150 0 40 1 5 3 -78 3 -82 0 -115 -2 -72 -3z" />
  </g>
  <g transform="translate(0.000000,143.000000) scale(0.100000,-0.100000)" fill="#c4c4c4" stroke="none">
    <path d="M1965 1370 c3 -5 8 -10 11 -10 3 0 2 5 -1 10 -3 6 -8 10 -11 10 -3 0
-2 -4 1 -10z" />
    <path d="M25 1349 c-4 -6 -5 -12 -2 -15 2 -3 7 2 10 11 7 17 1 20 -8 4z" />
    <path d="M444 1198 l-7 -11 11 7 c12 7 16 16 8 16 -3 0 -8 -5 -12 -12z" />
    <path d="M874 1188 l-7 -11 11 7 c7 4 12 9 12 12 0 8 -9 4 -16 -8z" />
    <path d="M4185 1130 c3 -5 8 -10 11 -10 3 0 2 5 -1 10 -3 6 -8 10 -11 10 -3 0
-2 -4 1 -10z" />
    <path d="M1525 1100 c3 -5 8 -10 11 -10 3 0 2 5 -1 10 -3 6 -8 10 -11 10 -3 0
-2 -4 1 -10z" />
    <path d="M1034 1008 l-7 -11 11 7 c12 7 16 16 8 16 -3 0 -8 -5 -12 -12z" />
    <path d="M1213 1013 c4 -3 10 -3 14 0 3 4 0 7 -7 7 -7 0 -10 -3 -7 -7z" />
    <path d="M2960 1010 c0 -7 3 -10 7 -7 3 4 3 10 0 14 -4 3 -7 0 -7 -7z" />
    <path d="M3353 973 c4 -3 10 -3 14 0 3 4 0 7 -7 7 -7 0 -10 -3 -7 -7z" />
    <path d="M3323 963 c4 -3 10 -3 14 0 3 4 0 7 -7 7 -7 0 -10 -3 -7 -7z" />
    <path d="M3213 893 c4 -3 10 -3 14 0 3 4 0 7 -7 7 -7 0 -10 -3 -7 -7z" />
    <path d="M3725 870 c3 -5 8 -10 11 -10 3 0 2 5 -1 10 -3 6 -8 10 -11 10 -3 0
-2 -4 1 -10z" />
    <path d="M1466 827 c3 -10 9 -15 12 -12 3 3 0 11 -7 18 l-12 12 7 -18z" />
    <path d="M4346 825 c-11 -8 -16 -15 -10 -15 5 0 18 7 28 15 11 8 16 15 10 15
-5 0 -18 -7 -28 -15z" />
    <path d="M1700 680 c0 -7 3 -10 7 -7 3 4 3 10 0 14 -4 3 -7 0 -7 -7z" />
    <path d="M3290 680 c0 -7 3 -10 7 -7 3 4 3 10 0 14 -4 3 -7 0 -7 -7z" />
    <path d="M2854 608 l-7 -11 11 7 c7 4 12 9 12 12 0 8 -9 4 -16 -8z" />
    <path d="M3791 593 l-11 -28 15 19 c8 11 15 23 15 28 0 15 -7 8 -19 -19z" />
    <path d="M1419 533 l-14 -18 18 14 c16 13 21 21 13 21 -2 0 -10 -8 -17 -17z" />
    <path d="M1380 500 l-15 -10 12 0 c6 0 15 5 18 10 8 12 4 12 -15 0z" />
    <path d="M1610 440 c0 -7 3 -10 7 -7 3 4 3 10 0 14 -4 3 -7 0 -7 -7z" />
    <path d="M3745 420 c3 -5 8 -10 11 -10 3 0 2 5 -1 10 -3 6 -8 10 -11 10 -3 0
-2 -4 1 -10z" />
    <path d="M3385 410 c3 -5 8 -10 11 -10 3 0 2 5 -1 10 -3 6 -8 10 -11 10 -3 0
-2 -4 1 -10z" />
    <path d="M4303 413 c4 -3 10 -3 14 0 3 4 0 7 -7 7 -7 0 -10 -3 -7 -7z" />
    <path d="M3553 403 c4 -3 10 -3 14 0 3 4 0 7 -7 7 -7 0 -10 -3 -7 -7z" />
    <path d="M3165 390 c3 -5 8 -10 11 -10 3 0 2 5 -1 10 -3 6 -8 10 -11 10 -3 0
-2 -4 1 -10z" />
    <path d="M4366 387 c3 -10 9 -15 12 -12 3 3 0 11 -7 18 l-12 12 7 -18z" />
    <path d="M1554 378 l-7 -11 11 7 c12 7 16 16 8 16 -3 0 -8 -5 -12 -12z" />
    <path d="M1475 320 l-6 -10 15 6 c18 7 21 14 7 14 -6 0 -13 -4 -16 -10z" />
    <path d="M3663 283 c4 -3 10 -3 14 0 3 4 0 7 -7 7 -7 0 -10 -3 -7 -7z" />
    <path d="M4080 286 c0 -2 8 -10 18 -17 l17 -14 -14 18 c-13 16 -21 21 -21 13z" />
    <path d="M3323 263 c4 -3 10 -3 14 0 3 4 0 7 -7 7 -7 0 -10 -3 -7 -7z" />
    <path d="M1268 253 c7 -3 16 -2 19 1 4 3 -2 6 -13 5 l-19 -1 13 -5z" />
    <path d="M3353 253 c4 -3 10 -3 14 0 3 4 0 7 -7 7 -7 0 -10 -3 -7 -7z" />
    <path d="M498 233 c7 -3 16 -2 19 1 4 3 -2 6 -13 5 l-19 -1 13 -5z" />
    <path d="M49 57 c26 -28 31 -32 31 -19 0 4 -13 16 -28 26 l-27 19 24 -26z" />
    <path d="M123 13 c4 -3 10 -3 14 0 3 4 0 7 -7 7 -7 0 -10 -3 -7 -7z" />
    <path d="M1865 10 l-6 -10 15 6 c18 7 21 14 7 14 -6 0 -13 -4 -16 -10z" />
  </g>
  <g transform="translate(0.000000,143.000000) scale(0.100000,-0.100000)" fill="#6e6e6e" stroke="none">
    <path d="M110 1420 l-15 -10 12 0 c6 0 15 5 18 10 8 12 4 12 -15 0z" />
    <path d="M1233 1203 c4 -3 10 -3 14 0 3 4 0 7 -7 7 -7 0 -10 -3 -7 -7z" />
    <path d="M540 1186 c0 -2 7 -7 16 -10 l15 -6 -6 10 c-6 10 -25 14 -25 6z" />
    <path d="M1413 1163 c4 -3 10 -3 14 0 3 4 0 7 -7 7 -7 0 -10 -3 -7 -7z" />
    <path d="M1465 1140 c3 -5 8 -10 11 -10 3 0 2 5 -1 10 -3 6 -8 10 -11 10 -3 0
-2 -4 1 -10z" />
    <path d="M595 725 c0 -220 1 -309 2 -197 2 112 2 292 0 400 -1 108 -2 17 -2
-203z" />
    <path d="M1644 488 l-7 -11 11 7 c12 7 16 16 8 16 -3 0 -8 -5 -12 -12z" />
  </g>
  <g transform="translate(0.000000,143.000000) scale(0.100000,-0.100000)" fill="#292929" stroke="none">
    <path d="M20 1330 c0 -7 3 -10 7 -7 3 4 3 10 0 14 -4 3 -7 0 -7 -7z" />
    <path d="M875 1200 c3 -5 8 -10 11 -10 3 0 2 5 -1 10 -3 6 -8 10 -11 10 -3 0
-2 -4 1 -10z" />
    <path d="M2965 1000 c3 -5 8 -10 11 -10 3 0 2 5 -1 10 -3 6 -8 10 -11 10 -3 0
-2 -4 1 -10z" />
    <path d="M3773 773 c4 -3 10 -3 14 0 3 4 0 7 -7 7 -7 0 -10 -3 -7 -7z" />
    <path d="M1475 659 c-4 -6 -5 -12 -2 -15 2 -3 7 2 10 11 7 17 1 20 -8 4z" />
    <path d="M2830 600 c0 -7 3 -10 7 -7 3 4 3 10 0 14 -4 3 -7 0 -7 -7z" />
    <path d="M1435 570 c3 -5 8 -10 11 -10 2 0 4 5 4 10 0 6 -5 10 -11 10 -5 0 -7
-4 -4 -10z" />
    <path d="M3127 455 c3 -8 9 -12 14 -9 12 7 11 11 -5 17 l-15 6 6 -14z" />
    <path d="M3335 430 l-6 -10 15 6 c18 7 21 14 7 14 -6 0 -13 -4 -16 -10z" />
    <path d="M4240 420 c0 -7 3 -10 7 -7 3 4 3 10 0 14 -4 3 -7 0 -7 -7z" />
    <path d="M4035 340 c3 -5 8 -10 11 -10 3 0 2 5 -1 10 -3 6 -8 10 -11 10 -3 0
-2 -4 1 -10z" />
    <path d="M4385 320 c3 -5 8 -10 11 -10 2 0 4 5 4 10 0 6 -5 10 -11 10 -5 0 -7
-4 -4 -10z" />
    <path d="M1455 300 c3 -5 8 -10 11 -10 3 0 2 5 -1 10 -3 6 -8 10 -11 10 -3 0
-2 -4 1 -10z" />
    <path d="M383 283 c4 -3 10 -3 14 0 3 4 0 7 -7 7 -7 0 -10 -3 -7 -7z" />
    <path d="M393 263 c4 -3 10 -3 14 0 3 4 0 7 -7 7 -7 0 -10 -3 -7 -7z" />
    <path d="M2300 260 c0 -7 3 -10 7 -7 3 4 3 10 0 14 -4 3 -7 0 -7 -7z" />
    <path d="M70 40 c0 -7 3 -10 7 -7 3 4 3 10 0 14 -4 3 -7 0 -7 -7z" />
  </g>
  <g transform="translate(0.000000,143.000000) scale(0.100000,-0.100000)" fill="#999999" stroke="none">
    <path d="M473 1203 c9 -2 23 -2 30 0 6 3 -1 5 -18 5 l-30 0 18 -5z" />
    <path d="M993 1203 c42 -2 112 -2 155 0 42 1 7 3 -78 3 -85 0 -120 -2 -77 -3z" />
    <path d="M834 1148 l-7 -11 11 7 c12 7 16 16 8 16 -3 0 -8 -5 -12 -12z" />
    <path d="M1083 1013 c26 -2 68 -2 95 0 26 2 4 3 -48 3 -52 0 -74 -1 -47 -3z" />
    <path d="M1700 800 c0 -7 3 -10 7 -7 3 4 3 10 0 14 -4 3 -7 0 -7 -7z" />
    <path d="M1670 540 c0 -7 3 -10 7 -7 3 4 3 10 0 14 -4 3 -7 0 -7 -7z" />
    <path d="M1394 508 l-7 -11 11 7 c12 7 16 16 8 16 -3 0 -8 -5 -12 -12z" />
    <path d="M4220 440 c0 -5 5 -10 11 -10 5 0 7 5 4 10 -3 6 -8 10 -11 10 -2 0
-4 -4 -4 -10z" />
    <path d="M4347 399 c7 -7 15 -10 18 -7 3 3 -2 9 -12 12 l-18 7 12 -12z" />
    <path d="M580 300 c0 -7 3 -10 7 -7 3 4 3 10 0 14 -4 3 -7 0 -7 -7z" />
    <path d="M830 306 c0 -2 8 -10 18 -17 l17 -14 -14 18 c-13 16 -21 21 -21 13z" />
    <path d="M559 263 l-14 -18 18 14 c16 13 21 21 13 21 -2 0 -10 -8 -17 -17z" />
    <path d="M1363 273 c4 -3 10 -3 14 0 3 4 0 7 -7 7 -7 0 -10 -3 -7 -7z" />
    <path d="M513 233 c4 -3 10 -3 14 0 3 4 0 7 -7 7 -7 0 -10 -3 -7 -7z" />
  </g>
  <g transform="translate(0.000000,143.000000) scale(0.100000,-0.100000)" fill="#e2e2e2" stroke="none">
    <path d="M70 1399 c0 -5 5 -7 10 -4 6 3 10 8 10 11 0 2 -4 4 -10 4 -5 0 -10
-5 -10 -11z" />
    <path d="M1590 1040 c0 -5 5 -10 11 -10 5 0 7 5 4 10 -3 6 -8 10 -11 10 -2 0
-4 -4 -4 -10z" />
    <path d="M1280 1006 c0 -2 7 -7 16 -10 l15 -6 -6 10 c-6 10 -25 14 -25 6z" />
    <path d="M1650 951 c0 -6 4 -13 10 -16 l10 -6 -6 15 c-7 18 -14 21 -14 7z" />
    <path d="M4216 802 c-2 -4 12 -6 32 -4 62 6 69 10 20 11 -26 0 -49 -3 -52 -7z" />
    <path d="M1700 760 c0 -7 3 -10 7 -7 3 4 3 10 0 14 -4 3 -7 0 -7 -7z" />
    <path d="M1701 694 l1 -19 5 13 c3 7 2 16 -1 19 -3 4 -6 -2 -5 -13z" />
    <path d="M1695 629 c-4 -6 -5 -12 -2 -15 2 -3 7 2 10 11 7 17 1 20 -8 4z" />
    <path d="M1451 589 c-7 -12 -10 -23 -8 -26 3 -3 11 5 17 17 6 12 10 23 8 25
-2 2 -10 -5 -17 -16z" />
    <path d="M1635 479 c-4 -6 -5 -12 -2 -15 2 -3 7 2 10 11 7 17 1 20 -8 4z" />
    <path d="M1310 460 l-15 -10 12 0 c6 0 15 5 18 10 8 12 4 12 -15 0z" />
    <path d="M4220 446 c0 -2 8 -10 18 -17 l17 -14 -14 18 c-13 16 -21 21 -21 13z" />
    <path d="M825 340 c3 -5 8 -10 11 -10 3 0 2 5 -1 10 -3 6 -8 10 -11 10 -3 0
-2 -4 1 -10z" />
    <path d="M1315 260 l-6 -10 15 6 c18 7 21 14 7 14 -6 0 -13 -4 -16 -10z" />
    <path d="M483 233 c4 -3 10 -3 14 0 3 4 0 7 -7 7 -7 0 -10 -3 -7 -7z" />
    <path d="M30 80 c0 -7 3 -10 7 -7 3 4 3 10 0 14 -4 3 -7 0 -7 -7z" />
  </g>
  <g transform="translate(0.000000,143.000000) scale(0.100000,-0.100000)" fill="#a8a8a8" stroke="none">
    <path d="M1348 1183 c7 -3 16 -2 19 1 4 3 -2 6 -13 5 l-19 -1 13 -5z" />
    <path d="M394 1158 l-7 -11 11 7 c12 7 16 16 8 16 -3 0 -8 -5 -12 -12z" />
    <path d="M1273 1003 c4 -3 10 -3 14 0 3 4 0 7 -7 7 -7 0 -10 -3 -7 -7z" />
    <path d="M1385 950 c3 -5 8 -10 11 -10 3 0 2 5 -1 10 -3 6 -8 10 -11 10 -3 0
-2 -4 1 -10z" />
    <path d="M1426 905 c4 -8 11 -15 16 -15 l10 0 -12 15 c-7 8 -14 15 -16 15 -2
0 -1 -7 2 -15z" />
    <path d="M4386 863 l-7 -18 12 12 c7 7 10 15 7 18 -3 3 -9 -2 -12 -12z" />
    <path d="M4354 828 l-7 -11 11 7 c12 7 16 16 8 16 -3 0 -8 -5 -12 -12z" />
    <path d="M4214 665 c0 -77 2 -107 3 -67 2 40 2 103 0 140 -2 37 -3 4 -3 -73z" />
    <path d="M4210 500 c0 -7 3 -10 7 -7 3 4 3 10 0 14 -4 3 -7 0 -7 -7z" />
    <path d="M4273 413 c4 -3 10 -3 14 0 3 4 0 7 -7 7 -7 0 -10 -3 -7 -7z" />
    <path d="M4390 320 c0 -7 3 -10 7 -7 3 4 3 10 0 14 -4 3 -7 0 -7 -7z" />
    <path d="M380 310 c0 -7 3 -10 7 -7 3 4 3 10 0 14 -4 3 -7 0 -7 -7z" />
    <path d="M1283 253 c4 -3 10 -3 14 0 3 4 0 7 -7 7 -7 0 -10 -3 -7 -7z" />
    <path d="M10 140 c0 -7 3 -10 7 -7 3 4 3 10 0 14 -4 3 -7 0 -7 -7z" />
    <path d="M133 13 c4 -3 10 -3 14 0 3 4 0 7 -7 7 -7 0 -10 -3 -7 -7z" />
  </g>
  <g transform="translate(0.000000,143.000000) scale(0.100000,-0.100000)" fill="#dadada" stroke="none">
    <path d="M30 1359 c0 -5 5 -7 10 -4 6 3 10 8 10 11 0 2 -4 4 -10 4 -5 0 -10
-5 -10 -11z" />
    <path d="M535 1190 c3 -5 8 -10 11 -10 3 0 2 5 -1 10 -3 6 -8 10 -11 10 -3 0
-2 -4 1 -10z" />
    <path d="M1335 1190 c3 -5 8 -10 11 -10 3 0 2 5 -1 10 -3 6 -8 10 -11 10 -3 0
-2 -4 1 -10z" />
    <path d="M390 1150 c0 -7 3 -10 7 -7 3 4 3 10 0 14 -4 3 -7 0 -7 -7z" />
    <path d="M1640 971 c0 -5 5 -13 10 -16 6 -3 10 -2 10 4 0 5 -4 13 -10 16 -5 3
-10 2 -10 -4z" />
    <path d="M1660 931 c0 -6 4 -13 10 -16 l10 -6 -6 15 c-7 18 -14 21 -14 7z" />
    <path d="M1442 880 c7 -10 14 -18 15 -16 6 6 -9 36 -18 36 -5 0 -4 -9 3 -20z" />
    <path d="M4233 803 c4 -3 10 -3 14 0 3 4 0 7 -7 7 -7 0 -10 -3 -7 -7z" />
    <path d="M1330 470 l-15 -10 12 0 c6 0 15 5 18 10 8 12 4 12 -15 0z" />
    <path d="M584 308 l-7 -11 11 7 c12 7 16 16 8 16 -3 0 -8 -5 -12 -12z" />
    <path d="M1354 268 l-7 -11 11 7 c7 4 12 9 12 12 0 8 -9 4 -16 -8z" />
  </g>
  <g transform="translate(0.000000,143.000000) scale(0.100000,-0.100000)" fill="#585858" stroke="none">
    <path d="M123 1423 c4 -3 10 -3 14 0 3 4 0 7 -7 7 -7 0 -10 -3 -7 -7z" />
    <path d="M913 1203 c4 -3 10 -3 14 0 3 4 0 7 -7 7 -7 0 -10 -3 -7 -7z" />
    <path d="M565 1170 c3 -5 8 -10 11 -10 3 0 2 5 -1 10 -3 6 -8 10 -11 10 -3 0
-2 -4 1 -10z" />
    <path d="M1470 1136 c0 -2 7 -7 16 -10 l15 -6 -6 10 c-6 10 -25 14 -25 6z" />
    <path d="M1550 1087 c0 -2 15 -16 33 -33 l32 -29 -29 33 c-28 30 -36 37 -36
29z" />
    <path d="M1303 993 c4 -3 10 -3 14 0 3 4 0 7 -7 7 -7 0 -10 -3 -7 -7z" />
    <path d="M1415 920 c3 -5 8 -10 11 -10 3 0 2 5 -1 10 -3 6 -8 10 -11 10 -3 0
-2 -4 1 -10z" />
    <path d="M4390 880 c0 -7 3 -10 7 -7 3 4 3 10 0 14 -4 3 -7 0 -7 -7z" />
    <path d="M1700 810 c0 -7 3 -10 7 -7 3 4 3 10 0 14 -4 3 -7 0 -7 -7z" />
    <path d="M1481 694 l1 -19 5 13 c3 7 2 16 -1 19 -3 4 -6 -2 -5 -13z" />
    <path d="M1364 488 l-7 -11 11 7 c12 7 16 16 8 16 -3 0 -8 -5 -12 -12z" />
    <path d="M1248 443 c7 -3 16 -2 19 1 4 3 -2 6 -13 5 l-19 -1 13 -5z" />
    <path d="M1604 428 l-7 -11 11 7 c12 7 16 16 8 16 -3 0 -8 -5 -12 -12z" />
    <path d="M820 350 c0 -7 3 -10 7 -7 3 4 3 10 0 14 -4 3 -7 0 -7 -7z" />
    <path d="M1524 348 l-7 -11 11 7 c7 4 12 9 12 12 0 8 -9 4 -16 -8z" />
    <path d="M1343 263 c4 -3 10 -3 14 0 3 4 0 7 -7 7 -7 0 -10 -3 -7 -7z" />
    <path d="M923 243 c4 -3 10 -3 14 0 3 4 0 7 -7 7 -7 0 -10 -3 -7 -7z" />
    <path d="M1218 243 c7 -3 16 -2 19 1 4 3 -2 6 -13 5 l-19 -1 13 -5z" />
  </g>
  <g transform="translate(0.000000,143.000000) scale(0.100000,-0.100000)" fill="#474747" stroke="none">
    <path d="M453 1203 c4 -3 10 -3 14 0 3 4 0 7 -7 7 -7 0 -10 -3 -7 -7z" />
    <path d="M1323 1193 c4 -3 10 -3 14 0 3 4 0 7 -7 7 -7 0 -10 -3 -7 -7z" />
    <path d="M1363 1183 c4 -3 10 -3 14 0 3 4 0 7 -7 7 -7 0 -10 -3 -7 -7z" />
    <path d="M1390 1176 c0 -2 7 -7 16 -10 l15 -6 -6 10 c-6 10 -25 14 -25 6z" />
    <path d="M1263 1003 c4 -3 10 -3 14 0 3 4 0 7 -7 7 -7 0 -10 -3 -7 -7z" />
    <path d="M1646 967 c3 -10 9 -15 12 -12 3 3 0 11 -7 18 l-12 12 7 -18z" />
    <path d="M1435 890 c3 -5 8 -10 11 -10 3 0 2 5 -1 10 -3 6 -8 10 -11 10 -3 0
-2 -4 1 -10z" />
    <path d="M1460 840 c0 -7 3 -10 7 -7 3 4 3 10 0 14 -4 3 -7 0 -7 -7z" />
    <path d="M1470 810 c0 -7 3 -10 7 -7 3 4 3 10 0 14 -4 3 -7 0 -7 -7z" />
    <path d="M1470 640 c0 -7 3 -10 7 -7 3 4 3 10 0 14 -4 3 -7 0 -7 -7z" />
    <path d="M1690 600 c0 -7 3 -10 7 -7 3 4 3 10 0 14 -4 3 -7 0 -7 -7z" />
    <path d="M1445 579 c-4 -6 -5 -12 -2 -15 2 -3 7 2 10 11 7 17 1 20 -8 4z" />
    <path d="M405 260 c3 -5 8 -10 11 -10 3 0 2 5 -1 10 -3 6 -8 10 -11 10 -3 0
-2 -4 1 -10z" />
    <path d="M875 260 c3 -5 8 -10 11 -10 3 0 2 5 -1 10 -3 6 -8 10 -11 10 -3 0
-2 -4 1 -10z" />
    <path d="M1303 253 c4 -3 10 -3 14 0 3 4 0 7 -7 7 -7 0 -10 -3 -7 -7z" />
  </g>
  <g transform="translate(0.000000,143.000000) scale(0.100000,-0.100000)" fill="#828282" stroke="none">
    <path d="M79 1399 l-24 -20 28 17 c15 9 27 18 27 20 0 8 -8 4 -31 -17z" />
    <path d="M1218 1203 c7 -3 16 -2 19 1 4 3 -2 6 -13 5 l-19 -1 13 -5z" />
    <path d="M830 1140 c0 -7 3 -10 7 -7 3 4 3 10 0 14 -4 3 -7 0 -7 -7z" />
    <path d="M1481 774 l1 -19 5 13 c3 7 2 16 -1 19 -3 4 -6 -2 -5 -13z" />
    <path d="M1481 674 l1 -19 5 13 c3 7 2 16 -1 19 -3 4 -6 -2 -5 -13z" />
    <path d="M1539 363 l-14 -18 18 14 c16 13 21 21 13 21 -2 0 -10 -8 -17 -17z" />
  </g>
  <g transform="translate(0.000000,143.000000) scale(0.100000,-0.100000)" fill="#b1b1b1" stroke="none">
    <path d="M50 1379 c0 -5 5 -7 10 -4 6 3 10 8 10 11 0 2 -4 4 -10 4 -5 0 -10
-5 -10 -11z" />
    <path d="M1313 1193 c4 -3 10 -3 14 0 3 4 0 7 -7 7 -7 0 -10 -3 -7 -7z" />
    <path d="M1470 630 c0 -7 3 -10 7 -7 3 4 3 10 0 14 -4 3 -7 0 -7 -7z" />
    <path d="M1690 610 c0 -7 3 -10 7 -7 3 4 3 10 0 14 -4 3 -7 0 -7 -7z" />
    <path d="M1293 453 c4 -3 10 -3 14 0 3 4 0 7 -7 7 -7 0 -10 -3 -7 -7z" />
    <path d="M1263 443 c4 -3 10 -3 14 0 3 4 0 7 -7 7 -7 0 -10 -3 -7 -7z" />
    <path d="M4263 413 c4 -3 10 -3 14 0 3 4 0 7 -7 7 -7 0 -10 -3 -7 -7z" />
    <path d="M4375 370 c3 -5 8 -10 11 -10 3 0 2 5 -1 10 -3 6 -8 10 -11 10 -3 0
-2 -4 1 -10z" />
    <path d="M1333 263 c4 -3 10 -3 14 0 3 4 0 7 -7 7 -7 0 -10 -3 -7 -7z" />
    <path d="M453 233 c4 -3 10 -3 14 0 3 4 0 7 -7 7 -7 0 -10 -3 -7 -7z" />
  </g>
  <g transform="translate(0.000000,143.000000) scale(0.100000,-0.100000)" fill="#737373" stroke="none">
    <path d="M83 1403 c4 -3 10 -3 14 0 3 4 0 7 -7 7 -7 0 -10 -3 -7 -7z" />
    <path d="M49 1373 l-14 -18 18 14 c9 7 17 15 17 17 0 8 -8 3 -21 -13z" />
    <path d="M1404 518 l-7 -11 11 7 c12 7 16 16 8 16 -3 0 -8 -5 -12 -12z" />
    <path d="M1494 328 l-7 -11 11 7 c12 7 16 16 8 16 -3 0 -8 -5 -12 -12z" />
    <path d="M1293 253 c4 -3 10 -3 14 0 3 4 0 7 -7 7 -7 0 -10 -3 -7 -7z" />
  </g>
  <g transform="translate(0.000000,143.000000) scale(0.100000,-0.100000)" fill="#7a7a7a" stroke="none">
    <path d="M34 1358 l-7 -11 11 7 c12 7 16 16 8 16 -3 0 -8 -5 -12 -12z" />
    <path d="M10 1300 c0 -7 3 -10 7 -7 3 4 3 10 0 14 -4 3 -7 0 -7 -7z" />
  </g>
  <g transform="translate(0.000000,143.000000) scale(0.100000,-0.100000)" fill="#8c8c8c" stroke="none" />
  <g transform="translate(0.000000,143.000000) scale(0.100000,-0.100000)" fill="#949494" stroke="none" />
</svg>