<svg width="244.000000pt" height="297.000000pt" viewBox="0 0 244.000000 297.000000" xmlns="http://www.w3.org/2000/svg">
  <g transform="translate(0.000000,297.000000) scale(0.100000,-0.100000)" fill="#fefefe" stroke="none">
    <path d="M2 1578 c1 -766 3 -1376 5 -1356 l4 38 23 0 24 0 48 -75 c27 -41 55
-75 62 -75 l12 0 0 75 0 75 25 0 25 0 0 -120 0 -120 -25 0 -26 0 -47 75 c-26
41 -53 75 -59 75 l-13 0 0 -75 0 -75 -24 0 -25 0 -4 28 -4 27 -2 -37 -1 -38
1220 0 1220 0 0 40 c0 22 -3 40 -6 40 -4 0 -22 -13 -41 -30 l-34 -30 -35 0
c-72 0 -127 52 -127 120 0 20 6 46 12 59 17 32 70 61 111 61 35 0 77 -21 93
-47 4 -7 12 -13 17 -13 l10 0 0 1385 0 1385 -265 0 -265 0 -2 -177 -3 -178
-195 0 -195 0 -3 178 -2 177 -330 0 c-182 0 -330 -4 -330 -8 0 -4 28 -14 63
-21 34 -7 94 -28 132 -47 l70 -34 80 -68 80 -69 34 -58 c19 -31 44 -83 55
-114 l21 -56 3 -502 3 -503 -185 0 -185 0 -3 488 -3 487 -19 35 c-26 49 -64
88 -111 113 l-40 21 -80 0 -80 1 -35 -19 c-49 -26 -88 -64 -113 -111 l-22 -40
-5 -673 -5 -673 -15 -9 -15 -10 -155 0 -156 0 -12 12 -12 12 0 677 0 677 20
66 21 65 50 75 c27 41 71 94 97 116 26 22 88 61 138 86 l91 45 62 11 c33 6 61
15 61 20 l0 8 -340 0 -340 0 2 -1392z m2270 1005 l18 -16 0 -650 0 -651 -16
-65 c-9 -36 -32 -97 -52 -135 l-36 -68 -65 -67 -66 -67 -83 -43 c-46 -23 -117
-51 -159 -62 l-76 -19 -71 0 c-143 1 -274 44 -401 135 -102 73 -167 158 -205
271 -11 30 -22 81 -26 114 l-7 60 13 15 12 15 164 0 163 0 8 -12 c4 -7 13 -40
20 -73 l13 -60 28 -40 c15 -22 49 -53 76 -69 l48 -30 63 -4 63 -4 50 16 50 17
42 45 c23 25 49 62 58 82 l17 37 3 660 3 660 16 13 17 12 150 0 149 0 19 -17z
m-1354 -1670 l-3 -168 -197 -3 -198 -2 0 170 0 170 200 0 200 0 -2 -167z
m-468 -668 l0 -15 -50 0 -50 0 0 -35 0 -35 45 0 45 0 0 -15 0 -15 -45 0 -45 0
0 -40 0 -40 50 0 50 0 0 -15 0 -15 -75 0 -75 0 0 120 0 120 75 0 75 0 0 -15z
m240 0 c16 -9 36 -29 45 -45 31 -60 10 -137 -45 -165 -108 -56 -221 57 -165
165 29 55 105 76 165 45z m216 -60 c27 -41 55 -75 62 -75 l12 0 0 75 0 75 25
0 25 0 0 -120 0 -120 -25 0 -26 0 -47 75 c-26 41 -53 75 -59 75 l-13 0 0 -75
0 -75 -25 0 -25 0 0 120 0 120 24 0 24 0 48 -75z m405 -5 l33 -80 16 0 16 0
33 80 33 80 29 0 29 0 0 -120 0 -120 -25 0 -25 0 0 60 0 60 -14 0 -14 0 -22
-60 -22 -60 -18 0 -18 0 -22 60 -22 60 -14 0 -14 0 0 -60 0 -60 -30 0 -30 0 0
120 0 120 34 0 34 0 33 -80z m311 -17 l3 -98 45 0 45 0 3 98 3 97 24 0 25 0 0
-80 0 -81 -15 -29 c-19 -36 -43 -50 -89 -50 l-35 0 -28 24 -28 24 -3 96 -4 96
26 0 25 0 3 -97z m368 70 l22 -28 -23 -3 -23 -4 -12 16 c-6 9 -23 16 -38 16
l-27 0 3 -31 3 -31 49 -19 c27 -10 53 -24 58 -31 4 -7 8 -23 8 -35 l0 -22 -26
-20 -27 -21 -36 0 -37 0 -22 20 c-12 12 -22 25 -22 30 0 6 11 10 24 10 l24 0
6 -16 6 -15 27 3 28 3 0 29 0 29 -39 14 c-76 26 -96 66 -54 110 l21 23 43 0
43 0 21 -27z m150 -93 l0 -120 -25 0 -25 0 0 120 0 120 25 0 25 0 0 -120z" />
    <path d="M577 202 l-17 -19 0 -45 0 -45 18 -16 19 -17 35 0 35 0 16 18 17 19
0 45 0 45 -18 16 -19 17 -35 0 -35 0 -16 -18z" />
    <path d="M2256 198 c-9 -12 -16 -39 -16 -60 l0 -38 20 -20 20 -20 39 0 39 0
12 15 c7 8 25 15 41 15 l29 0 0 50 0 50 -29 0 c-16 0 -34 7 -41 15 l-12 15
-44 0 -43 0 -15 -22z" />
    <path d="M3 130 c0 -30 2 -43 4 -28 2 16 2 40 0 55 -2 16 -4 3 -4 -27z" />
  </g>
  <g transform="translate(0.000000,297.000000) scale(0.100000,-0.100000)" fill="#0049aa" stroke="none">
    <path d="M612 2954 c-35 -7 -99 -31 -143 -51 l-79 -38 0 -18 0 -18 23 2 c32 3
136 -11 182 -26 22 -7 61 -19 88 -26 26 -7 47 -16 47 -20 0 -9 87 -39 111 -39
10 0 25 -8 35 -17 10 -10 38 -29 64 -43 92 -50 115 -66 155 -106 l40 -40 42
-12 c23 -7 49 -19 57 -27 8 -8 19 -15 25 -15 6 0 11 -6 11 -13 0 -16 36 -47
55 -47 7 0 17 -4 20 -10 3 -5 15 -10 25 -10 l20 0 6 27 c16 61 -37 219 -103
309 -42 56 -170 157 -245 192 -35 17 -95 37 -135 46 l-72 16 -83 -1 c-46 -1
-111 -7 -146 -15z" />
    <path d="M1502 2788 l3 -183 205 0 205 0 3 183 2 182 -210 0 -210 0 2 -182z" />
    <path d="M1928 2599 l-18 -10 0 -122 c0 -67 4 -127 8 -133 4 -5 27 -18 52 -27
l45 -17 23 6 22 6 0 -11 0 -11 50 0 50 0 0 -10 c0 -5 8 -10 18 -10 9 0 36 -18
60 -40 23 -22 47 -40 52 -40 l10 0 0 198 0 199 -18 16 -19 17 -159 0 -159 -1
-17 -10z" />
  </g>
  <g transform="translate(0.000000,297.000000) scale(0.100000,-0.100000)" fill="#02cec7" stroke="none">
    <path d="M130 1660 l0 -49 24 -13 c14 -7 61 -48 104 -90 44 -43 82 -78 85 -78
3 0 19 -12 35 -27 60 -58 97 -83 119 -83 l23 0 0 65 0 65 -13 0 c-20 0 -112
52 -147 83 -16 15 -33 27 -37 27 -5 0 -44 34 -88 75 -44 41 -86 75 -92 75
l-13 0 0 -50z" />
    <path d="M1030 1345 l-12 -14 7 -53 c4 -29 13 -56 19 -60 18 -12 36 -9 36 6 0
8 -6 17 -12 19 l-13 5 13 1 c7 1 15 -6 18 -14 6 -16 34 -21 34 -7 0 5 27 -18
61 -50 34 -32 65 -58 71 -58 11 0 129 -98 141 -117 4 -7 17 -13 27 -13 l20 0
0 -15 c0 -8 5 -15 10 -15 6 0 22 -11 36 -25 14 -14 29 -25 34 -25 6 0 10 -10
10 -21 l0 -21 25 4 25 5 47 -41 c27 -23 63 -56 81 -73 l32 -32 33 6 c63 12
111 29 114 40 2 6 -10 16 -27 21 -16 6 -30 17 -30 25 0 8 -18 24 -40 36 -47
24 -110 79 -110 95 0 6 -12 20 -27 31 -62 47 -98 81 -98 95 l0 15 -32 10 c-17
6 -64 40 -103 75 -40 36 -80 68 -90 72 -11 4 -26 21 -35 38 l-17 32 -17 -5
c-23 -6 -51 10 -51 28 l0 15 -84 0 -84 0 -12 -15z" />
    <path d="M1400 1236 c0 -9 7 -16 16 -16 9 0 14 5 12 12 -6 18 -28 21 -28 4z" />
    <path d="M1140 1165 c0 -8 7 -15 15 -15 8 0 15 7 15 15 0 8 -7 15 -15 15 -8 0
-15 -7 -15 -15z" />
    <path d="M1910 794 c0 -17 22 -14 28 4 2 7 -3 12 -12 12 -9 0 -16 -7 -16 -16z" />
    <path d="M1900 272 c-14 -2 -35 -13 -47 -25 l-23 -20 0 -32 0 -32 18 -16 c10
-9 36 -23 58 -30 l39 -14 3 -17 3 -16 -17 -7 -17 -6 -12 16 -12 17 -32 0 -31
0 0 -20 c0 -10 10 -28 22 -40 l22 -20 47 0 46 0 27 21 26 20 0 32 c0 18 -4 38
-8 45 -5 7 -31 21 -58 31 l-49 19 -3 21 -3 21 19 0 c11 0 22 -7 26 -15 l5 -15
36 0 35 0 0 14 c0 7 -9 25 -20 38 l-20 26 -27 3 c-16 2 -39 3 -53 1z" />
    <path d="M2276 265 c-21 -7 -46 -21 -57 -31 -24 -22 -42 -85 -33 -121 17 -68
64 -103 138 -103 l45 0 36 31 c19 17 35 37 35 45 l0 14 -34 0 -34 0 -12 -15
c-7 -8 -25 -15 -41 -15 l-29 0 -20 20 -20 20 0 28 c0 15 7 38 16 50 l15 22 33
0 34 0 12 -15 12 -15 34 0 34 0 0 13 c-1 28 -47 66 -93 77 l-34 7 -37 -12z" />
    <path d="M0 140 l0 -130 35 0 35 0 0 78 0 77 50 -77 49 -78 36 0 35 0 0 130 0
130 -35 0 -35 0 0 -77 0 -78 -51 78 -52 77 -33 0 -34 0 0 -130z" />
    <path d="M290 140 l0 -130 85 0 85 0 0 25 0 25 -50 0 -50 0 0 30 0 30 45 0 45
0 0 25 0 25 -45 0 -45 0 0 25 0 25 50 0 50 0 0 25 0 25 -85 0 -85 0 0 -130z" />
    <path d="M558 254 c-36 -19 -58 -63 -58 -114 0 -50 22 -91 60 -114 35 -20 102
-21 140 -1 16 9 37 30 46 47 34 65 12 153 -46 183 -37 19 -107 19 -142 -1z
m114 -61 l18 -16 0 -35 0 -35 -17 -19 c-20 -22 -61 -23 -85 -1 l-18 16 0 35 0
35 17 19 c20 22 61 23 85 1z" />
    <path d="M800 140 l0 -130 35 0 35 0 0 78 0 77 50 -77 49 -78 36 0 35 0 0 130
0 130 -35 0 -35 0 0 -77 0 -78 -51 78 -52 77 -33 0 -34 0 0 -130z" />
    <path d="M1200 140 l0 -130 40 0 39 0 3 63 3 62 24 -62 23 -63 28 0 28 0 23
62 24 63 3 -62 3 -63 34 0 35 0 0 130 0 130 -39 0 -39 0 -33 -80 c-18 -44 -36
-80 -39 -80 -3 0 -21 36 -39 80 l-33 80 -44 0 -44 0 0 -130z" />
    <path d="M1562 164 l3 -106 28 -24 28 -24 45 0 c25 0 54 5 65 10 10 6 26 24
34 40 l15 29 0 91 0 90 -35 0 -34 0 -3 -97 -3 -98 -35 0 -35 0 -3 98 -3 97
-35 0 -36 0 4 -106z" />
    <path d="M2080 140 l0 -130 35 0 35 0 0 130 0 130 -35 0 -35 0 0 -130z" />
  </g>
  <g transform="translate(0.000000,297.000000) scale(0.100000,-0.100000)" fill="#00b1e4" stroke="none">
    <path d="M320 2230 l0 -10 -52 0 -53 -1 -19 -14 c-11 -8 -30 -15 -43 -15 l-23
0 0 -92 1 -93 14 -19 c8 -11 15 -26 15 -33 0 -17 77 -93 115 -113 15 -8 30
-23 33 -32 2 -10 8 -18 12 -18 4 0 21 -12 38 -26 31 -27 140 -70 151 -59 8 9
14 429 6 483 l-6 42 -15 0 c-8 0 -17 -7 -21 -15 l-5 -16 -22 14 c-11 8 -45 17
-73 21 l-53 7 0 -11z" />
    <path d="M1010 1815 l0 -105 14 0 c26 0 97 -44 123 -77 l27 -33 23 0 c13 0 23
-4 23 -10 0 -5 5 -10 12 -10 6 0 26 -11 44 -25 18 -14 37 -25 42 -25 5 0 21
-11 36 -25 15 -14 31 -25 37 -25 l9 0 0 90 0 90 -17 0 c-10 0 -33 16 -52 35
-19 19 -40 35 -47 35 -7 0 -28 15 -46 34 -18 18 -48 41 -65 50 -18 9 -33 23
-33 30 0 8 -12 19 -27 26 -47 19 -73 34 -73 42 0 5 -7 8 -15 8 l-15 0 0 -105z" />
    <path d="M1907 1338 l-7 -82 -27 -54 -27 -54 19 -14 c10 -8 24 -14 30 -14 5 0
15 -10 20 -22 12 -28 100 -77 136 -78 l27 0 6 -15 5 -15 54 0 54 0 33 61 c29
56 60 144 60 177 0 6 -7 12 -15 12 -8 0 -15 -7 -15 -15 l0 -15 -25 12 c-14 6
-25 15 -25 20 0 4 -8 8 -19 8 l-19 0 -16 35 -17 35 -20 0 c-11 0 -26 6 -34 13
-7 6 -23 20 -35 30 l-22 19 -19 -5 -18 -5 -28 24 c-15 13 -33 24 -39 24 l-11
0 -6 -82z" />
  </g>
  <g transform="translate(0.000000,297.000000) scale(0.100000,-0.100000)" fill="#00a6e4" stroke="none">
    <path d="M390 2413 c-25 -2 -49 -8 -54 -14 -6 -5 -21 -9 -35 -9 -15 0 -48 -12
-76 -26 -27 -15 -60 -32 -72 -38 l-23 -11 1 -85 c1 -47 3 -77 6 -67 l4 17 23
0 c12 0 30 6 41 14 l20 13 60 2 c33 2 76 4 95 5 19 2 40 0 45 -5 6 -4 23 -12
37 -18 l27 -10 -5 13 c-3 8 -1 17 5 21 l11 6 0 -20 c0 -11 5 -23 11 -27 l11
-6 -4 115 c-1 63 -5 118 -8 120 -9 9 -74 14 -120 10z m-43 -190 c-4 -3 -10 -3
-14 0 -3 4 0 7 7 7 7 0 10 -3 7 -7z" />
    <path d="M1010 2044 l0 -145 10 6 c6 3 10 2 10 -2 0 -9 25 -23 73 -43 15 -7
27 -17 27 -24 0 -13 30 -39 50 -44 8 -2 29 -19 48 -38 18 -19 38 -34 45 -34
14 0 57 -38 82 -72 l17 -23 5 13 c3 6 9 10 14 6 l9 -5 0 95 0 96 -20 0 -19 0
-44 45 c-25 25 -49 45 -53 45 -5 0 -22 11 -38 25 -16 14 -34 25 -40 25 -6 0
-21 18 -34 40 -12 22 -27 40 -32 40 -6 0 -10 7 -10 15 0 8 -7 15 -15 15 -8 0
-24 9 -35 20 l-20 20 0 35 0 35 -15 0 -15 0 0 -146z" />
    <path d="M1923 1593 l-13 -5 0 -94 c0 -53 3 -93 8 -90 4 2 16 -2 27 -10 10 -8
15 -14 9 -14 -5 -1 5 -7 21 -14 l30 -13 6 10 7 10 23 -22 c12 -11 27 -21 31
-21 5 0 6 -4 3 -10 l-6 -10 18 -1 c10 -1 23 -1 30 0 6 1 19 -14 29 -34 15 -32
25 -40 47 -36 4 0 7 -3 7 -7 0 -9 45 -33 71 -38 l16 -3 7 37 c3 20 6 72 6 115
l0 77 -24 0 c-24 0 -56 23 -56 41 0 5 -9 9 -19 9 l-20 0 -3 22 -3 21 -30 10
c-16 6 -38 18 -48 28 -10 9 -34 20 -53 24 -19 3 -34 10 -34 15 0 10 -65 12
-87 3z m354 -380 c-4 -3 -7 0 -7 7 0 7 3 10 7 7 3 -4 3 -10 0 -14z" />
  </g>
  <g transform="translate(0.000000,297.000000) scale(0.100000,-0.100000)" fill="#00d6c0" stroke="none">
    <path d="M130 1578 l0 -52 68 -63 c37 -35 70 -63 75 -63 4 0 7 -6 7 -13 0 -7
10 -19 22 -27 11 -8 36 -27 53 -42 18 -16 35 -28 38 -28 2 0 25 -20 49 -45 25
-25 53 -45 62 -45 l16 0 0 69 0 69 -17 -4 -18 -5 -34 28 c-19 15 -47 40 -63
56 -16 15 -32 27 -35 27 -3 0 -41 34 -83 76 -43 42 -92 85 -109 95 l-31 19 0
-52z" />
    <path d="M1025 1250 c9 -83 41 -170 88 -241 l43 -64 65 -53 c82 -67 204 -128
294 -147 39 -8 111 -15 160 -15 l90 0 -30 26 c-16 14 -29 30 -28 35 2 5 -1 9
-6 9 -5 0 -37 24 -71 53 -34 28 -65 52 -69 53 -21 2 -61 29 -61 41 0 8 -4 12
-9 9 -5 -3 -12 1 -15 10 -3 8 -10 13 -15 10 -5 -3 -11 4 -14 15 l-6 21 -10 -7
-11 -6 -37 33 c-20 18 -54 49 -75 69 -21 20 -40 34 -42 32 -2 -3 -18 5 -35 18
l-30 22 6 11 c3 6 3 8 -2 4 -4 -4 -23 8 -42 27 -19 19 -42 35 -52 35 -10 0
-24 7 -31 15 -15 18 -34 20 -25 3 4 -7 -3 -2 -15 12 l-22 25 7 -55z m22 -17
c-4 -3 -7 0 -7 7 0 7 3 10 7 7 3 -4 3 -10 0 -14z m510 -350 c-4 -3 -10 -3 -14
0 -3 4 0 7 7 7 7 0 10 -3 7 -7z" />
    <path d="M640 1075 c0 -8 12 -21 28 -29 15 -8 36 -23 46 -35 11 -12 24 -21 29
-21 5 0 23 -13 38 -30 16 -16 45 -36 64 -44 19 -8 35 -20 35 -25 0 -6 8 -11
19 -11 l18 0 7 38 c3 20 6 67 6 105 l0 67 -145 0 -145 0 0 -15z" />
  </g>
  <g transform="translate(0.000000,297.000000) scale(0.100000,-0.100000)" fill="#0055b3" stroke="none">
    <path d="M343 2829 l-53 -40 0 -18 0 -18 88 -6 87 -6 65 -26 c36 -14 73 -30
82 -35 10 -6 28 -10 41 -10 13 0 27 -4 33 -9 5 -5 46 -18 91 -29 45 -11 95
-28 111 -36 17 -9 45 -33 64 -55 18 -21 69 -63 113 -92 44 -28 92 -60 107 -71
15 -10 30 -18 33 -18 8 0 109 -72 120 -86 6 -7 22 -16 36 -19 l26 -6 7 23 c3
13 6 52 6 88 l-1 65 -14 -19 -15 -19 -17 15 c-10 8 -23 13 -30 11 l-11 -4 5
19 5 20 -36 13 c-20 7 -36 16 -36 19 0 9 -50 33 -80 37 -30 5 -52 22 -44 34 3
5 1 9 -4 9 -5 0 -20 10 -34 23 -27 23 -63 46 -138 87 -26 14 -54 33 -64 43
-10 9 -28 17 -40 17 -12 0 -26 3 -30 8 -8 7 -13 8 -40 11 -8 0 -21 7 -28 14
-7 7 -33 19 -58 26 -25 8 -63 20 -85 26 -46 15 -137 29 -178 28 l-28 0 5 13
c3 8 2 14 -2 14 -4 0 -31 -18 -59 -41z m957 -389 c0 -5 -2 -10 -4 -10 -3 0 -8
5 -11 10 -3 6 -1 10 4 10 6 0 11 -4 11 -10z" />
    <path d="M1350 2591 c0 -5 5 -13 10 -16 6 -3 10 -2 10 4 0 5 -4 13 -10 16 -5
3 -10 2 -10 -4z" />
    <path d="M1915 2589 c-11 -17 1 -21 15 -4 l12 15 -10 0 c-6 0 -14 -5 -17 -11z" />
    <path d="M1910 2254 l0 -112 13 -9 c6 -5 49 -15 94 -22 46 -7 95 -18 110 -26
16 -8 34 -15 41 -15 6 0 12 -4 12 -8 0 -5 12 -15 28 -23 15 -8 29 -17 32 -21
3 -3 18 -10 33 -13 l27 -7 0 102 0 101 -10 -6 -10 -6 0 17 c0 10 -3 15 -6 11
-9 -9 -44 25 -37 36 l6 10 -10 -6 c-6 -4 -16 0 -23 9 -7 8 -19 13 -26 10 l-12
-5 -7 27 -6 26 -9 -15 c-10 -15 -60 -21 -60 -7 0 4 -7 8 -16 8 l-15 0 7 13 8
12 -15 -11 c-8 -6 -22 -14 -32 -17 l-18 -7 6 10 c7 11 6 11 -43 15 l-33 3 -14
18 -14 19 -1 -111z" />
  </g>
  <g transform="translate(0.000000,297.000000) scale(0.100000,-0.100000)" fill="#0093d9" stroke="none">
    <path d="M325 2553 c-11 -3 -24 -9 -29 -14 -6 -5 -20 -9 -33 -9 -13 0 -32 -9
-43 -20 -11 -11 -23 -20 -28 -20 -4 0 -20 -11 -35 -25 l-27 -26 2 -127 1 -127
7 65 c4 36 7 61 8 57 1 -4 17 3 35 16 44 33 106 60 122 54 7 -3 21 0 31 7 11
7 35 14 54 15 19 1 42 2 50 3 8 1 25 0 36 0 l22 -2 7 -22 7 -23 9 50 c4 27 16
67 25 87 9 21 15 40 13 42 -2 2 -35 7 -74 10 -38 3 -86 7 -105 10 -19 3 -44 2
-55 -1z" />
    <path d="M1010 2244 l0 -75 10 6 10 6 0 -35 0 -36 20 -20 c11 -11 27 -20 35
-20 8 0 15 -6 15 -14 0 -8 7 -17 16 -20 8 -3 12 -10 9 -16 -3 -5 -1 -10 5 -10
6 0 16 -11 22 -25 6 -14 17 -25 23 -25 7 0 25 -11 41 -25 16 -14 33 -25 37
-25 5 0 34 -25 65 -56 31 -30 58 -51 60 -45 2 6 8 9 13 5 l9 -5 0 95 0 96 -18
0 c-10 0 -30 12 -44 28 -14 15 -43 41 -63 57 -21 17 -78 68 -127 115 -48 47
-93 87 -98 88 -6 2 -10 10 -10 18 0 8 -7 14 -15 14 l-15 0 0 -76z" />
    <path d="M1910 1676 l0 -106 13 3 c6 1 15 7 19 12 l7 10 21 -13 20 -12 0 12 0
13 8 -12 c4 -6 21 -15 37 -19 32 -7 76 -33 60 -35 -6 0 8 -6 30 -13 l40 -12 3
-22 3 -22 19 0 19 0 6 -19 c6 -20 26 -31 63 -36 l22 -3 0 104 0 104 -17 0
c-10 0 -30 13 -45 29 -16 15 -40 34 -55 42 -16 7 -39 24 -52 36 -13 12 -40 25
-60 28 -20 3 -43 10 -52 15 -9 4 -37 11 -63 15 l-46 7 0 -106z" />
  </g>
  <g transform="translate(0.000000,297.000000) scale(0.100000,-0.100000)" fill="#00bada" stroke="none">
    <path d="M132 1984 l-2 -181 66 -67 c74 -75 185 -156 213 -156 10 0 30 -9 44
-20 14 -11 35 -20 46 -20 l21 0 0 105 c0 58 -2 105 -5 105 -3 0 -9 -10 -13
-21 l-8 -21 -17 16 c-9 9 -20 16 -24 15 -28 -5 -53 5 -81 31 -18 17 -37 30
-43 30 -5 0 -9 6 -9 14 0 15 -49 52 -63 48 -5 -1 -7 1 -4 5 5 10 -29 43 -37
35 -3 -3 -6 4 -6 16 0 20 -10 27 -33 23 -5 -1 -7 4 -4 11 2 7 -4 25 -14 39
l-18 26 -4 74 c-1 41 -4 -8 -5 -107z" />
    <path d="M1010 1638 l0 -89 18 -5 c54 -18 72 -28 77 -45 l6 -19 140 0 140 0
-10 19 c-6 10 -25 26 -44 34 -18 9 -46 28 -61 42 -15 14 -31 23 -36 20 -4 -3
-10 -1 -12 5 -1 5 -14 11 -28 14 -14 2 -24 9 -22 15 1 6 -2 11 -7 11 -5 0 -23
14 -41 30 -18 17 -38 30 -45 30 -7 0 -18 6 -24 14 -7 8 -21 14 -32 13 l-19 -1
0 -88z" />
    <path d="M1897 1253 c-4 -3 -7 -11 -7 -17 l0 -10 12 12 c6 6 9 14 7 17 -3 3
-9 2 -12 -2z" />
    <path d="M1825 1140 c-21 -22 -54 -45 -72 -51 l-33 -11 0 -14 c0 -26 20 -54
38 -54 l17 0 19 -34 19 -35 35 -17 c19 -9 46 -28 59 -42 26 -29 68 -52 92 -52
30 0 105 55 155 114 l49 57 -13 12 -13 12 6 -11 7 -12 -28 2 c-15 1 -33 5 -41
10 l-14 9 8 -13 8 -13 -14 5 c-8 3 -13 11 -12 17 l3 11 -33 0 c-40 1 -129 48
-141 76 -5 11 -22 26 -38 32 l-28 10 6 16 c3 9 4 16 2 16 -2 0 -21 -18 -43
-40z" />
    <path d="M2250 1120 c-6 -12 -9 -24 -7 -27 3 -2 11 5 17 17 6 12 9 24 7 27 -3
2 -11 -5 -17 -17z" />
    <path d="M2217 1053 c-4 -3 -7 -11 -7 -17 l0 -10 12 12 c6 6 9 14 7 17 -3 3
-9 2 -12 -2z" />
  </g>
  <g transform="translate(0.000000,297.000000) scale(0.100000,-0.100000)" fill="#007ccb" stroke="none">
    <path d="M235 2661 l-50 -18 -24 -59 -24 -59 -3 -70 -4 -70 9 28 c9 26 47 66
64 67 4 0 16 9 27 20 11 11 30 20 43 20 13 0 28 5 33 10 13 13 58 15 134 6 30
-4 69 -8 85 -10 l31 -4 42 39 c23 22 42 44 42 49 0 5 -10 12 -22 15 -76 17
-231 44 -278 48 l-55 5 -50 -17z" />
    <path d="M1010 2354 l0 -55 10 6 c6 3 10 0 10 -9 0 -8 4 -16 10 -18 5 -1 50
-41 98 -88 49 -47 105 -98 126 -115 21 -16 55 -47 77 -69 21 -21 39 -33 39
-27 0 7 5 9 10 6 l10 -6 0 90 0 91 -16 0 c-17 0 -115 62 -134 85 -7 8 -16 15
-21 15 -4 0 -23 14 -41 30 -18 17 -38 30 -45 30 -7 0 -13 4 -13 9 0 12 -94 81
-109 81 l-11 0 0 -56z" />
    <path d="M1910 1873 l0 -108 23 -1 c24 -1 53 -8 77 -17 8 -3 31 -8 51 -11 20
-4 47 -17 60 -29 13 -12 36 -29 51 -36 15 -8 42 -28 59 -45 17 -17 40 -32 50
-32 l19 -1 0 108 0 108 -34 16 c-19 9 -42 25 -52 36 -9 10 -21 19 -27 19 -8 0
-109 45 -159 71 -10 5 -29 9 -42 9 -14 0 -28 5 -31 10 -3 6 -15 10 -26 10
l-19 0 0 -107z" />
  </g>
  <g transform="translate(0.000000,297.000000) scale(0.100000,-0.100000)" fill="#0067bd" stroke="none">
    <path d="M234 2714 l-47 -66 12 -8 13 -7 32 15 31 16 55 -2 c30 -1 98 -12 150
-23 52 -11 104 -22 115 -23 11 -2 24 -4 28 -5 5 0 5 -6 1 -13 l-7 -11 19 8
c58 24 92 34 117 35 l28 0 -6 10 c-3 5 -21 12 -40 16 -20 3 -38 10 -41 15 -3
5 -16 9 -30 9 -13 0 -32 4 -42 10 -9 5 -46 21 -82 35 l-65 26 -87 6 c-49 3
-88 10 -88 14 0 23 -23 3 -66 -57z" />
    <path d="M885 2600 c3 -5 11 -10 16 -10 6 0 7 5 4 10 -3 6 -11 10 -16 10 -6 0
-7 -4 -4 -10z" />
    <path d="M950 2551 c0 -5 5 -13 10 -16 6 -3 10 -2 10 4 0 5 -4 13 -10 16 -5 3
-10 2 -10 -4z" />
    <path d="M984 2498 c4 -13 13 -42 19 -65 7 -24 17 -43 22 -43 15 0 95 -60 95
-71 0 -5 6 -9 13 -9 7 0 27 -13 45 -30 18 -16 35 -30 38 -30 4 0 43 -28 137
-100 l27 -22 0 12 c0 6 5 8 10 5 l10 -6 0 81 0 81 -10 -6 c-5 -3 -10 -13 -10
-20 l0 -14 -17 6 c-10 3 -22 11 -28 18 -12 13 -103 78 -125 88 -8 4 -41 24
-72 44 -32 21 -81 53 -109 71 l-52 33 7 -23z" />
    <path d="M1910 2061 l0 -102 10 6 c5 3 19 -1 31 -9 12 -8 28 -12 35 -9 8 3 20
1 27 -5 6 -5 29 -15 49 -21 20 -7 53 -23 73 -37 20 -13 40 -22 44 -20 4 3 24
-11 45 -30 21 -19 41 -33 44 -30 3 3 11 1 19 -5 l13 -11 0 114 0 114 -22 1
c-11 1 -24 6 -27 10 -3 4 -18 14 -33 22 -16 8 -28 18 -28 23 0 4 -6 8 -12 8
-7 0 -26 7 -43 16 -16 9 -46 18 -65 20 -19 2 -46 7 -60 11 -14 3 -34 6 -46 7
-11 1 -28 7 -37 15 l-17 13 0 -101z" />
  </g>
  <g transform="translate(0.000000,297.000000) scale(0.100000,-0.100000)" fill="#00c5cf" stroke="none">
    <path d="M132 1783 l-2 -93 8 3 c5 1 44 -29 86 -68 43 -38 82 -72 88 -74 6 -2
24 -15 40 -29 32 -29 123 -82 151 -87 l17 -4 0 64 0 64 -14 -5 c-8 -3 -28 4
-45 17 -17 12 -39 23 -49 24 -30 2 -133 77 -205 150 l-66 66 -4 32 c-2 18 -5
-10 -5 -60z" />
    <path d="M1010 1525 l0 -45 58 0 58 0 1 20 2 20 -10 -5 c-5 -4 -9 -2 -9 3 0 5
-15 15 -32 22 -18 6 -41 16 -50 21 l-18 9 0 -45z" />
    <path d="M1194 1340 l0 -19 28 -12 c15 -6 31 -8 37 -5 l10 7 16 -31 c9 -17 24
-34 35 -38 10 -4 49 -35 87 -69 98 -89 226 -193 236 -193 4 0 5 -4 2 -10 l-6
-10 15 0 c9 0 16 -6 16 -13 0 -14 90 -102 90 -89 1 4 9 -3 19 -16 l19 -22 4
12 5 13 14 -30 c8 -17 16 -28 19 -26 3 2 15 -1 28 -8 12 -7 32 -9 43 -6 l19 6
-6 11 -7 11 11 -7 c12 -7 86 27 98 45 l7 11 -20 -6 -20 -6 -25 13 c-14 7 -40
27 -57 45 -18 18 -38 32 -46 32 -15 0 -57 41 -55 53 2 12 -41 47 -51 42 -4 -3
-13 4 -19 16 l-12 21 19 14 18 15 -25 -8 c-25 -8 -123 -9 -172 -2 -14 2 -24 8
-20 13 l5 9 -16 -6 c-9 -3 -16 -3 -15 1 1 4 -17 26 -40 50 -23 23 -45 54 -48
67 -3 14 -9 23 -13 21 -3 -2 -7 19 -9 47 -1 27 -7 56 -13 63 l-11 14 -97 0
-97 0 0 -20z" />
    <path d="M2090 895 l-12 -15 10 0 c12 0 26 19 19 26 -2 2 -10 -2 -17 -11z" />
    <path d="M2045 860 c-3 -5 -2 -10 4 -10 5 0 13 5 16 10 3 6 2 10 -4 10 -5 0
-13 -4 -16 -10z" />
    <path d="M1845 770 l-6 -10 16 0 16 0 -6 10 c-3 6 -8 10 -10 10 -2 0 -7 -4
-10 -10z" />
  </g>
  <g transform="translate(0.000000,297.000000) scale(0.100000,-0.100000)" fill="#00e5b5" stroke="none">
    <path d="M130 1447 l0 -97 9 0 c5 0 11 8 14 18 l4 17 8 -20 c12 -27 104 -115
121 -115 8 0 14 -3 14 -7 0 -5 14 -22 30 -40 17 -18 30 -36 30 -42 0 -5 14
-15 30 -23 17 -7 33 -21 36 -30 l5 -18 29 0 c16 0 36 7 44 16 l16 15 0 50 0
50 -10 -6 -11 -7 -46 46 c-25 25 -48 46 -50 46 -3 0 -20 12 -38 28 -17 15 -42
34 -53 42 -12 8 -22 20 -22 27 0 7 -4 13 -8 13 -5 0 -31 21 -58 48 -28 26 -60
56 -72 66 l-22 19 0 -96z" />
    <path d="M512 1053 l3 -38 32 -20 c18 -11 32 -23 33 -27 0 -10 119 -128 129
-128 5 0 11 -9 14 -20 l5 -20 19 0 c11 0 37 -16 58 -35 l39 -36 40 3 41 3 3
108 3 109 -11 -7 c-5 -3 -10 -17 -10 -31 0 -26 -15 -33 -23 -10 -3 8 -22 19
-41 26 -20 6 -34 15 -31 19 2 5 -7 14 -20 21 -14 7 -25 17 -25 22 0 4 -6 8
-13 8 -8 0 -22 9 -33 21 -10 12 -31 28 -47 35 -15 8 -25 19 -22 24 l6 10 -76
0 -76 0 3 -37z" />
  </g>
  <g transform="translate(0.000000,297.000000) scale(0.100000,-0.100000)" fill="#01f0ab" stroke="none">
    <path d="M136 1368 c-3 -17 -6 -81 -6 -142 l0 -112 12 -12 12 -12 148 0 148 0
-11 23 c-6 12 -23 29 -40 36 -16 7 -29 17 -29 22 0 6 -13 24 -30 42 -16 18
-30 35 -30 40 0 4 -5 7 -10 7 -19 0 -69 43 -95 81 -13 21 -33 43 -44 48 l-19
10 -6 -31z" />
    <path d="M511 913 l-1 -183 170 0 169 0 -5 14 c-7 19 -70 67 -92 70 -9 2 -17
8 -17 14 0 13 -13 27 -26 27 -5 0 -9 4 -8 8 0 5 -15 20 -33 35 -43 35 -78 70
-78 80 -1 4 -15 16 -33 27 l-32 20 -6 35 c-4 19 -7 -47 -8 -147z" />
  </g>
  <g transform="translate(0.000000,297.000000) scale(0.100000,-0.100000)" fill="#c9eaee" stroke="none">
    <path d="M678 2963 c6 -2 18 -2 25 0 6 3 1 5 -13 5 -14 0 -19 -2 -12 -5z" />
    <path d="M828 2963 c6 -2 18 -2 25 0 6 3 1 5 -13 5 -14 0 -19 -2 -12 -5z" />
    <path d="M1905 2786 c0 -101 3 -182 8 -179 4 2 7 85 7 184 0 98 -3 179 -7 179
-5 0 -8 -83 -8 -184z" />
    <path d="M623 2953 c4 -3 10 -3 14 0 3 4 0 7 -7 7 -7 0 -10 -3 -7 -7z" />
    <path d="M890 2956 c0 -2 7 -7 16 -10 l15 -6 -6 10 c-6 10 -25 14 -25 6z" />
    <path d="M933 2943 c4 -3 10 -3 14 0 3 4 0 7 -7 7 -7 0 -10 -3 -7 -7z" />
    <path d="M990 2926 c0 -2 7 -7 16 -10 l15 -6 -6 10 c-6 10 -25 14 -25 6z" />
    <path d="M465 2900 l-6 -10 15 6 c18 7 21 14 7 14 -6 0 -13 -4 -16 -10z" />
    <path d="M1108 2868 c12 -6 22 -15 22 -20 0 -4 6 -8 13 -8 l12 1 -24 19 c-13
11 -28 20 -35 19 -6 0 -1 -5 12 -11z" />
    <path d="M385 2860 l-6 -10 15 6 c18 7 21 14 7 14 -6 0 -13 -4 -16 -10z" />
    <path d="M350 2835 l-13 -15 17 6 c9 3 16 10 16 15 0 13 -6 11 -20 -6z" />
    <path d="M1160 2832 c0 -12 19 -26 26 -19 2 2 -2 10 -11 17 l-15 12 0 -10z" />
    <path d="M289 2784 l-24 -27 21 11 c12 6 24 18 28 27 3 8 4 15 2 15 -1 0 -13
-12 -27 -26z" />
    <path d="M1260 2742 c0 -12 19 -26 26 -19 2 2 -2 10 -11 17 l-15 12 0 -10z" />
    <path d="M226 2706 c-23 -36 -20 -44 5 -12 12 15 19 29 16 32 -2 2 -12 -7 -21
-20z" />
    <path d="M1290 2701 c0 -5 6 -14 14 -20 8 -6 19 -25 26 -42 7 -16 15 -27 18
-25 5 5 -45 96 -53 96 -3 0 -5 -4 -5 -9z" />
    <path d="M185 2639 c-4 -6 -5 -12 -2 -15 2 -3 7 2 10 11 7 17 1 20 -8 4z" />
    <path d="M811 2626 c2 -2 18 -6 34 -10 l30 -7 -15 11 c-14 9 -59 15 -49 6z" />
    <path d="M887 2599 c7 -7 15 -10 18 -7 3 3 -2 9 -12 12 l-18 7 12 -12z" />
    <path d="M2250 2606 c0 -2 7 -7 16 -10 l15 -6 -6 10 c-6 10 -25 14 -25 6z" />
    <path d="M1915 2589 c-4 -6 -5 -12 -2 -15 2 -3 7 2 10 11 7 17 1 20 -8 4z" />
    <path d="M149 2554 c-5 -15 -8 -29 -5 -31 2 -2 8 10 14 26 13 38 5 41 -9 5z" />
    <path d="M580 2565 c-20 -24 -6 -28 15 -5 10 11 13 20 8 20 -6 0 -16 -7 -23
-15z" />
    <path d="M934 2561 c21 -23 26 -26 26 -11 0 5 -10 15 -22 21 l-23 12 19 -22z" />
    <path d="M2295 1925 c0 -363 1 -510 2 -327 2 184 2 481 0 660 -1 180 -2 30 -2
-333z" />
    <path d="M1371 2544 l1 -19 5 13 c3 7 2 16 -1 19 -3 4 -6 -2 -5 -13z" />
    <path d="M546 2513 l-7 -18 12 12 c7 7 10 15 7 18 -3 3 -9 -2 -12 -12z" />
    <path d="M970 2521 c0 -5 5 -13 10 -16 6 -3 10 -2 10 4 0 5 -4 13 -10 16 -5 3
-10 2 -10 -4z" />
    <path d="M131 2484 l1 -19 5 13 c3 7 2 16 -1 19 -3 4 -6 -2 -5 -13z" />
    <path d="M990 2481 c0 -6 4 -13 10 -16 l10 -6 -6 15 c-7 18 -14 21 -14 7z" />
    <path d="M1391 2464 l1 -19 5 13 c3 7 2 16 -1 19 -3 4 -6 -2 -5 -13z" />
    <path d="M508 1770 c-2 -358 0 -650 5 -650 4 0 7 293 7 650 0 358 -2 650 -5
650 -3 0 -6 -293 -7 -650z" />
    <path d="M1010 1490 c0 -5 5 -10 11 -10 5 0 7 5 4 10 -3 6 -8 10 -11 10 -2 0
-4 -4 -4 -10z" />
    <path d="M1032 1348 c-7 -7 -12 -19 -12 -27 l0 -15 16 22 c18 25 15 39 -4 20z" />
    <path d="M1390 1341 c0 -5 5 -13 10 -16 6 -3 10 -2 10 4 0 5 -4 13 -10 16 -5
3 -10 2 -10 -4z" />
    <path d="M1022 1265 l0 -30 5 18 c2 9 2 23 0 30 -3 6 -5 -1 -5 -18z" />
    <path d="M1901 1274 l1 -19 5 13 c3 7 2 16 -1 19 -3 4 -6 -2 -5 -13z" />
    <path d="M1411 1264 l1 -19 5 13 c3 7 2 16 -1 19 -3 4 -6 -2 -5 -13z" />
    <path d="M2276 1205 c-3 -8 -1 -15 4 -15 6 0 10 7 10 15 0 8 -2 15 -4 15 -2 0
-6 -7 -10 -15z" />
    <path d="M1030 1195 c0 -8 4 -15 10 -15 5 0 7 7 4 15 -4 8 -8 15 -10 15 -2 0
-4 -7 -4 -15z" />
    <path d="M1440 1181 c0 -5 5 -13 10 -16 6 -3 10 -2 10 4 0 5 -4 13 -10 16 -5
3 -10 2 -10 -4z" />
    <path d="M2266 1163 l-7 -18 12 12 c7 7 10 15 7 18 -3 3 -9 -2 -12 -12z" />
    <path d="M1045 1148 c4 -13 11 -27 16 -33 5 -5 4 5 -2 23 -12 36 -24 44 -14
10z" />
    <path d="M1820 1135 c-19 -19 -31 -35 -28 -35 11 0 72 59 67 65 -3 2 -21 -11
-39 -30z" />
    <path d="M147 1099 c7 -7 15 -10 18 -7 3 3 -2 9 -12 12 l-18 7 12 -12z" />
    <path d="M480 1100 l-15 -10 12 0 c6 0 15 5 18 10 8 12 4 12 -15 0z" />
    <path d="M1580 1076 c0 -2 7 -7 16 -10 l15 -6 -6 10 c-6 10 -25 14 -25 6z" />
    <path d="M1100 1031 c0 -6 4 -13 10 -16 l10 -6 -6 15 c-7 18 -14 21 -14 7z" />
    <path d="M1140 966 c0 -2 7 -9 15 -16 l15 -13 -6 17 c-3 9 -10 16 -15 16 -5 0
-9 -2 -9 -4z" />
    <path d="M2124 927 c-37 -40 -38 -53 -1 -18 21 19 37 36 37 38 0 9 -18 0 -36
-20z" />
    <path d="M1220 896 c0 -2 7 -9 15 -16 l15 -12 0 10 c0 5 -7 12 -15 16 -8 3
-15 4 -15 2z" />
    <path d="M1275 850 c3 -5 11 -10 16 -10 6 0 7 5 4 10 -3 6 -11 10 -16 10 -6 0
-7 -4 -4 -10z" />
    <path d="M1347 809 c7 -7 15 -10 18 -7 3 3 -2 9 -12 12 l-18 7 12 -12z" />
    <path d="M1925 795 c-27 -13 -44 -24 -37 -24 14 -1 92 37 92 44 0 6 4 8 -55
-20z" />
    <path d="M1467 759 c7 -7 15 -10 18 -7 3 3 -2 9 -12 12 l-18 7 12 -12z" />
    <path d="M1507 749 c7 -7 15 -10 18 -7 3 3 -2 9 -12 12 l-18 7 12 -12z" />
    <path d="M1588 733 c7 -3 16 -2 19 1 4 3 -2 6 -13 5 l-19 -1 13 -5z" />
    <path d="M1728 733 c7 -3 16 -2 19 1 4 3 -2 6 -13 5 l-19 -1 13 -5z" />
    <path d="M225 140 c0 -72 3 -130 8 -130 4 0 7 58 7 130 0 72 -3 130 -7 130 -5
0 -8 -58 -8 -130z" />
    <path d="M1025 140 c0 -72 3 -130 8 -130 4 0 7 58 7 130 0 72 -3 130 -7 130
-5 0 -8 -58 -8 -130z" />
    <path d="M1618 208 c5 -107 9 -117 11 -25 0 48 -2 87 -6 87 -5 0 -7 -28 -5
-62z" />
    <path d="M2350 266 c0 -2 7 -7 16 -10 l15 -6 -6 10 c-6 10 -25 14 -25 6z" />
    <path d="M2225 240 c-3 -5 -2 -10 4 -10 5 0 13 5 16 10 3 6 2 10 -4 10 -5 0
-13 -4 -16 -10z" />
    <path d="M80 235 c0 -5 9 -21 20 -35 11 -14 20 -20 20 -15 0 6 -9 21 -20 35
-11 14 -20 21 -20 15z" />
    <path d="M880 235 c0 -5 9 -21 20 -35 11 -14 20 -20 20 -15 0 6 -9 21 -20 35
-11 14 -20 21 -20 15z" />
    <path d="M2004 209 c0 -10 4 -19 8 -19 4 0 8 6 8 14 0 8 -4 17 -8 20 -4 2 -8
-4 -8 -15z" />
    <path d="M1891 204 l1 -19 5 13 c3 7 2 16 -1 19 -3 4 -6 -2 -5 -13z" />
    <path d="M2308 213 c6 -2 18 -2 25 0 6 3 1 5 -13 5 -14 0 -19 -2 -12 -5z" />
    <path d="M575 199 c-11 -17 1 -21 15 -4 l12 15 -10 0 c-6 0 -14 -5 -17 -11z" />
    <path d="M505 189 c-4 -6 -5 -12 -2 -15 2 -3 7 2 10 11 7 17 1 20 -8 4z" />
    <path d="M1310 181 c0 -5 5 -13 10 -16 6 -3 10 -2 10 4 0 5 -4 13 -10 16 -5 3
-10 2 -10 -4z" />
    <path d="M1397 183 c-4 -3 -7 -11 -7 -17 l0 -10 12 12 c6 6 9 14 7 17 -3 3 -9
2 -12 -2z" />
    <path d="M692 140 c0 -19 2 -27 5 -17 2 9 2 25 0 35 -3 9 -5 1 -5 -18z" />
    <path d="M562 140 c0 -14 2 -19 5 -12 2 6 2 18 0 25 -3 6 -5 1 -5 -13z" />
    <path d="M1950 156 c0 -2 7 -7 16 -10 l15 -6 -6 10 c-6 10 -25 14 -25 6z" />
    <path d="M2182 140 c0 -14 2 -19 5 -12 2 6 2 18 0 25 -3 6 -5 1 -5 -13z" />
    <path d="M1427 143 c-11 -11 -8 -20 8 -20 8 0 15 6 15 14 0 14 -12 17 -23 6z" />
    <path d="M350 110 c0 -7 3 -10 7 -7 3 4 3 10 0 14 -4 3 -7 0 -7 -7z" />
    <path d="M1711 104 l1 -19 5 13 c3 7 2 16 -1 19 -3 4 -6 -2 -5 -13z" />
    <path d="M500 101 c0 -6 4 -13 10 -16 l10 -6 -6 15 c-7 18 -14 21 -14 7z" />
    <path d="M570 96 c0 -2 8 -10 18 -17 l17 -14 -14 18 c-13 16 -21 21 -21 13z" />
    <path d="M670 85 l-12 -15 10 0 c12 0 26 19 19 26 -2 2 -10 -2 -17 -11z" />
    <path d="M1300 91 c0 -5 5 -13 10 -16 6 -3 10 -2 10 4 0 5 -4 13 -10 16 -5 3
-10 2 -10 -4z" />
    <path d="M1560 91 c0 -6 4 -13 10 -16 l10 -6 -6 15 c-7 18 -14 21 -14 7z" />
    <path d="M1766 83 l-7 -18 12 12 c7 7 10 15 7 18 -3 3 -9 -2 -12 -12z" />
    <path d="M1951 84 l1 -19 5 13 c3 7 2 16 -1 19 -3 4 -6 -2 -5 -13z" />
    <path d="M1890 70 c6 -11 15 -20 20 -20 l10 0 -12 20 c-7 11 -16 20 -21 20 -4
0 -3 -9 3 -20z" />
    <path d="M2210 61 c0 -5 5 -13 10 -16 6 -3 10 -2 10 4 0 5 -4 13 -10 16 -5 3
-10 2 -10 -4z" />
    <path d="M715 49 c-11 -17 1 -21 15 -4 l12 15 -10 0 c-6 0 -14 -5 -17 -11z" />
    <path d="M1747 53 c-4 -3 -7 -11 -7 -17 l0 -10 12 12 c6 6 9 14 7 17 -3 3 -9
2 -12 -2z" />
    <path d="M150 41 c0 -5 5 -13 10 -16 6 -3 10 -2 10 4 0 5 -4 13 -10 16 -5 3
-10 2 -10 -4z" />
    <path d="M950 41 c0 -5 5 -13 10 -16 6 -3 10 -2 10 4 0 5 -4 13 -10 16 -5 3
-10 2 -10 -4z" />
    <path d="M2375 30 c-3 -5 -2 -10 4 -10 5 0 13 5 16 10 3 6 2 10 -4 10 -5 0
-13 -4 -16 -10z" />
    <path d="M577 19 c7 -7 15 -10 18 -7 3 3 -2 9 -12 12 l-18 7 12 -12z" />
    <path d="M670 20 l-15 -10 12 0 c6 0 15 5 18 10 8 12 4 12 -15 0z" />
    <path d="M1375 20 c-3 -5 -1 -10 4 -10 6 0 11 5 11 10 0 6 -2 10 -4 10 -3 0
-8 -4 -11 -10z" />
    <path d="M1615 20 c3 -5 11 -10 16 -10 6 0 7 5 4 10 -3 6 -11 10 -16 10 -6 0
-7 -4 -4 -10z" />
    <path d="M2267 19 c7 -7 15 -10 18 -7 3 3 -2 9 -12 12 l-18 7 12 -12z" />
  </g>
  <g transform="translate(0.000000,297.000000) scale(0.100000,-0.100000)" fill="#1cd3ca" stroke="none">
    <path d="M1382 1343 c9 -10 18 -25 21 -33 l5 -15 1 13 c1 20 -18 52 -31 52
l-11 0 15 -17z" />
    <path d="M1030 1340 l-15 -10 12 0 c6 0 15 5 18 10 8 12 4 12 -15 0z" />
    <path d="M1410 1251 c0 -6 4 -13 10 -16 l10 -6 -6 15 c-7 18 -14 21 -14 7z" />
    <path d="M1035 1180 c3 -5 8 -10 11 -10 2 0 4 5 4 10 0 6 -5 10 -11 10 -5 0
-7 -4 -4 -10z" />
    <path d="M1440 1183 c0 -16 67 -83 83 -83 6 0 -5 14 -26 31 -20 16 -41 38 -47
47 l-9 17 -1 -12z" />
    <path d="M1860 1181 c0 -5 -6 -16 -12 -23 -7 -7 -20 -22 -28 -33 l-15 -20 18
14 c26 21 60 71 48 71 -6 0 -11 -4 -11 -9z" />
    <path d="M496 1115 c-3 -8 -1 -15 3 -15 5 0 11 7 15 15 3 8 1 15 -3 15 -5 0
-11 -7 -15 -15z" />
    <path d="M1060 1112 c0 -17 30 -75 36 -69 3 3 -4 22 -15 44 -11 21 -20 32 -21
25z" />
    <path d="M678 1083 c45 -2 119 -2 165 0 45 1 8 3 -83 3 -91 0 -128 -2 -82 -3z" />
    <path d="M1567 1079 c7 -7 15 -10 18 -7 3 3 -2 9 -12 12 l-18 7 12 -12z" />
    <path d="M1715 1075 l-30 -15 25 6 c14 4 29 10 35 15 12 12 5 11 -30 -6z" />
    <path d="M1603 1063 c4 -3 10 -3 14 0 3 4 0 7 -7 7 -7 0 -10 -3 -7 -7z" />
    <path d="M1111 1015 c0 -13 38 -59 44 -54 2 3 -7 18 -20 34 -13 17 -24 26 -24
20z" />
    <path d="M1185 920 c29 -31 45 -38 45 -20 0 6 -6 10 -13 10 -7 0 -18 9 -25 20
-7 11 -17 20 -24 20 -6 0 1 -13 17 -30z" />
    <path d="M2120 923 l-25 -26 21 11 c12 6 24 18 28 27 3 8 4 15 3 15 -1 0 -13
-12 -27 -27z" />
    <path d="M1240 883 c1 -10 80 -66 86 -60 2 2 -16 18 -41 36 -25 18 -45 29 -45
24z" />
    <path d="M2025 850 c-3 -5 1 -10 9 -10 8 0 18 5 21 10 3 6 -1 10 -9 10 -8 0
-18 -4 -21 -10z" />
    <path d="M1370 796 c0 -2 7 -7 16 -10 l15 -6 -6 10 c-6 10 -25 14 -25 6z" />
    <path d="M1453 763 c4 -3 10 -3 14 0 3 4 0 7 -7 7 -7 0 -10 -3 -7 -7z" />
    <path d="M1835 760 c-3 -5 -2 -10 4 -10 5 0 13 5 16 10 3 6 2 10 -4 10 -5 0
-13 -4 -16 -10z" />
    <path d="M0 262 c0 -5 13 -7 30 -4 l30 4 47 -76 c27 -41 52 -76 56 -76 5 0 -1
15 -13 33 -12 17 -35 53 -52 80 l-31 47 -33 0 c-19 0 -34 -4 -34 -8z" />
    <path d="M170 262 c0 -5 14 -7 30 -4 17 2 30 6 30 8 0 2 -13 4 -30 4 -16 0
-30 -4 -30 -8z" />
    <path d="M290 140 l0 -130 85 0 c47 0 85 3 85 8 0 4 -36 6 -80 4 l-80 -4 0
122 0 122 80 -4 c44 -2 80 0 80 5 0 4 -38 7 -85 7 l-85 0 0 -130z" />
    <path d="M558 254 c-15 -8 -32 -23 -38 -34 -17 -32 -11 -33 16 -1 14 17 40 35
57 40 l32 9 -20 1 c-11 0 -32 -6 -47 -15z" />
    <path d="M664 260 c37 -11 65 -38 82 -75 7 -16 13 -24 14 -17 0 7 -7 26 -15
42 -16 31 -62 61 -92 59 l-18 -1 29 -8z" />
    <path d="M800 262 c0 -5 13 -7 30 -4 l30 4 47 -76 c27 -41 52 -76 56 -76 5 0
-1 15 -13 33 -12 17 -35 53 -52 80 l-31 47 -33 0 c-19 0 -34 -4 -34 -8z" />
    <path d="M970 262 c0 -5 14 -7 30 -4 17 2 30 6 30 8 0 2 -13 4 -30 4 -16 0
-30 -4 -30 -8z" />
    <path d="M1200 263 c0 -5 18 -8 41 -8 l40 0 34 -80 c18 -44 38 -80 45 -80 7 0
27 36 45 80 l34 80 35 0 c20 0 36 3 36 8 0 4 -18 7 -39 7 l-39 0 -17 -42 c-31
-80 -49 -118 -55 -118 -6 0 -24 38 -55 118 l-17 42 -44 0 c-24 0 -44 -3 -44
-7z" />
    <path d="M1560 262 c0 -5 14 -7 30 -4 17 2 30 6 30 8 0 2 -13 4 -30 4 -16 0
-30 -4 -30 -8z" />
    <path d="M1710 263 c0 -5 16 -8 35 -8 19 0 35 3 35 8 0 4 -16 7 -35 7 -19 0
-35 -3 -35 -7z" />
    <path d="M1852 247 c-12 -13 -22 -30 -22 -38 l1 -14 14 25 c7 14 26 30 42 37
l28 12 -21 1 c-11 0 -30 -10 -42 -23z" />
    <path d="M1955 260 c28 -12 37 -12 30 0 -3 6 -16 10 -28 9 l-22 0 20 -9z" />
    <path d="M2080 140 l0 -130 35 0 c19 0 35 4 35 8 0 5 -13 7 -30 4 l-30 -4 0
122 0 122 30 -4 c17 -3 30 -1 30 4 0 4 -16 8 -35 8 l-35 0 0 -130z" />
    <path d="M2237 245 c-20 -14 -37 -27 -37 -28 0 -1 -4 -17 -9 -35 l-10 -32 10
5 c5 4 9 12 9 19 0 22 41 68 74 82 17 7 24 13 16 14 -9 0 -32 -11 -53 -25z" />
    <path d="M2338 263 c7 -3 16 -2 19 1 4 3 -2 6 -13 5 l-19 -1 13 -5z" />
    <path d="M2385 244 c11 -8 28 -25 37 -37 10 -12 18 -17 18 -11 0 15 -49 64
-64 64 -6 0 -2 -7 9 -16z" />
    <path d="M2000 230 c0 -7 3 -10 7 -7 3 4 3 10 0 14 -4 3 -7 0 -7 -7z" />
    <path d="M1895 220 l-6 -10 15 6 c18 7 21 14 7 14 -6 0 -13 -4 -16 -10z" />
    <path d="M588 209 c-10 -5 -18 -15 -18 -22 l0 -12 8 11 c4 6 16 16 27 22 11 6
16 11 10 11 -5 0 -18 -4 -27 -10z" />
    <path d="M661 201 c13 -11 26 -17 29 -14 6 6 -30 33 -43 33 -5 0 1 -9 14 -19z" />
    <path d="M1940 212 c0 -12 19 -26 26 -19 2 2 -2 10 -11 17 l-15 12 0 -10z" />
    <path d="M2266 204 c-21 -20 -30 -58 -22 -88 7 -27 32 -56 48 -56 6 0 -1 11
-16 25 l-26 24 0 31 0 31 25 24 c13 14 20 25 15 25 -5 0 -16 -7 -24 -16z" />
    <path d="M2346 206 c21 -15 30 -14 19 3 -3 6 -14 11 -23 11 l-16 0 20 -14z" />
    <path d="M1831 178 c-1 -17 43 -58 63 -58 6 0 24 -7 39 -15 l29 -15 -4 11 c-2
7 -28 20 -57 31 l-52 20 -9 21 -9 22 0 -17z" />
    <path d="M1890 179 c0 -11 48 -31 62 -27 5 2 -7 11 -26 19 -20 9 -36 12 -36 8z" />
    <path d="M60 172 c0 -6 4 -12 8 -14 4 -1 29 -36 56 -75 l48 -73 31 2 32 1 -30
4 -30 4 -40 65 c-22 36 -48 72 -57 81 l-18 16 0 -11z" />
    <path d="M501 164 l1 -19 5 13 c3 7 2 16 -1 19 -3 4 -6 -2 -5 -13z" />
    <path d="M860 172 c0 -6 4 -12 8 -14 4 -1 29 -36 56 -75 l48 -73 31 2 32 1
-30 4 -30 4 -40 65 c-22 36 -48 72 -57 81 l-18 16 0 -11z" />
    <path d="M1270 146 c0 -9 4 -16 9 -16 6 0 20 -27 32 -60 l22 -60 22 0 c12 0
27 6 33 13 5 6 18 35 28 64 10 28 22 49 26 47 4 -3 8 3 8 13 l0 17 -13 -14
c-8 -8 -24 -41 -37 -72 l-22 -58 -18 0 -17 0 -28 65 c-28 66 -45 89 -45 61z" />
    <path d="M1988 134 l22 -15 0 -28 0 -28 -22 -20 c-13 -12 -32 -23 -43 -26
l-20 -5 21 -1 c12 0 33 8 48 20 l26 20 0 34 0 34 -16 15 c-8 9 -21 16 -27 16
-6 0 -1 -7 11 -16z" />
    <path d="M435 130 c-3 -5 -1 -10 4 -10 6 0 11 5 11 10 0 6 -2 10 -4 10 -3 0
-8 -4 -11 -10z" />
    <path d="M757 133 c-4 -3 -7 -15 -7 -26 0 -10 -15 -34 -34 -53 -19 -19 -30
-34 -25 -34 7 0 59 47 59 53 0 1 4 17 9 35 10 33 9 37 -2 25z" />
    <path d="M501 114 l1 -19 5 13 c3 7 2 16 -1 19 -3 4 -6 -2 -5 -13z" />
    <path d="M2187 106 c6 -27 56 -86 74 -86 6 0 -1 10 -16 22 -15 12 -34 36 -41
55 -8 18 -16 33 -18 33 -2 0 -1 -11 1 -24z" />
    <path d="M560 111 c0 -6 4 -13 10 -16 l10 -6 -6 15 c-7 18 -14 21 -14 7z" />
    <path d="M672 84 l-13 -14 10 0 c10 0 25 19 20 25 -2 1 -10 -3 -17 -11z" />
    <path d="M1620 91 c0 -10 29 -36 34 -30 1 2 -6 12 -16 22 -10 9 -18 13 -18 8z" />
    <path d="M1698 78 c-10 -10 -14 -18 -9 -18 10 0 36 29 30 34 -2 1 -12 -6 -21
-16z" />
    <path d="M510 84 c0 -15 49 -64 64 -64 6 0 1 8 -11 18 -12 9 -29 26 -37 37 -9
11 -16 15 -16 9z" />
    <path d="M1830 70 c0 -25 38 -60 64 -60 l21 0 -35 18 -35 17 1 23 c0 12 -3 22
-8 22 -4 0 -8 -9 -8 -20z" />
    <path d="M2346 74 c-11 -8 -16 -14 -10 -14 13 0 39 18 34 24 -3 2 -14 -2 -24
-10z" />
    <path d="M2427 83 c-4 -3 -7 -11 -7 -17 l0 -10 12 12 c6 6 9 14 7 17 -3 3 -9
2 -12 -2z" />
    <path d="M1570 69 c0 -22 29 -46 65 -54 l30 -6 -31 14 c-17 8 -39 25 -48 38
l-16 23 0 -15z" />
    <path d="M1752 59 c-7 -11 -27 -27 -45 -34 l-32 -14 23 -1 23 0 24 26 c14 15
25 31 25 35 0 14 -4 11 -18 -12z" />
    <path d="M1890 71 c0 -10 19 -25 25 -20 1 2 -3 10 -11 17 l-14 13 0 -10z" />
    <path d="M1940 65 l-12 -15 10 0 c12 0 26 19 19 26 -2 2 -10 -2 -17 -11z" />
    <path d="M2376 33 c-4 -4 -28 -10 -54 -14 l-47 -6 45 -1 45 -1 19 14 c11 8 15
15 10 15 -6 0 -14 -3 -18 -7z" />
    <path d="M0 18 c0 -5 16 -8 35 -8 19 0 35 3 35 8 0 4 -16 7 -35 7 -19 0 -35
-3 -35 -7z" />
    <path d="M800 18 c0 -5 16 -8 35 -8 19 0 35 3 35 8 0 4 -16 7 -35 7 -19 0 -35
-3 -35 -7z" />
    <path d="M1200 18 c0 -5 18 -8 40 -8 22 0 40 3 40 8 0 4 -18 7 -40 7 -22 0
-40 -3 -40 -7z" />
    <path d="M1440 18 c0 -5 16 -8 35 -8 19 0 35 3 35 8 0 4 -16 7 -35 7 -19 0
-35 -3 -35 -7z" />
    <path d="M598 13 c7 -3 16 -2 19 1 4 3 -2 6 -13 5 l-19 -1 13 -5z" />
    <path d="M648 13 c7 -3 16 -2 19 1 4 3 -2 6 -13 5 l-19 -1 13 -5z" />
  </g>
  <g transform="translate(0.000000,297.000000) scale(0.100000,-0.100000)" fill="#8be8df" stroke="none">
    <path d="M1012 1758 c-1 -147 1 -269 6 -271 4 -3 6 74 4 171 -4 334 -8 367
-10 100z" />
    <path d="M1133 1353 c48 -2 126 -2 175 0 48 1 8 3 -88 3 -96 0 -136 -2 -87 -3z" />
    <path d="M1400 1320 c0 -7 3 -10 7 -7 3 4 3 10 0 14 -4 3 -7 0 -7 -7z" />
    <path d="M1421 1224 l1 -19 5 13 c3 7 2 16 -1 19 -3 4 -6 -2 -5 -13z" />
    <path d="M1031 1214 l1 -19 5 13 c3 7 2 16 -1 19 -3 4 -6 -2 -5 -13z" />
    <path d="M1435 1190 c3 -5 8 -10 11 -10 3 0 2 5 -1 10 -3 6 -8 10 -11 10 -3 0
-2 -4 1 -10z" />
    <path d="M2270 1180 c0 -7 3 -10 7 -7 3 4 3 10 0 14 -4 3 -7 0 -7 -7z" />
    <path d="M1040 1170 c0 -7 3 -10 7 -7 3 4 3 10 0 14 -4 3 -7 0 -7 -7z" />
    <path d="M1450 1167 c0 -2 15 -16 33 -33 l32 -29 -29 33 c-28 30 -36 37 -36
29z" />
    <path d="M130 1121 c0 -6 4 -13 10 -16 l10 -6 -6 15 c-7 18 -14 21 -14 7z" />
    <path d="M1066 1087 c3 -10 9 -15 12 -12 3 3 0 11 -7 18 l-12 12 7 -18z" />
    <path d="M1748 1083 c7 -3 16 -2 19 1 4 3 -2 6 -13 5 l-19 -1 13 -5z" />
    <path d="M1713 1073 c4 -3 10 -3 14 0 3 4 0 7 -7 7 -7 0 -10 -3 -7 -7z" />
    <path d="M1618 1063 c7 -3 16 -2 19 1 4 3 -2 6 -13 5 l-19 -1 13 -5z" />
    <path d="M1678 1063 c7 -3 16 -2 19 1 4 3 -2 6 -13 5 l-19 -1 13 -5z" />
    <path d="M1080 1056 c0 -2 8 -10 18 -17 l17 -14 -14 18 c-13 16 -21 21 -21 13z" />
    <path d="M2196 1014 l-6 -17 15 13 c17 14 19 20 6 20 -5 0 -12 -7 -15 -16z" />
    <path d="M2169 973 l-14 -18 18 14 c16 13 21 21 13 21 -2 0 -10 -8 -17 -17z" />
    <path d="M1190 915 c13 -14 26 -25 28 -25 3 0 -5 11 -18 25 -13 14 -26 25 -28
25 -3 0 5 -11 18 -25z" />
    <path d="M1265 860 c3 -5 8 -10 11 -10 3 0 2 5 -1 10 -3 6 -8 10 -11 10 -3 0
-2 -4 1 -10z" />
    <path d="M1290 846 c0 -2 8 -10 18 -17 l17 -14 -14 18 c-13 16 -21 21 -21 13z" />
    <path d="M1418 773 c7 -3 16 -2 19 1 4 3 -2 6 -13 5 l-19 -1 13 -5z" />
    <path d="M1835 760 l-20 -9 15 0 c8 0 24 4 35 9 l20 9 -15 0 c-8 0 -24 -4 -35
-9z" />
    <path d="M715 740 l-210 -6 207 -2 207 -2 6 10 c3 6 5 9 3 8 -2 -1 -97 -5
-213 -8z" />
    <path d="M1538 743 c7 -3 16 -2 19 1 4 3 -2 6 -13 5 l-19 -1 13 -5z" />
    <path d="M1778 743 c7 -3 16 -2 19 1 4 3 -2 6 -13 5 l-19 -1 13 -5z" />
    <path d="M1608 733 c7 -3 16 -2 19 1 4 3 -2 6 -13 5 l-19 -1 13 -5z" />
    <path d="M1698 733 c6 -2 18 -2 25 0 6 3 1 5 -13 5 -14 0 -19 -2 -12 -5z" />
    <path d="M4 140 c0 -74 1 -105 3 -67 2 37 2 97 0 135 -2 37 -3 6 -3 -68z" />
    <path d="M448 245 c-3 -14 -1 -25 3 -25 5 0 9 11 9 25 0 14 -2 25 -4 25 -2 0
-6 -11 -8 -25z" />
    <path d="M804 140 c0 -74 1 -105 3 -67 2 37 2 97 0 135 -2 37 -3 6 -3 -68z" />
    <path d="M1204 140 c0 -74 1 -105 3 -67 2 37 2 97 0 135 -2 37 -3 6 -3 -68z" />
    <path d="M1504 140 c0 -74 1 -105 3 -67 2 37 2 97 0 135 -2 37 -3 6 -3 -68z" />
    <path d="M1873 263 c4 -3 10 -3 14 0 3 4 0 7 -7 7 -7 0 -10 -3 -7 -7z" />
    <path d="M1963 263 c4 -3 10 -3 14 0 3 4 0 7 -7 7 -7 0 -10 -3 -7 -7z" />
    <path d="M554 248 l-7 -11 11 7 c12 7 16 16 8 16 -3 0 -8 -5 -12 -12z" />
    <path d="M1995 240 c3 -5 8 -10 11 -10 3 0 2 5 -1 10 -3 6 -8 10 -11 10 -3 0
-2 -4 1 -10z" />
    <path d="M2214 228 l-7 -11 11 7 c7 4 12 9 12 12 0 8 -9 4 -16 -8z" />
    <path d="M1918 223 c7 -3 16 -2 19 1 4 3 -2 6 -13 5 l-19 -1 13 -5z" />
    <path d="M514 208 l-7 -11 11 7 c12 7 16 16 8 16 -3 0 -8 -5 -12 -12z" />
    <path d="M628 213 c7 -3 16 -2 19 1 4 3 -2 6 -13 5 l-19 -1 13 -5z" />
    <path d="M2004 198 l-7 -11 11 7 c7 4 12 9 12 12 0 8 -9 4 -16 -8z" />
    <path d="M2431 194 l1 -19 5 13 c3 7 2 16 -1 19 -3 4 -6 -2 -5 -13z" />
    <path d="M1890 191 c0 -6 4 -13 10 -16 l10 -6 -6 15 c-7 18 -14 21 -14 7z" />
    <path d="M130 161 c5 -11 15 -23 21 -27 6 -3 3 5 -6 20 -20 30 -30 35 -15 7z" />
    <path d="M350 170 c0 -5 5 -10 11 -10 5 0 7 5 4 10 -3 6 -8 10 -11 10 -2 0 -4
-4 -4 -10z" />
    <path d="M561 164 l1 -19 5 13 c3 7 2 16 -1 19 -3 4 -6 -2 -5 -13z" />
    <path d="M690 170 c0 -7 3 -10 7 -7 3 4 3 10 0 14 -4 3 -7 0 -7 -7z" />
    <path d="M930 161 c5 -11 15 -23 21 -27 6 -3 3 5 -6 20 -20 30 -30 35 -15 7z" />
    <path d="M1923 163 c4 -3 10 -3 14 0 3 4 0 7 -7 7 -7 0 -10 -3 -7 -7z" />
    <path d="M1330 150 c0 -7 3 -10 7 -7 3 4 3 10 0 14 -4 3 -7 0 -7 -7z" />
    <path d="M1380 150 c0 -7 3 -10 7 -7 3 4 3 10 0 14 -4 3 -7 0 -7 -7z" />
    <path d="M1883 123 c4 -3 10 -3 14 0 3 4 0 7 -7 7 -7 0 -10 -3 -7 -7z" />
    <path d="M690 110 c0 -7 3 -10 7 -7 3 4 3 10 0 14 -4 3 -7 0 -7 -7z" />
    <path d="M1560 100 c0 -7 3 -10 7 -7 3 4 3 10 0 14 -4 3 -7 0 -7 -7z" />
    <path d="M1620 100 c0 -7 3 -10 7 -7 3 4 3 10 0 14 -4 3 -7 0 -7 -7z" />
    <path d="M1770 100 c0 -7 3 -10 7 -7 3 4 3 10 0 14 -4 3 -7 0 -7 -7z" />
    <path d="M125 76 c10 -14 19 -26 22 -26 7 0 -17 39 -28 46 -6 3 -3 -5 6 -20z" />
    <path d="M925 76 c10 -14 19 -26 22 -26 7 0 -17 39 -28 46 -6 3 -3 -5 6 -20z" />
    <path d="M2190 90 c0 -7 3 -10 7 -7 3 4 3 10 0 14 -4 3 -7 0 -7 -7z" />
    <path d="M2431 84 l1 -19 5 13 c3 7 2 16 -1 19 -3 4 -6 -2 -5 -13z" />
    <path d="M1658 63 c6 -2 18 -2 25 0 6 3 1 5 -13 5 -14 0 -19 -2 -12 -5z" />
    <path d="M2298 63 c7 -3 16 -2 19 1 4 3 -2 6 -13 5 l-19 -1 13 -5z" />
    <path d="M448 35 c2 -14 6 -25 8 -25 2 0 4 11 4 25 0 14 -4 25 -9 25 -4 0 -6
-11 -3 -25z" />
    <path d="M694 28 l-7 -11 11 7 c7 4 12 9 12 12 0 8 -9 4 -16 -8z" />
    <path d="M1703 13 c4 -3 10 -3 14 0 3 4 0 7 -7 7 -7 0 -10 -3 -7 -7z" />
    <path d="M1878 13 c7 -3 16 -2 19 1 4 3 -2 6 -13 5 l-19 -1 13 -5z" />
    <path d="M2348 13 c7 -3 16 -2 19 1 4 3 -2 6 -13 5 l-19 -1 13 -5z" />
  </g>
  <g transform="translate(0.000000,297.000000) scale(0.100000,-0.100000)" fill="#e3f3f5" stroke="none">
    <path d="M855 2960 c3 -5 8 -10 11 -10 3 0 2 5 -1 10 -3 6 -8 10 -11 10 -3 0
-2 -4 1 -10z" />
    <path d="M1500 2959 c0 -5 5 -7 10 -4 6 3 10 8 10 11 0 2 -4 4 -10 4 -5 0 -10
-5 -10 -11z" />
    <path d="M1903 2963 c4 -3 10 -3 14 0 3 4 0 7 -7 7 -7 0 -10 -3 -7 -7z" />
    <path d="M553 2940 c-34 -14 -28 -21 7 -9 17 6 30 13 30 15 0 6 -12 4 -37 -6z" />
    <path d="M975 2930 c3 -5 11 -10 16 -10 6 0 7 5 4 10 -3 6 -11 10 -16 10 -6 0
-7 -4 -4 -10z" />
    <path d="M485 2910 c-3 -5 -2 -10 4 -10 5 0 13 5 16 10 3 6 2 10 -4 10 -5 0
-13 -4 -16 -10z" />
    <path d="M1020 2915 c0 -8 61 -37 67 -31 3 2 -9 12 -26 20 -31 17 -41 19 -41
11z" />
    <path d="M434 2885 c-10 -8 -14 -14 -9 -14 6 0 19 6 29 14 11 8 15 15 10 15
-6 0 -19 -7 -30 -15z" />
    <path d="M1113 2863 c4 -3 10 -3 14 0 3 4 0 7 -7 7 -7 0 -10 -3 -7 -7z" />
    <path d="M360 2839 c0 -5 5 -7 10 -4 6 3 10 8 10 11 0 2 -4 4 -10 4 -5 0 -10
-5 -10 -11z" />
    <path d="M1155 2830 c3 -5 8 -10 11 -10 2 0 4 5 4 10 0 6 -5 10 -11 10 -5 0
-7 -4 -4 -10z" />
    <path d="M315 2810 c-3 -5 -2 -10 4 -10 5 0 13 5 16 10 3 6 2 10 -4 10 -5 0
-13 -4 -16 -10z" />
    <path d="M267 2763 c-4 -3 -7 -11 -7 -17 l0 -10 12 12 c6 6 9 14 7 17 -3 3 -9
2 -12 -2z" />
    <path d="M1275 2720 c3 -5 8 -10 11 -10 2 0 4 5 4 10 0 6 -5 10 -11 10 -5 0
-7 -4 -4 -10z" />
    <path d="M197 2663 c-4 -3 -7 -11 -7 -17 l0 -10 12 12 c6 6 9 14 7 17 -3 3 -9
2 -12 -2z" />
    <path d="M691 2628 c-19 -5 -44 -17 -55 -25 l-21 -15 20 7 c11 4 35 13 52 19
18 7 36 15 39 19 8 8 10 8 -35 -5z" />
    <path d="M797 2629 c7 -7 15 -10 18 -7 3 3 -2 9 -12 12 l-18 7 12 -12z" />
    <path d="M170 2611 c-12 -24 -13 -34 -1 -27 9 6 22 46 15 46 -2 0 -8 -9 -14
-19z" />
    <path d="M867 2609 c7 -7 15 -10 18 -7 3 3 -2 9 -12 12 l-18 7 12 -12z" />
    <path d="M1352 2593 c17 -41 30 -53 17 -15 -6 18 -15 35 -20 38 -5 3 -4 -7 3
-23z" />
    <path d="M1509 2607 c4 -4 97 -6 207 -5 l199 3 -207 5 c-114 3 -204 2 -199 -3z" />
    <path d="M2285 2580 c3 -5 8 -10 11 -10 3 0 2 5 -1 10 -3 6 -8 10 -11 10 -3 0
-2 -4 1 -10z" />
    <path d="M1376 2517 c3 -10 9 -15 12 -12 3 3 0 11 -7 18 l-12 12 7 -18z" />
    <path d="M134 2498 l-7 -11 11 7 c12 7 16 16 8 16 -3 0 -8 -5 -12 -12z" />
    <path d="M532 2489 c-5 -13 -13 -35 -17 -49 l-7 -25 8 8 c10 10 34 80 29 86
-3 2 -8 -7 -13 -20z" />
    <path d="M980 2501 c0 -6 4 -13 10 -16 l10 -6 -6 15 c-7 18 -14 21 -14 7z" />
    <path d="M1385 2480 c3 -5 8 -10 11 -10 3 0 2 5 -1 10 -3 6 -8 10 -11 10 -3 0
-2 -4 1 -10z" />
    <path d="M1000 2441 c0 -6 4 -13 10 -16 l10 -6 -6 15 c-7 18 -14 21 -14 7z" />
    <path d="M1040 1349 c0 -5 5 -7 10 -4 6 3 10 8 10 11 0 2 -4 4 -10 4 -5 0 -10
-5 -10 -11z" />
    <path d="M1385 1350 c3 -5 8 -10 11 -10 3 0 2 5 -1 10 -3 6 -8 10 -11 10 -3 0
-2 -4 1 -10z" />
    <path d="M1901 1294 l1 -19 5 13 c3 7 2 16 -1 19 -3 4 -6 -2 -5 -13z" />
    <path d="M2288 1257 l-6 -29 10 10 c6 6 8 18 6 28 l-4 19 -6 -28z" />
    <path d="M1895 1249 c-4 -6 -5 -12 -2 -15 2 -3 7 2 10 11 7 17 1 20 -8 4z" />
    <path d="M1865 1190 c-3 -5 -1 -10 4 -10 6 0 11 5 11 10 0 6 -2 10 -4 10 -3 0
-8 -4 -11 -10z" />
    <path d="M2270 1189 c0 -5 5 -7 10 -4 6 3 10 8 10 11 0 2 -4 4 -10 4 -5 0 -10
-5 -10 -11z" />
    <path d="M1035 1180 c3 -5 8 -10 11 -10 3 0 2 5 -1 10 -3 6 -8 10 -11 10 -3 0
-2 -4 1 -10z" />
    <path d="M1827 1143 c-4 -3 -7 -11 -7 -17 l0 -10 12 12 c6 6 9 14 7 17 -3 3
-9 2 -12 -2z" />
    <path d="M2251 1113 l-11 -28 15 19 c8 11 15 23 15 28 0 15 -7 8 -19 -19z" />
    <path d="M505 1119 c-4 -6 -5 -12 -2 -15 2 -3 7 2 10 11 7 17 1 20 -8 4z" />
    <path d="M1510 1110 c8 -6 24 -15 35 -21 l20 -10 -25 20 c-14 11 -29 21 -35
21 -5 0 -3 -5 5 -10z" />
    <path d="M1060 1100 c0 -7 3 -10 7 -7 3 4 3 10 0 14 -4 3 -7 0 -7 -7z" />
    <path d="M918 973 c4 -218 8 -239 10 -60 1 97 -1 177 -5 177 -5 0 -7 -53 -5
-117z" />
    <path d="M1076 1067 c3 -10 9 -15 12 -12 3 3 0 11 -7 18 l-12 12 7 -18z" />
    <path d="M2205 1030 c-3 -5 -1 -10 4 -10 6 0 11 5 11 10 0 6 -2 10 -4 10 -3 0
-8 -4 -11 -10z" />
    <path d="M1110 1011 c0 -6 4 -13 10 -16 l10 -6 -6 15 c-7 18 -14 21 -14 7z" />
    <path d="M2186 993 l-7 -18 12 12 c7 7 10 15 7 18 -3 3 -9 -2 -12 -12z" />
    <path d="M1140 970 c0 -7 3 -10 7 -7 3 4 3 10 0 14 -4 3 -7 0 -7 -7z" />
    <path d="M2145 950 c-3 -5 -1 -10 4 -10 6 0 11 5 11 10 0 6 -2 10 -4 10 -3 0
-8 -4 -11 -10z" />
    <path d="M2075 880 c-3 -5 -2 -10 4 -10 5 0 13 5 16 10 3 6 2 10 -4 10 -5 0
-13 -4 -16 -10z" />
    <path d="M1243 873 c4 -3 10 -3 14 0 3 4 0 7 -7 7 -7 0 -10 -3 -7 -7z" />
    <path d="M2012 839 c-24 -12 -41 -23 -39 -26 5 -4 87 36 87 43 0 6 -2 5 -48
-17z" />
    <path d="M1313 823 c4 -3 10 -3 14 0 3 4 0 7 -7 7 -7 0 -10 -3 -7 -7z" />
    <path d="M1405 780 c3 -5 8 -10 11 -10 3 0 2 5 -1 10 -3 6 -8 10 -11 10 -3 0
-2 -4 1 -10z" />
    <path d="M1900 779 c0 -5 5 -7 10 -4 6 3 10 8 10 11 0 2 -4 4 -10 4 -5 0 -10
-5 -10 -11z" />
    <path d="M1437 769 c7 -7 15 -10 18 -7 3 3 -2 9 -12 12 l-18 7 12 -12z" />
    <path d="M1874 768 l-7 -11 11 7 c12 7 16 16 8 16 -3 0 -8 -5 -12 -12z" />
    <path d="M1844 758 l-7 -11 11 7 c12 7 16 16 8 16 -3 0 -8 -5 -12 -12z" />
    <path d="M1800 750 l-15 -10 12 0 c6 0 15 5 18 10 8 12 4 12 -15 0z" />
    <path d="M1573 733 c4 -3 10 -3 14 0 3 4 0 7 -7 7 -7 0 -10 -3 -7 -7z" />
    <path d="M1743 733 c4 -3 10 -3 14 0 3 4 0 7 -7 7 -7 0 -10 -3 -7 -7z" />
    <path d="M1713 190 c0 -47 2 -66 4 -42 2 23 2 61 0 85 -2 23 -4 4 -4 -43z" />
    <path d="M1864 258 l-7 -11 11 7 c7 4 12 9 12 12 0 8 -9 4 -16 -8z" />
    <path d="M1975 260 c3 -5 8 -10 11 -10 3 0 2 5 -1 10 -3 6 -8 10 -11 10 -3 0
-2 -4 1 -10z" />
    <path d="M2144 140 c0 -74 1 -105 3 -67 2 37 2 97 0 135 -2 37 -3 6 -3 -68z" />
    <path d="M530 235 c-19 -22 -8 -25 13 -3 9 10 13 18 8 18 -5 0 -14 -7 -21 -15z" />
    <path d="M710 246 c0 -2 8 -10 18 -17 l17 -14 -14 18 c-13 16 -21 21 -21 13z" />
    <path d="M1296 227 c3 -10 9 -15 12 -12 3 3 0 11 -7 18 l-12 12 7 -18z" />
    <path d="M1415 229 c-4 -6 -5 -12 -2 -15 2 -3 7 2 10 11 7 17 1 20 -8 4z" />
    <path d="M350 201 c0 -17 3 -32 8 -34 4 -3 7 10 7 29 0 19 -3 34 -7 34 -5 0
-8 -13 -8 -29z" />
    <path d="M2200 209 c-7 -11 -10 -23 -7 -25 2 -2 9 7 15 21 14 30 7 33 -8 4z" />
    <path d="M1940 211 c0 -6 4 -13 10 -16 l10 -6 -6 15 c-7 18 -14 21 -14 7z" />
    <path d="M2427 204 l6 -17 -36 5 c-19 2 -33 0 -31 -4 3 -4 21 -8 40 -8 l34 0
0 14 c0 8 -4 18 -10 21 l-10 6 7 -17z" />
    <path d="M660 206 c0 -2 8 -10 18 -17 l17 -14 -14 18 c-13 16 -21 21 -21 13z" />
    <path d="M130 160 c0 -7 3 -10 7 -7 3 4 3 10 0 14 -4 3 -7 0 -7 -7z" />
    <path d="M435 160 c3 -5 8 -10 11 -10 2 0 4 5 4 10 0 6 -5 10 -11 10 -5 0 -7
-4 -4 -10z" />
    <path d="M930 160 c0 -7 3 -10 7 -7 3 4 3 10 0 14 -4 3 -7 0 -7 -7z" />
    <path d="M1325 160 c3 -5 8 -10 11 -10 3 0 2 5 -1 10 -3 6 -8 10 -11 10 -3 0
-2 -4 1 -10z" />
    <path d="M1384 158 l-7 -11 11 7 c7 4 12 9 12 12 0 8 -9 4 -16 -8z" />
    <path d="M690 140 c0 -7 3 -10 7 -7 3 4 3 10 0 14 -4 3 -7 0 -7 -7z" />
    <path d="M760 140 c0 -7 3 -10 7 -7 3 4 3 10 0 14 -4 3 -7 0 -7 -7z" />
    <path d="M150 130 c0 -7 3 -10 7 -7 3 4 3 10 0 14 -4 3 -7 0 -7 -7z" />
    <path d="M950 130 c0 -7 3 -10 7 -7 3 4 3 10 0 14 -4 3 -7 0 -7 -7z" />
    <path d="M1347 103 c3 -7 9 -13 13 -13 4 0 10 6 13 13 l5 13 -18 0 -18 0 5
-13z" />
    <path d="M1913 113 c4 -3 10 -3 14 0 3 4 0 7 -7 7 -7 0 -10 -3 -7 -7z" />
    <path d="M110 100 c0 -7 3 -10 7 -7 3 4 3 10 0 14 -4 3 -7 0 -7 -7z" />
    <path d="M350 80 c0 -16 4 -30 8 -30 5 0 7 13 4 30 -2 17 -6 30 -8 30 -2 0 -4
-13 -4 -30z" />
    <path d="M910 100 c0 -7 3 -10 7 -7 3 4 3 10 0 14 -4 3 -7 0 -7 -7z" />
    <path d="M1406 83 l-7 -18 12 12 c7 7 10 15 7 18 -3 3 -9 -2 -12 -12z" />
    <path d="M2366 92 c-2 -4 12 -6 31 -4 l36 5 -6 -17 -7 -17 10 6 c6 3 10 13 10
21 l0 14 -34 0 c-19 0 -37 -4 -40 -8z" />
    <path d="M2195 80 c3 -5 8 -10 11 -10 3 0 2 5 -1 10 -3 6 -8 10 -11 10 -3 0
-2 -4 1 -10z" />
    <path d="M130 70 c0 -7 3 -10 7 -7 3 4 3 10 0 14 -4 3 -7 0 -7 -7z" />
    <path d="M930 70 c0 -7 3 -10 7 -7 3 4 3 10 0 14 -4 3 -7 0 -7 -7z" />
    <path d="M1939 63 l-14 -18 18 14 c16 13 21 21 13 21 -2 0 -10 -8 -17 -17z" />
    <path d="M2270 76 c0 -2 7 -7 16 -10 l15 -6 -6 10 c-6 10 -25 14 -25 6z" />
    <path d="M1570 61 c0 -10 39 -46 43 -40 2 2 -7 14 -20 26 -13 12 -23 19 -23
14z" />
    <path d="M2006 53 l-7 -18 12 12 c7 7 10 15 7 18 -3 3 -9 -2 -12 -12z" />
    <path d="M1320 41 c0 -6 4 -13 10 -16 l10 -6 -6 15 c-7 18 -14 21 -14 7z" />
    <path d="M1386 33 l-7 -18 12 12 c7 7 10 15 7 18 -3 3 -9 -2 -12 -12z" />
    <path d="M2225 40 c3 -5 8 -10 11 -10 3 0 2 5 -1 10 -3 6 -8 10 -11 10 -3 0
-2 -4 1 -10z" />
    <path d="M703 33 c4 -3 10 -3 14 0 3 4 0 7 -7 7 -7 0 -10 -3 -7 -7z" />
    <path d="M1724 24 l-19 -15 23 11 c12 6 22 13 22 15 0 8 -5 6 -26 -11z" />
    <path d="M1865 20 c3 -5 8 -10 11 -10 3 0 2 5 -1 10 -3 6 -8 10 -11 10 -3 0
-2 -4 1 -10z" />
  </g>
  <g transform="translate(0.000000,297.000000) scale(0.100000,-0.100000)" fill="#97b2d2" stroke="none">
    <path d="M727 2963 c18 -2 50 -2 70 0 21 2 7 4 -32 4 -38 0 -55 -2 -38 -4z" />
    <path d="M1504 2957 c-2 -7 -3 -89 -1 -182 l3 -170 2 177 2 178 203 3 202 2
-203 3 -203 2 -5 -13z" />
    <path d="M633 2953 c4 -3 10 -3 14 0 3 4 0 7 -7 7 -7 0 -10 -3 -7 -7z" />
    <path d="M883 2953 c4 -3 10 -3 14 0 3 4 0 7 -7 7 -7 0 -10 -3 -7 -7z" />
    <path d="M588 2943 c7 -3 16 -2 19 1 4 3 -2 6 -13 5 l-19 -1 13 -5z" />
    <path d="M923 2943 c4 -3 10 -3 14 0 3 4 0 7 -7 7 -7 0 -10 -3 -7 -7z" />
    <path d="M553 2933 c4 -3 10 -3 14 0 3 4 0 7 -7 7 -7 0 -10 -3 -7 -7z" />
    <path d="M960 2936 c0 -2 7 -7 16 -10 l15 -6 -6 10 c-6 10 -25 14 -25 6z" />
    <path d="M490 2910 c-8 -5 -10 -10 -5 -10 6 0 17 5 25 10 8 5 11 10 5 10 -5 0
-17 -5 -25 -10z" />
    <path d="M1011 2916 c10 -9 89 -46 89 -41 0 5 -75 45 -86 45 -4 0 -5 -2 -3 -4z" />
    <path d="M424 2874 l-19 -15 23 11 c12 6 22 13 22 15 0 8 -5 6 -26 -11z" />
    <path d="M374 2848 l-7 -11 11 7 c7 4 12 9 12 12 0 8 -9 4 -16 -8z" />
    <path d="M1130 2846 c0 -2 7 -7 16 -10 l15 -6 -6 10 c-6 10 -25 14 -25 6z" />
    <path d="M329 2813 l-14 -18 18 14 c16 13 21 21 13 21 -2 0 -10 -8 -17 -17z" />
    <path d="M1171 2817 c2 -1 13 -9 24 -17 l20 -15 -14 18 c-7 9 -18 17 -24 17
-6 0 -8 -1 -6 -3z" />
    <path d="M1246 2758 c10 -14 21 -24 23 -22 3 3 -6 15 -18 27 l-24 22 19 -27z" />
    <path d="M259 2743 c-29 -35 -41 -53 -36 -53 2 0 17 16 31 35 28 36 31 49 5
18z" />
    <path d="M1290 2701 c5 -11 15 -23 21 -27 6 -3 3 5 -6 20 -20 30 -30 35 -15 7z" />
    <path d="M200 2660 c-6 -11 -8 -20 -6 -20 3 0 10 9 16 20 6 11 8 20 6 20 -3 0
-10 -9 -16 -20z" />
    <path d="M738 2633 c12 -2 30 -2 40 0 9 3 -1 5 -23 4 l-40 0 23 -4z" />
    <path d="M683 2623 c4 -3 10 -3 14 0 3 4 0 7 -7 7 -7 0 -10 -3 -7 -7z" />
    <path d="M833 2623 c4 -3 10 -3 14 0 3 4 0 7 -7 7 -7 0 -10 -3 -7 -7z" />
    <path d="M645 2610 l-6 -10 15 6 c18 7 21 14 7 14 -6 0 -13 -4 -16 -10z" />
    <path d="M166 2595 c-9 -26 -7 -32 5 -12 6 10 9 21 6 23 -2 3 -7 -2 -11 -11z" />
    <path d="M1933 2602 c-6 -4 48 -6 120 -4 205 4 228 8 52 10 -88 1 -165 -2
-172 -6z" />
    <path d="M609 2583 l-14 -18 18 14 c9 7 17 15 17 17 0 8 -8 3 -21 -13z" />
    <path d="M900 2596 c0 -2 7 -9 15 -16 l15 -12 0 10 c0 5 -7 12 -15 16 -8 3
-15 4 -15 2z" />
    <path d="M1360 2570 c0 -7 3 -10 7 -7 3 4 3 10 0 14 -4 3 -7 0 -7 -7z" />
    <path d="M150 2550 c0 -7 3 -10 7 -7 3 4 3 10 0 14 -4 3 -7 0 -7 -7z" />
    <path d="M950 2551 c0 -6 4 -13 10 -16 l10 -6 -6 15 c-7 18 -14 21 -14 7z" />
    <path d="M559 2533 l-14 -18 18 14 c9 7 17 15 17 17 0 8 -8 3 -21 -13z" />
    <path d="M1370 2530 c0 -7 3 -10 7 -7 3 4 3 10 0 14 -4 3 -7 0 -7 -7z" />
    <path d="M141 2514 l1 -19 5 13 c3 7 2 16 -1 19 -3 4 -6 -2 -5 -13z" />
    <path d="M980 2510 c0 -7 3 -10 7 -7 3 4 3 10 0 14 -4 3 -7 0 -7 -7z" />
    <path d="M535 2499 c-4 -6 -5 -12 -2 -15 2 -3 7 2 10 11 7 17 1 20 -8 4z" />
    <path d="M1380 2500 c0 -7 3 -10 7 -7 3 4 3 10 0 14 -4 3 -7 0 -7 -7z" />
    <path d="M131 2464 l1 -19 5 13 c3 7 2 16 -1 19 -3 4 -6 -2 -5 -13z" />
    <path d="M520 2460 c0 -7 3 -10 7 -7 3 4 3 10 0 14 -4 3 -7 0 -7 -7z" />
    <path d="M1001 2454 l1 -19 5 13 c3 7 2 16 -1 19 -3 4 -6 -2 -5 -13z" />
    <path d="M1392 2435 l0 -30 5 18 c2 9 2 23 0 30 -3 6 -5 -1 -5 -18z" />
    <path d="M511 2424 l1 -19 5 13 c3 7 2 16 -1 19 -3 4 -6 -2 -5 -13z" />
    <path d="M1014 2200 c0 -107 2 -151 3 -97 2 53 2 141 0 195 -1 53 -3 9 -3 -98z" />
  </g>
  <g transform="translate(0.000000,297.000000) scale(0.100000,-0.100000)" fill="#aee9e4" stroke="none">
    <path d="M515 2920 l-6 -10 15 6 c18 7 21 14 7 14 -6 0 -13 -4 -16 -10z" />
    <path d="M593 2573 c4 -3 10 -3 14 0 3 4 0 7 -7 7 -7 0 -10 -3 -7 -7z" />
    <path d="M570 2550 c0 -7 3 -10 7 -7 3 4 3 10 0 14 -4 3 -7 0 -7 -7z" />
    <path d="M1385 1490 c-3 -5 -1 -10 4 -10 6 0 11 5 11 10 0 6 -2 10 -4 10 -3 0
-8 -4 -11 -10z" />
    <path d="M1044 1348 l-7 -11 11 7 c7 4 12 9 12 12 0 8 -9 4 -16 -8z" />
    <path d="M1022 1300 c0 -14 2 -19 5 -12 2 6 2 18 0 25 -3 6 -5 1 -5 -13z" />
    <path d="M1880 1209 c-7 -11 -10 -23 -7 -25 2 -2 9 7 15 21 14 30 7 33 -8 4z" />
    <path d="M2280 1220 c0 -7 3 -10 7 -7 3 4 3 10 0 14 -4 3 -7 0 -7 -7z" />
    <path d="M1426 1207 c3 -10 9 -15 12 -12 3 3 0 11 -7 18 l-12 12 7 -18z" />
    <path d="M1850 1160 c0 -7 3 -10 7 -7 3 4 3 10 0 14 -4 3 -7 0 -7 -7z" />
    <path d="M1475 1140 c3 -5 8 -10 11 -10 3 0 2 5 -1 10 -3 6 -8 10 -11 10 -3 0
-2 -4 1 -10z" />
    <path d="M2260 1140 c0 -7 3 -10 7 -7 3 4 3 10 0 14 -4 3 -7 0 -7 -7z" />
    <path d="M1525 1100 c3 -5 8 -10 11 -10 3 0 2 5 -1 10 -3 6 -8 10 -11 10 -3 0
-2 -4 1 -10z" />
    <path d="M238 1093 c45 -2 119 -2 165 0 45 1 8 3 -83 3 -91 0 -128 -2 -82 -3z" />
    <path d="M1765 1090 l-6 -10 15 6 c18 7 21 14 7 14 -6 0 -13 -4 -16 -10z" />
    <path d="M2227 1065 c-9 -19 -15 -35 -12 -35 7 0 37 61 33 66 -3 2 -12 -12
-21 -31z" />
    <path d="M1553 1083 c4 -3 10 -3 14 0 3 4 0 7 -7 7 -7 0 -10 -3 -7 -7z" />
    <path d="M1643 1063 c9 -2 23 -2 30 0 6 3 -1 5 -18 5 l-30 0 18 -5z" />
    <path d="M1125 990 c3 -5 8 -10 11 -10 3 0 2 5 -1 10 -3 6 -8 10 -11 10 -3 0
-2 -4 1 -10z" />
    <path d="M1165 940 c3 -5 8 -10 11 -10 3 0 2 5 -1 10 -3 6 -8 10 -11 10 -3 0
-2 -4 1 -10z" />
    <path d="M2124 918 l-7 -11 11 7 c12 7 16 16 8 16 -3 0 -8 -5 -12 -12z" />
    <path d="M1213 893 c4 -3 10 -3 14 0 3 4 0 7 -7 7 -7 0 -10 -3 -7 -7z" />
    <path d="M2054 858 l-7 -11 11 7 c12 7 16 16 8 16 -3 0 -8 -5 -12 -12z" />
    <path d="M2010 840 l-15 -10 12 0 c6 0 15 5 18 10 8 12 4 12 -15 0z" />
    <path d="M1327 819 c7 -7 15 -10 18 -7 3 3 -2 9 -12 12 l-18 7 12 -12z" />
    <path d="M1365 800 c3 -5 8 -10 11 -10 3 0 2 5 -1 10 -3 6 -8 10 -11 10 -3 0
-2 -4 1 -10z" />
    <path d="M1393 783 c4 -3 10 -3 14 0 3 4 0 7 -7 7 -7 0 -10 -3 -7 -7z" />
    <path d="M1523 743 c4 -3 10 -3 14 0 3 4 0 7 -7 7 -7 0 -10 -3 -7 -7z" />
    <path d="M65 260 c3 -5 8 -10 11 -10 3 0 2 5 -1 10 -3 6 -8 10 -11 10 -3 0 -2
-4 1 -10z" />
    <path d="M583 263 c4 -3 10 -3 14 0 3 4 0 7 -7 7 -7 0 -10 -3 -7 -7z" />
    <path d="M663 263 c4 -3 10 -3 14 0 3 4 0 7 -7 7 -7 0 -10 -3 -7 -7z" />
    <path d="M865 260 c3 -5 8 -10 11 -10 3 0 2 5 -1 10 -3 6 -8 10 -11 10 -3 0
-2 -4 1 -10z" />
    <path d="M2273 263 c4 -3 10 -3 14 0 3 4 0 7 -7 7 -7 0 -10 -3 -7 -7z" />
    <path d="M2385 250 c3 -5 8 -10 11 -10 3 0 2 5 -1 10 -3 6 -8 10 -11 10 -3 0
-2 -4 1 -10z" />
    <path d="M1290 240 c0 -7 3 -10 7 -7 3 4 3 10 0 14 -4 3 -7 0 -7 -7z" />
    <path d="M1420 240 c0 -7 3 -10 7 -7 3 4 3 10 0 14 -4 3 -7 0 -7 -7z" />
    <path d="M1835 229 c-4 -6 -5 -12 -2 -15 2 -3 7 2 10 11 7 17 1 20 -8 4z" />
    <path d="M443 223 c4 -3 10 -3 14 0 3 4 0 7 -7 7 -7 0 -10 -3 -7 -7z" />
    <path d="M2293 213 c4 -3 10 -3 14 0 3 4 0 7 -7 7 -7 0 -10 -3 -7 -7z" />
    <path d="M1963 193 c9 -2 25 -2 35 0 9 3 1 5 -18 5 -19 0 -27 -2 -17 -5z" />
    <path d="M564 178 l-7 -11 11 7 c12 7 16 16 8 16 -3 0 -8 -5 -12 -12z" />
    <path d="M685 180 c3 -5 8 -10 11 -10 3 0 2 5 -1 10 -3 6 -8 10 -11 10 -3 0
-2 -4 1 -10z" />
    <path d="M750 180 c0 -7 3 -10 7 -7 3 4 3 10 0 14 -4 3 -7 0 -7 -7z" />
    <path d="M61 88 c2 -86 6 -76 11 25 2 31 0 57 -4 57 -5 0 -7 -37 -7 -82z" />
    <path d="M399 163 l40 -4 5 -22 4 -22 -1 25 -2 25 -43 1 -42 1 39 -4z" />
    <path d="M861 88 c2 -86 6 -76 11 25 2 31 0 57 -4 57 -5 0 -7 -37 -7 -82z" />
    <path d="M85 140 c3 -5 8 -10 11 -10 3 0 2 5 -1 10 -3 6 -8 10 -11 10 -3 0 -2
-4 1 -10z" />
    <path d="M885 140 c3 -5 8 -10 11 -10 3 0 2 5 -1 10 -3 6 -8 10 -11 10 -3 0
-2 -4 1 -10z" />
    <path d="M1443 80 c0 -41 2 -58 4 -38 2 21 2 55 0 76 -2 20 -4 3 -4 -38z" />
    <path d="M1855 140 c3 -5 8 -10 11 -10 3 0 2 5 -1 10 -3 6 -8 10 -11 10 -3 0
-2 -4 1 -10z" />
    <path d="M1271 73 c2 -70 6 -63 11 20 2 26 0 47 -4 47 -5 0 -7 -30 -7 -67z" />
    <path d="M156 118 c3 -4 9 -8 15 -8 5 0 9 4 9 8 0 5 -7 9 -15 9 -8 0 -12 -4
-9 -9z" />
    <path d="M560 120 c0 -7 3 -10 7 -7 3 4 3 10 0 14 -4 3 -7 0 -7 -7z" />
    <path d="M956 118 c3 -4 9 -8 15 -8 5 0 9 4 9 8 0 5 -7 9 -15 9 -8 0 -12 -4
-9 -9z" />
    <path d="M1340 120 c0 -7 3 -10 7 -7 3 4 3 10 0 14 -4 3 -7 0 -7 -7z" />
    <path d="M1370 120 c0 -7 3 -10 7 -7 3 4 3 10 0 14 -4 3 -7 0 -7 -7z" />
    <path d="M105 110 c3 -5 8 -10 11 -10 3 0 2 5 -1 10 -3 6 -8 10 -11 10 -3 0
-2 -4 1 -10z" />
    <path d="M905 110 c3 -5 8 -10 11 -10 3 0 2 5 -1 10 -3 6 -8 10 -11 10 -3 0
-2 -4 1 -10z" />
    <path d="M1921 117 c2 -1 13 -9 24 -17 l20 -15 -14 18 c-7 9 -18 17 -24 17 -6
0 -8 -1 -6 -3z" />
    <path d="M684 98 l-7 -11 11 7 c7 4 12 9 12 12 0 8 -9 4 -16 -8z" />
    <path d="M750 100 c0 -7 3 -10 7 -7 3 4 3 10 0 14 -4 3 -7 0 -7 -7z" />
    <path d="M515 70 c3 -5 8 -10 11 -10 3 0 2 5 -1 10 -3 6 -8 10 -11 10 -3 0 -2
-4 1 -10z" />
    <path d="M1400 70 c0 -7 3 -10 7 -7 3 4 3 10 0 14 -4 3 -7 0 -7 -7z" />
    <path d="M1830 60 c0 -7 3 -10 7 -7 3 4 3 10 0 14 -4 3 -7 0 -7 -7z" />
    <path d="M2318 63 c7 -3 16 -2 19 1 4 3 -2 6 -13 5 l-19 -1 13 -5z" />
    <path d="M443 53 c4 -3 10 -3 14 0 3 4 0 7 -7 7 -7 0 -10 -3 -7 -7z" />
    <path d="M1585 40 c3 -5 8 -10 11 -10 3 0 2 5 -1 10 -3 6 -8 10 -11 10 -3 0
-2 -4 1 -10z" />
    <path d="M555 30 c3 -5 8 -10 11 -10 3 0 2 5 -1 10 -3 6 -8 10 -11 10 -3 0 -2
-4 1 -10z" />
    <path d="M1984 28 l-7 -11 11 7 c7 4 12 9 12 12 0 8 -9 4 -16 -8z" />
    <path d="M1330 20 c0 -7 3 -10 7 -7 3 4 3 10 0 14 -4 3 -7 0 -7 -7z" />
    <path d="M1953 13 c4 -3 10 -3 14 0 3 4 0 7 -7 7 -7 0 -10 -3 -7 -7z" />
  </g>
  <g transform="translate(0.000000,297.000000) scale(0.100000,-0.100000)" fill="#63dcd8" stroke="none">
    <path d="M1382 1494 l-13 -14 10 0 c10 0 25 19 20 25 -2 1 -10 -3 -17 -11z" />
    <path d="M1023 1483 c4 -3 10 -3 14 0 3 4 0 7 -7 7 -7 0 -10 -3 -7 -7z" />
    <path d="M1900 1260 c0 -7 3 -10 7 -7 3 4 3 10 0 14 -4 3 -7 0 -7 -7z" />
    <path d="M1890 1230 c0 -7 3 -10 7 -7 3 4 3 10 0 14 -4 3 -7 0 -7 -7z" />
    <path d="M2280 1230 c0 -7 3 -10 7 -7 3 4 3 10 0 14 -4 3 -7 0 -7 -7z" />
    <path d="M2270 1190 c0 -7 3 -10 7 -7 3 4 3 10 0 14 -4 3 -7 0 -7 -7z" />
    <path d="M2260 1150 c0 -7 3 -10 7 -7 3 4 3 10 0 14 -4 3 -7 0 -7 -7z" />
    <path d="M1050 1140 c0 -7 3 -10 7 -7 3 4 3 10 0 14 -4 3 -7 0 -7 -7z" />
    <path d="M1784 1098 l-7 -11 11 7 c12 7 16 16 8 16 -3 0 -8 -5 -12 -12z" />
    <path d="M2204 1028 l-7 -11 11 7 c12 7 16 16 8 16 -3 0 -8 -5 -12 -12z" />
    <path d="M1135 980 c3 -5 8 -10 11 -10 3 0 2 5 -1 10 -3 6 -8 10 -11 10 -3 0
-2 -4 1 -10z" />
    <path d="M2154 958 l-7 -11 11 7 c12 7 16 16 8 16 -3 0 -8 -5 -12 -12z" />
    <path d="M2069 873 l-14 -18 18 14 c16 13 21 21 13 21 -2 0 -10 -8 -17 -17z" />
    <path d="M1255 870 c3 -5 8 -10 11 -10 3 0 2 5 -1 10 -3 6 -8 10 -11 10 -3 0
-2 -4 1 -10z" />
    <path d="M1994 828 l-7 -11 11 7 c12 7 16 16 8 16 -3 0 -8 -5 -12 -12z" />
    <path d="M1903 783 c4 -3 10 -3 14 0 3 4 0 7 -7 7 -7 0 -10 -3 -7 -7z" />
    <path d="M1488 753 c7 -3 16 -2 19 1 4 3 -2 6 -13 5 l-19 -1 13 -5z" />
    <path d="M1813 753 c4 -3 10 -3 14 0 3 4 0 7 -7 7 -7 0 -10 -3 -7 -7z" />
    <path d="M173 190 c0 -47 2 -66 4 -42 2 23 2 61 0 85 -2 23 -4 4 -4 -43z" />
    <path d="M973 190 c0 -47 2 -66 4 -42 2 23 2 61 0 85 -2 23 -4 4 -4 -43z" />
    <path d="M1564 185 c0 -49 1 -71 3 -48 2 23 2 64 0 90 -2 26 -3 8 -3 -42z" />
    <path d="M1985 250 c3 -5 8 -10 11 -10 3 0 2 5 -1 10 -3 6 -8 10 -11 10 -3 0
-2 -4 1 -10z" />
    <path d="M373 223 c15 -2 39 -2 55 0 15 2 2 4 -28 4 -30 0 -43 -2 -27 -4z" />
    <path d="M613 213 c4 -3 10 -3 14 0 3 4 0 7 -7 7 -7 0 -10 -3 -7 -7z" />
    <path d="M2264 198 l-7 -11 11 7 c7 4 12 9 12 12 0 8 -9 4 -16 -8z" />
    <path d="M2355 200 c3 -5 8 -10 11 -10 3 0 2 5 -1 10 -3 6 -8 10 -11 10 -3 0
-2 -4 1 -10z" />
    <path d="M63 163 c4 -3 10 -3 14 0 3 4 0 7 -7 7 -7 0 -10 -3 -7 -7z" />
    <path d="M863 163 c4 -3 10 -3 14 0 3 4 0 7 -7 7 -7 0 -10 -3 -7 -7z" />
    <path d="M1270 140 c0 -5 5 -10 11 -10 5 0 7 5 4 10 -3 6 -8 10 -11 10 -2 0
-4 -4 -4 -10z" />
    <path d="M1770 110 c0 -7 3 -10 7 -7 3 4 3 10 0 14 -4 3 -7 0 -7 -7z" />
    <path d="M1830 86 c0 -2 15 -6 34 -8 19 -2 32 0 30 4 -5 8 -64 12 -64 4z" />
    <path d="M2265 80 c3 -5 8 -10 11 -10 3 0 2 5 -1 10 -3 6 -8 10 -11 10 -3 0
-2 -4 1 -10z" />
    <path d="M2354 78 l-7 -11 11 7 c12 7 16 16 8 16 -3 0 -8 -5 -12 -12z" />
    <path d="M618 63 c6 -2 18 -2 25 0 6 3 1 5 -13 5 -14 0 -19 -2 -12 -5z" />
    <path d="M2414 58 l-7 -11 11 7 c7 4 12 9 12 12 0 8 -9 4 -16 -8z" />
    <path d="M373 53 c15 -2 39 -2 55 0 15 2 2 4 -28 4 -30 0 -43 -2 -27 -4z" />
    <path d="M1918 53 c7 -3 16 -2 19 1 4 3 -2 6 -13 5 l-19 -1 13 -5z" />
    <path d="M1994 38 l-7 -11 11 7 c12 7 16 16 8 16 -3 0 -8 -5 -12 -12z" />
  </g>
  <g transform="translate(0.000000,297.000000) scale(0.100000,-0.100000)" fill="#3ad5cb" stroke="none">
    <path d="M134 1630 c0 -85 2 -120 3 -77 2 42 2 112 0 155 -1 42 -3 7 -3 -78z" />
    <path d="M131 1134 l1 -19 5 13 c3 7 2 16 -1 19 -3 4 -6 -2 -5 -13z" />
    <path d="M1824 1128 l-7 -11 11 7 c12 7 16 16 8 16 -3 0 -8 -5 -12 -12z" />
    <path d="M2144 948 l-7 -11 11 7 c12 7 16 16 8 16 -3 0 -8 -5 -12 -12z" />
    <path d="M1638 733 c12 -2 32 -2 45 0 12 2 2 4 -23 4 -25 0 -35 -2 -22 -4z" />
    <path d="M1773 190 c0 -47 2 -66 4 -42 2 23 2 61 0 85 -2 23 -4 4 -4 -43z" />
    <path d="M1935 220 c3 -5 8 -10 11 -10 3 0 2 5 -1 10 -3 6 -8 10 -11 10 -3 0
-2 -4 1 -10z" />
    <path d="M1353 93 c4 -3 10 -3 14 0 3 4 0 7 -7 7 -7 0 -10 -3 -7 -7z" />
    <path d="M2399 43 l-14 -18 18 14 c16 13 21 21 13 21 -2 0 -10 -8 -17 -17z" />
  </g>
  <g transform="translate(0.000000,297.000000) scale(0.100000,-0.100000)" fill="#2d74af" stroke="none">
    <path d="M643 2953 c4 -3 10 -3 14 0 3 4 0 7 -7 7 -7 0 -10 -3 -7 -7z" />
    <path d="M868 2953 c7 -3 16 -2 19 1 4 3 -2 6 -13 5 l-19 -1 13 -5z" />
    <path d="M913 2943 c4 -3 10 -3 14 0 3 4 0 7 -7 7 -7 0 -10 -3 -7 -7z" />
    <path d="M983 2923 c4 -3 10 -3 14 0 3 4 0 7 -7 7 -7 0 -10 -3 -7 -7z" />
    <path d="M364 2838 l-7 -11 11 7 c7 4 12 9 12 12 0 8 -9 4 -16 -8z" />
    <path d="M1150 2836 c0 -2 8 -10 18 -17 l17 -14 -14 18 c-13 16 -21 21 -21 13z" />
    <path d="M294 2778 l-7 -11 11 7 c12 7 16 16 8 16 -3 0 -8 -5 -12 -12z" />
    <path d="M1260 2736 c0 -2 8 -10 18 -17 l17 -14 -14 18 c-13 16 -21 21 -21 13z" />
    <path d="M234 2708 l-7 -11 11 7 c12 7 16 16 8 16 -3 0 -8 -5 -12 -12z" />
    <path d="M1295 2690 c3 -5 8 -10 11 -10 3 0 2 5 -1 10 -3 6 -8 10 -11 10 -3 0
-2 -4 1 -10z" />
    <path d="M783 2633 c4 -3 10 -3 14 0 3 4 0 7 -7 7 -7 0 -10 -3 -7 -7z" />
    <path d="M584 2568 l-7 -11 11 7 c7 4 12 9 12 12 0 8 -9 4 -16 -8z" />
    <path d="M1915 2205 c0 -209 1 -296 2 -193 2 103 2 274 0 380 -1 106 -2 22 -2
-187z" />
    <path d="M945 2560 c3 -5 8 -10 11 -10 3 0 2 5 -1 10 -3 6 -8 10 -11 10 -3 0
-2 -4 1 -10z" />
    <path d="M975 2520 c3 -5 8 -10 11 -10 3 0 2 5 -1 10 -3 6 -8 10 -11 10 -3 0
-2 -4 1 -10z" />
    <path d="M1380 2490 c0 -7 3 -10 7 -7 3 4 3 10 0 14 -4 3 -7 0 -7 -7z" />
    <path d="M1010 2420 c0 -7 3 -10 7 -7 3 4 3 10 0 14 -4 3 -7 0 -7 -7z" />
    <path d="M1394 2175 c0 -110 2 -156 3 -103 2 53 2 143 0 200 -1 57 -3 13 -3
-97z" />
  </g>
  <g transform="translate(0.000000,297.000000) scale(0.100000,-0.100000)" fill="#28adc7" stroke="none">
    <path d="M133 2345 c0 -33 2 -45 4 -27 2 18 2 45 0 60 -2 15 -4 0 -4 -33z" />
    <path d="M1914 1535 c0 -121 2 -169 3 -107 2 62 2 161 0 220 -1 59 -3 8 -3
-113z" />
    <path d="M1394 1620 c0 -69 1 -97 3 -62 2 34 2 90 0 125 -2 34 -3 6 -3 -63z" />
    <path d="M1112 1483 c48 -2 129 -2 180 0 51 1 12 3 -87 3 -99 0 -141 -2 -93
-3z" />
  </g>
  <g transform="translate(0.000000,297.000000) scale(0.100000,-0.100000)" fill="#3d92bf" stroke="none">
    <path d="M403 2863 c4 -3 10 -3 14 0 3 4 0 7 -7 7 -7 0 -10 -3 -7 -7z" />
    <path d="M1200 2796 c0 -3 9 -10 20 -16 11 -6 20 -8 20 -6 0 3 -9 10 -20 16
-11 6 -20 8 -20 6z" />
    <path d="M2275 2590 c3 -5 8 -10 11 -10 3 0 2 5 -1 10 -3 6 -8 10 -11 10 -3 0
-2 -4 1 -10z" />
    <path d="M574 2558 l-7 -11 11 7 c7 4 12 9 12 12 0 8 -9 4 -16 -8z" />
    <path d="M965 2530 c3 -5 8 -10 11 -10 3 0 2 5 -1 10 -3 6 -8 10 -11 10 -3 0
-2 -4 1 -10z" />
    <path d="M132 2440 c0 -14 2 -19 5 -12 2 6 2 18 0 25 -3 6 -5 1 -5 -13z" />
    <path d="M1012 2400 c0 -14 2 -19 5 -12 2 6 2 18 0 25 -3 6 -5 1 -5 -13z" />
    <path d="M1394 1860 c0 -74 1 -105 3 -67 2 37 2 97 0 135 -2 37 -3 6 -3 -68z" />
    <path d="M1913 1790 c0 -30 2 -43 4 -27 2 15 2 39 0 55 -2 15 -4 2 -4 -28z" />
  </g>
</svg>